<svg aria-hidden="true" xmlns="http://www.w3.org/2000/svg" xmlns:xlink="http://www.w3.org/1999/xlink"><symbol viewBox="0 0 20 20" fill="none" id="close-icon" xmlns="http://www.w3.org/2000/svg">
<line x1="4" y1="15.7264" x2="16.7279" y2="2.99849" stroke="currentColor" stroke-width="2" stroke-linecap="round"/>
<line x1="4.41421" y1="3" x2="17.1421" y2="15.7279" stroke="currentColor" stroke-width="2" stroke-linecap="round"/>
<line x1="4" y1="15.7264" x2="16.7279" y2="2.99849" stroke="currentColor" stroke-width="2" stroke-linecap="round"/>
<line x1="4.41421" y1="3" x2="17.1421" y2="15.7279" stroke="currentColor" stroke-width="2" stroke-linecap="round"/>
</symbol><symbol viewBox="0 0 22 24" fill="none" id="hashtag" xmlns="http://www.w3.org/2000/svg">
<path d="M21.5391 6.65625L12.2695 12L21.5391 17.3438L20.7891 18.6562L11.5195 13.3008V24H10.0195V13.3008L0.75 18.6562L0 17.3438L9.26953 12L0 6.65625L0.75 5.34375L10.0195 10.6992V0H11.5195V10.6992L20.7891 5.34375L21.5391 6.65625Z" fill="currentColor"/>
</symbol><symbol viewBox="0 0 19 19" fill="none" id="instagram" xmlns="http://www.w3.org/2000/svg">
<path d="M10.1095 0C11.1408 0.00275 11.6642 0.00825 12.1161 0.0210833L12.2939 0.0275C12.4993 0.0348333 12.7019 0.0439999 12.9466 0.0549999C13.9219 0.100833 14.5874 0.254833 15.1714 0.48125C15.7764 0.714083 16.286 1.02942 16.7957 1.53817C17.262 1.99625 17.6227 2.5506 17.8526 3.1625C18.079 3.74642 18.233 4.41192 18.2789 5.38817C18.2899 5.632 18.299 5.83458 18.3064 6.04083L18.3119 6.21867C18.3256 6.66967 18.3311 7.19308 18.3329 8.22433L18.3339 8.90817V10.109C18.3361 10.7776 18.3291 11.4462 18.3128 12.1147L18.3073 12.2925C18.2999 12.4987 18.2908 12.7013 18.2798 12.9452C18.2339 13.9214 18.0781 14.586 17.8526 15.1708C17.6227 15.7827 17.262 16.3371 16.7957 16.7952C16.3376 17.2615 15.7833 17.6222 15.1714 17.8521C14.5874 18.0785 13.9219 18.2325 12.9466 18.2783L12.2939 18.3058L12.1161 18.3113C11.6642 18.3242 11.1408 18.3306 10.1095 18.3324L9.42569 18.3333H8.22577C7.55685 18.3357 6.88792 18.3287 6.21919 18.3122L6.04136 18.3067C5.82375 18.2985 5.60619 18.289 5.38869 18.2783C4.41336 18.2325 3.74786 18.0785 3.16302 17.8521C2.55145 17.6221 1.99743 17.2614 1.5396 16.7952C1.07297 16.3372 0.711955 15.7828 0.481772 15.1708C0.255355 14.5869 0.101355 13.9214 0.0555214 12.9452L0.0280214 12.2925L0.0234382 12.1147C0.00654036 11.4462 -0.00109935 10.7776 0.000521397 10.109V8.22433C-0.00201584 7.55572 0.0047071 6.8871 0.0206881 6.21867L0.0271048 6.04083C0.0344381 5.83458 0.0436048 5.632 0.0546048 5.38817C0.100438 4.41192 0.254438 3.74733 0.480855 3.1625C0.711575 2.55035 1.07323 1.99598 1.54052 1.53817C1.99808 1.07209 2.55178 0.711401 3.16302 0.48125C3.74786 0.254833 4.41244 0.100833 5.38869 0.0549999C5.63252 0.0439999 5.83602 0.0348333 6.04136 0.0275L6.21919 0.0219999C6.88762 0.00571331 7.55623 -0.00131514 8.22486 0.0009166L10.1095 0ZM9.16719 4.58333C7.95161 4.58333 6.78582 5.06622 5.92628 5.92576C5.06674 6.7853 4.58386 7.95109 4.58386 9.16667C4.58386 10.3822 5.06674 11.548 5.92628 12.4076C6.78582 13.2671 7.95161 13.75 9.16719 13.75C10.3828 13.75 11.5486 13.2671 12.4081 12.4076C13.2676 11.548 13.7505 10.3822 13.7505 9.16667C13.7505 7.95109 13.2676 6.7853 12.4081 5.92576C11.5486 5.06622 10.3828 4.58333 9.16719 4.58333ZM9.16719 6.41667C9.52832 6.41661 9.88593 6.48768 10.2196 6.62582C10.5533 6.76397 10.8565 6.96648 11.1119 7.2218C11.3673 7.47712 11.5699 7.78024 11.7081 8.11386C11.8464 8.44749 11.9176 8.80507 11.9176 9.16621C11.9177 9.52734 11.8466 9.88495 11.7085 10.2186C11.5703 10.5523 11.3678 10.8555 11.1125 11.1109C10.8572 11.3663 10.5541 11.5689 10.2205 11.7072C9.88683 11.8454 9.52924 11.9166 9.16811 11.9167C8.43876 11.9167 7.73929 11.6269 7.22356 11.1112C6.70784 10.5955 6.41811 9.89601 6.41811 9.16667C6.41811 8.43732 6.70784 7.73785 7.22356 7.22212C7.73929 6.7064 8.43876 6.41667 9.16811 6.41667M13.9806 3.20833C13.6767 3.20833 13.3853 3.32905 13.1704 3.54394C12.9555 3.75883 12.8348 4.05027 12.8348 4.35417C12.8348 4.65806 12.9555 4.94951 13.1704 5.16439C13.3853 5.37928 13.6767 5.5 13.9806 5.5C14.2845 5.5 14.5759 5.37928 14.7908 5.16439C15.0057 4.94951 15.1264 4.65806 15.1264 4.35417C15.1264 4.05027 15.0057 3.75883 14.7908 3.54394C14.5759 3.32905 14.2845 3.20833 13.9806 3.20833Z" fill="currentColor"/>
</symbol><symbol viewBox="0 0 21 6" fill="none" id="line-arrow" xmlns="http://www.w3.org/2000/svg">
<path d="M20.5 2.88672L15.5 5.77347V-3.26633e-05L20.5 2.88672ZM0.499998 3.38672C0.223856 3.38672 -1.90735e-06 3.16286 -1.90735e-06 2.88672C-1.90735e-06 2.61058 0.223856 2.38672 0.499998 2.38672V2.88672V3.38672ZM16 2.88672V3.38672L0.499998 3.38672V2.88672V2.38672L16 2.38672V2.88672Z" fill="currentColor"/>
</symbol><symbol viewBox="0 0 40 40" fill="none" id="menu" xmlns="http://www.w3.org/2000/svg">
<rect width="40" height="40" rx="4" fill="currentColor"/>
<line x1="11" y1="13" x2="29" y2="13" stroke="currentColor" stroke-width="2" stroke-linecap="round"/>
<line x1="11" y1="17" x2="29" y2="17" stroke="currentColor" stroke-width="2" stroke-linecap="round"/>
<line x1="11" y1="21" x2="29" y2="21" stroke="currentColor" stroke-width="2" stroke-linecap="round"/>
<line x1="11" y1="25" x2="29" y2="25" stroke="currentColor" stroke-width="2" stroke-linecap="round"/>
</symbol><symbol viewBox="0 0 16 16" fill="none" id="minus" xmlns="http://www.w3.org/2000/svg">
<path d="M4 8H12" stroke="currentColor" stroke-width="1.5" stroke-linecap="round" stroke-linejoin="round"/>
</symbol><symbol viewBox="0 0 15 15" fill="none" id="phone" xmlns="http://www.w3.org/2000/svg">
<path d="M3.01667 6.49167C4.21667 8.85 6.15 10.775 8.50833 11.9833L10.3417 10.15C10.5667 9.925 10.9 9.85 11.1917 9.95C12.125 10.2583 13.1333 10.425 14.1667 10.425C14.625 10.425 15 10.8 15 11.2583V14.1667C15 14.625 14.625 15 14.1667 15C6.34167 15 0 8.65833 0 0.833333C0 0.375 0.375 0 0.833333 0H3.75C4.20833 0 4.58333 0.375 4.58333 0.833333C4.58333 1.875 4.75 2.875 5.05833 3.80833C5.15 4.1 5.08333 4.425 4.85 4.65833L3.01667 6.49167Z" fill="currentColor"/>
</symbol><symbol viewBox="0 0 16 16" fill="none" id="plus" xmlns="http://www.w3.org/2000/svg">
<path d="M2 8H14" stroke="currentColor" stroke-width="1.5" stroke-linecap="round" stroke-linejoin="round"/>
<path d="M8 2V14" stroke="currentColor" stroke-width="1.5" stroke-linecap="round" stroke-linejoin="round"/>
</symbol><symbol viewBox="0 0 8 8" fill="none" id="short-line-arrow" xmlns="http://www.w3.org/2000/svg">
<path d="M5.57641 4.31211e-07H7.73071C7.80213 4.31211e-07 7.87063 0.0283717 7.92113 0.078873C7.97163 0.129374 8 0.197869 8 0.269288V2.42359C8.00009 2.47692 7.98435 2.52908 7.95477 2.57345C7.92519 2.61782 7.88309 2.65241 7.83383 2.67283C7.78456 2.69326 7.73034 2.69859 7.67804 2.68816C7.62574 2.67773 7.57772 2.652 7.54006 2.61425L6.65356 1.72721L0.381312 8L4.76837e-07 7.61869L6.27279 1.34644L5.38575 0.459944C5.348 0.422281 5.32227 0.374256 5.31184 0.321956C5.30141 0.269656 5.30674 0.215436 5.32717 0.166171C5.34759 0.116905 5.38218 0.074813 5.42655 0.0452299C5.47092 0.0156467 5.52308 -9.49856e-05 5.57641 4.31211e-07Z" fill="currentColor"/>
</symbol></svg>