<svg aria-hidden="true" xmlns="http://www.w3.org/2000/svg" xmlns:xlink="http://www.w3.org/1999/xlink"><symbol viewBox="0 0 14 14" fill="none" id="archive" xmlns="http://www.w3.org/2000/svg">
<path d="M5.83333 10V3.20833L3.66667 5.375L2.5 4.16667L6.66667 0L10.8333 4.16667L9.66667 5.375L7.5 3.20833V10H5.83333ZM1.66667 13.3333C1.20833 13.3333 0.816111 13.1703 0.49 12.8442C0.163889 12.5181 0.000555555 12.1256 0 11.6667V9.16666H1.66667V11.6667H11.6667V9.16666H13.3333V11.6667C13.3333 12.125 13.1703 12.5175 12.8442 12.8442C12.5181 13.1708 12.1256 13.3339 11.6667 13.3333H1.66667Z" fill="currentColor"/>
</symbol><symbol viewBox="0 0 5 8" fill="none" id="arrow" xmlns="http://www.w3.org/2000/svg">
<path d="M0.353516 7.35547L3.85352 3.85547L0.353516 0.355469" stroke="currentColor"/>
</symbol><symbol viewBox="0 0 14 14" fill="none" id="arrow-short-line" xmlns="http://www.w3.org/2000/svg">
<path d="M12.378 0.749396L1.06432 12.0631M0.750055 1.06367L1.06432 12.0631L12.0638 12.3774" stroke="currentColor" stroke-width="1.5" stroke-linecap="round" stroke-linejoin="round"/>
</symbol><symbol viewBox="0 0 20 20" fill="none" id="close-icon" xmlns="http://www.w3.org/2000/svg">
<line x1="4" y1="15.7264" x2="16.7279" y2="2.99849" stroke="currentColor" stroke-width="2" stroke-linecap="round"/>
<line x1="4.41421" y1="3" x2="17.1421" y2="15.7279" stroke="currentColor" stroke-width="2" stroke-linecap="round"/>
<line x1="4" y1="15.7264" x2="16.7279" y2="2.99849" stroke="currentColor" stroke-width="2" stroke-linecap="round"/>
<line x1="4.41421" y1="3" x2="17.1421" y2="15.7279" stroke="currentColor" stroke-width="2" stroke-linecap="round"/>
</symbol><symbol viewBox="0 0 12 9" fill="none" id="email" xmlns="http://www.w3.org/2000/svg">
<path d="M1.07155 0.5H10.2144C10.5287 0.5 10.7858 0.757143 10.7858 1.07143V7.92857C10.7858 8.24286 10.5287 8.5 10.2144 8.5H1.07155C0.757265 8.5 0.500122 8.24286 0.500122 7.92857V1.07143C0.500122 0.757143 0.757265 0.5 1.07155 0.5Z" stroke="currentColor" stroke-linecap="round" stroke-linejoin="round"/>
<path d="M0.500122 1.35547L5.64298 4.49833L10.7858 1.35547" stroke="currentColor" stroke-linecap="round" stroke-linejoin="round"/>
</symbol><symbol viewBox="0 0 20 20" fill="none" id="facebook" xmlns="http://www.w3.org/2000/svg">
<path d="M20 10C20 4.48 15.52 0 10 0C4.48 0 0 4.48 0 10C0 14.84 3.44 18.87 8 19.8V13H6V10H8V7.5C8 5.57 9.57 4 11.5 4H14V7H12C11.45 7 11 7.45 11 8V10H14V13H11V19.95C16.05 19.45 20 15.19 20 10Z" fill="currentColor"/>
</symbol><symbol viewBox="0 0 22 24" fill="none" id="hashtag" xmlns="http://www.w3.org/2000/svg">
<path d="M21.5391 6.65625L12.2695 12L21.5391 17.3438L20.7891 18.6562L11.5195 13.3008V24H10.0195V13.3008L0.75 18.6562L0 17.3438L9.26953 12L0 6.65625L0.75 5.34375L10.0195 10.6992V0H11.5195V10.6992L20.7891 5.34375L21.5391 6.65625Z" fill="currentColor"/>
</symbol><symbol viewBox="0 0 20 20" fill="none" id="in" xmlns="http://www.w3.org/2000/svg">
<path d="M17.04 17.043H14.078V12.403C14.078 11.296 14.055 9.872 12.534 9.872C10.99 9.872 10.754 11.076 10.754 12.321V17.043H7.793V7.5H10.637V8.8H10.676C11.073 8.05 12.04 7.26 13.484 7.26C16.485 7.26 17.04 9.234 17.04 11.805V17.043ZM4.447 6.194C3.493 6.194 2.727 5.423 2.727 4.474C2.727 3.525 3.494 2.754 4.447 2.754C4.90317 2.754 5.34066 2.93521 5.66322 3.25778C5.98579 3.58034 6.167 4.01783 6.167 4.474C6.167 4.93017 5.98579 5.36766 5.66322 5.69022C5.34066 6.01279 4.90317 6.194 4.447 6.194ZM5.931 17.044H2.961V7.5H5.931V17.044ZM18.522 0H1.476C0.66 0 0 0.645 0 1.44V18.56C0 19.355 0.66 20 1.476 20H18.518C19.333 20 20 19.356 20 18.56V1.44C20 0.646 19.333 0 18.518 0H18.522Z" fill="currentColor"/>
</symbol><symbol viewBox="0 0 19 19" fill="none" id="instagram" xmlns="http://www.w3.org/2000/svg">
<path d="M10.1095 0C11.1408 0.00275 11.6642 0.00825 12.1161 0.0210833L12.2939 0.0275C12.4993 0.0348333 12.7019 0.0439999 12.9466 0.0549999C13.9219 0.100833 14.5874 0.254833 15.1714 0.48125C15.7764 0.714083 16.286 1.02942 16.7957 1.53817C17.262 1.99625 17.6227 2.5506 17.8526 3.1625C18.079 3.74642 18.233 4.41192 18.2789 5.38817C18.2899 5.632 18.299 5.83458 18.3064 6.04083L18.3119 6.21867C18.3256 6.66967 18.3311 7.19308 18.3329 8.22433L18.3339 8.90817V10.109C18.3361 10.7776 18.3291 11.4462 18.3128 12.1147L18.3073 12.2925C18.2999 12.4987 18.2908 12.7013 18.2798 12.9452C18.2339 13.9214 18.0781 14.586 17.8526 15.1708C17.6227 15.7827 17.262 16.3371 16.7957 16.7952C16.3376 17.2615 15.7833 17.6222 15.1714 17.8521C14.5874 18.0785 13.9219 18.2325 12.9466 18.2783L12.2939 18.3058L12.1161 18.3113C11.6642 18.3242 11.1408 18.3306 10.1095 18.3324L9.42569 18.3333H8.22577C7.55685 18.3357 6.88792 18.3287 6.21919 18.3122L6.04136 18.3067C5.82375 18.2985 5.60619 18.289 5.38869 18.2783C4.41336 18.2325 3.74786 18.0785 3.16302 17.8521C2.55145 17.6221 1.99743 17.2614 1.5396 16.7952C1.07297 16.3372 0.711955 15.7828 0.481772 15.1708C0.255355 14.5869 0.101355 13.9214 0.0555214 12.9452L0.0280214 12.2925L0.0234382 12.1147C0.00654036 11.4462 -0.00109935 10.7776 0.000521397 10.109V8.22433C-0.00201584 7.55572 0.0047071 6.8871 0.0206881 6.21867L0.0271048 6.04083C0.0344381 5.83458 0.0436048 5.632 0.0546048 5.38817C0.100438 4.41192 0.254438 3.74733 0.480855 3.1625C0.711575 2.55035 1.07323 1.99598 1.54052 1.53817C1.99808 1.07209 2.55178 0.711401 3.16302 0.48125C3.74786 0.254833 4.41244 0.100833 5.38869 0.0549999C5.63252 0.0439999 5.83602 0.0348333 6.04136 0.0275L6.21919 0.0219999C6.88762 0.00571331 7.55623 -0.00131514 8.22486 0.0009166L10.1095 0ZM9.16719 4.58333C7.95161 4.58333 6.78582 5.06622 5.92628 5.92576C5.06674 6.7853 4.58386 7.95109 4.58386 9.16667C4.58386 10.3822 5.06674 11.548 5.92628 12.4076C6.78582 13.2671 7.95161 13.75 9.16719 13.75C10.3828 13.75 11.5486 13.2671 12.4081 12.4076C13.2676 11.548 13.7505 10.3822 13.7505 9.16667C13.7505 7.95109 13.2676 6.7853 12.4081 5.92576C11.5486 5.06622 10.3828 4.58333 9.16719 4.58333ZM9.16719 6.41667C9.52832 6.41661 9.88593 6.48768 10.2196 6.62582C10.5533 6.76397 10.8565 6.96648 11.1119 7.2218C11.3673 7.47712 11.5699 7.78024 11.7081 8.11386C11.8464 8.44749 11.9176 8.80507 11.9176 9.16621C11.9177 9.52734 11.8466 9.88495 11.7085 10.2186C11.5703 10.5523 11.3678 10.8555 11.1125 11.1109C10.8572 11.3663 10.5541 11.5689 10.2205 11.7072C9.88683 11.8454 9.52924 11.9166 9.16811 11.9167C8.43876 11.9167 7.73929 11.6269 7.22356 11.1112C6.70784 10.5955 6.41811 9.89601 6.41811 9.16667C6.41811 8.43732 6.70784 7.73785 7.22356 7.22212C7.73929 6.7064 8.43876 6.41667 9.16811 6.41667M13.9806 3.20833C13.6767 3.20833 13.3853 3.32905 13.1704 3.54394C12.9555 3.75883 12.8348 4.05027 12.8348 4.35417C12.8348 4.65806 12.9555 4.94951 13.1704 5.16439C13.3853 5.37928 13.6767 5.5 13.9806 5.5C14.2845 5.5 14.5759 5.37928 14.7908 5.16439C15.0057 4.94951 15.1264 4.65806 15.1264 4.35417C15.1264 4.05027 15.0057 3.75883 14.7908 3.54394C14.5759 3.32905 14.2845 3.20833 13.9806 3.20833Z" fill="currentColor"/>
</symbol><symbol viewBox="0 0 21 6" fill="none" id="line-arrow" xmlns="http://www.w3.org/2000/svg">
<path d="M20.5 2.88672L15.5 5.77347V-3.26633e-05L20.5 2.88672ZM0.499998 3.38672C0.223856 3.38672 -1.90735e-06 3.16286 -1.90735e-06 2.88672C-1.90735e-06 2.61058 0.223856 2.38672 0.499998 2.38672V2.88672V3.38672ZM16 2.88672V3.38672L0.499998 3.38672V2.88672V2.38672L16 2.38672V2.88672Z" fill="currentColor"/>
</symbol><symbol viewBox="0 0 6 8" fill="none" id="local" xmlns="http://www.w3.org/2000/svg">
<path d="M3 3.8C2.71584 3.8 2.44332 3.69464 2.24239 3.50711C2.04145 3.31957 1.92857 3.06522 1.92857 2.8C1.92857 2.53478 2.04145 2.28043 2.24239 2.09289C2.44332 1.90536 2.71584 1.8 3 1.8C3.28416 1.8 3.55668 1.90536 3.75761 2.09289C3.95855 2.28043 4.07143 2.53478 4.07143 2.8C4.07143 2.93132 4.04372 3.06136 3.98987 3.18268C3.93603 3.30401 3.85711 3.41425 3.75761 3.50711C3.65812 3.59997 3.54001 3.67362 3.41002 3.72388C3.28003 3.77413 3.1407 3.8 3 3.8ZM3 0C2.20435 0 1.44129 0.294999 0.87868 0.820101C0.31607 1.3452 0 2.05739 0 2.8C0 4.9 3 8 3 8C3 8 6 4.9 6 2.8C6 2.05739 5.68393 1.3452 5.12132 0.820101C4.55871 0.294999 3.79565 0 3 0Z" fill="currentColor"/>
</symbol><symbol viewBox="0 0 40 40" fill="none" id="menu" xmlns="http://www.w3.org/2000/svg">
<rect width="40" height="40" rx="4" fill="currentColor"/>
<line x1="11" y1="13" x2="29" y2="13" stroke="currentColor" stroke-width="2" stroke-linecap="round"/>
<line x1="11" y1="17" x2="29" y2="17" stroke="currentColor" stroke-width="2" stroke-linecap="round"/>
<line x1="11" y1="21" x2="29" y2="21" stroke="currentColor" stroke-width="2" stroke-linecap="round"/>
<line x1="11" y1="25" x2="29" y2="25" stroke="currentColor" stroke-width="2" stroke-linecap="round"/>
</symbol><symbol viewBox="0 0 16 16" fill="none" id="minus" xmlns="http://www.w3.org/2000/svg">
<path d="M4 8H12" stroke="currentColor" stroke-width="1.5" stroke-linecap="round" stroke-linejoin="round"/>
</symbol><symbol viewBox="0 0 15 15" fill="none" id="phone" xmlns="http://www.w3.org/2000/svg">
<path d="M3.01667 6.49167C4.21667 8.85 6.15 10.775 8.50833 11.9833L10.3417 10.15C10.5667 9.925 10.9 9.85 11.1917 9.95C12.125 10.2583 13.1333 10.425 14.1667 10.425C14.625 10.425 15 10.8 15 11.2583V14.1667C15 14.625 14.625 15 14.1667 15C6.34167 15 0 8.65833 0 0.833333C0 0.375 0.375 0 0.833333 0H3.75C4.20833 0 4.58333 0.375 4.58333 0.833333C4.58333 1.875 4.75 2.875 5.05833 3.80833C5.15 4.1 5.08333 4.425 4.85 4.65833L3.01667 6.49167Z" fill="currentColor"/>
</symbol><symbol viewBox="0 0 12 12" fill="none" id="play" xmlns="http://www.w3.org/2000/svg">
<g clip-path="url(#oclip0_1439_1938)">
<path d="M10.2045 4.67665C10.4446 4.80436 10.6455 4.995 10.7856 5.22815C10.9257 5.46129 10.9997 5.72816 10.9997 6.00015C10.9997 6.27215 10.9257 6.53901 10.7856 6.77216C10.6455 7.00531 10.4446 7.19595 10.2045 7.32365L3.7985 10.8072C2.767 11.3687 1.5 10.6387 1.5 9.48415V2.51665C1.5 1.36165 2.767 0.632154 3.7985 1.19265L10.2045 4.67665Z" stroke="currentColor" stroke-width="1.5"/>
</g>
<defs>
<clipPath id="oclip0_1439_1938">
<rect width="12" height="12" fill="currentColor"/>
</clipPath>
</defs>
</symbol><symbol viewBox="0 0 16 16" fill="none" id="plus" xmlns="http://www.w3.org/2000/svg">
<path d="M2 8H14" stroke="currentColor" stroke-width="1.5" stroke-linecap="round" stroke-linejoin="round"/>
<path d="M8 2V14" stroke="currentColor" stroke-width="1.5" stroke-linecap="round" stroke-linejoin="round"/>
</symbol><symbol viewBox="0 0 8 8" fill="none" id="short-line-arrow" xmlns="http://www.w3.org/2000/svg">
<path d="M5.57641 4.31211e-07H7.73071C7.80213 4.31211e-07 7.87063 0.0283717 7.92113 0.078873C7.97163 0.129374 8 0.197869 8 0.269288V2.42359C8.00009 2.47692 7.98435 2.52908 7.95477 2.57345C7.92519 2.61782 7.88309 2.65241 7.83383 2.67283C7.78456 2.69326 7.73034 2.69859 7.67804 2.68816C7.62574 2.67773 7.57772 2.652 7.54006 2.61425L6.65356 1.72721L0.381312 8L4.76837e-07 7.61869L6.27279 1.34644L5.38575 0.459944C5.348 0.422281 5.32227 0.374256 5.31184 0.321956C5.30141 0.269656 5.30674 0.215436 5.32717 0.166171C5.34759 0.116905 5.38218 0.074813 5.42655 0.0452299C5.47092 0.0156467 5.52308 -9.49856e-05 5.57641 4.31211e-07Z" fill="currentColor"/>
</symbol><symbol viewBox="0 0 20 20" fill="none" id="telegram" xmlns="http://www.w3.org/2000/svg">
<path d="M10 0C4.48 0 0 4.48 0 10C0 15.52 4.48 20 10 20C15.52 20 20 15.52 20 10C20 4.48 15.52 0 10 0ZM14.64 6.8C14.49 8.38 13.84 12.22 13.51 13.99C13.37 14.74 13.09 14.99 12.83 15.02C12.25 15.07 11.81 14.64 11.25 14.27C10.37 13.69 9.87 13.33 9.02 12.77C8.03 12.12 8.67 11.76 9.24 11.18C9.39 11.03 11.95 8.7 12 8.49C12.0069 8.45819 12.006 8.42517 11.9973 8.3938C11.9886 8.36244 11.9724 8.33367 11.95 8.31C11.89 8.26 11.81 8.28 11.74 8.29C11.65 8.31 10.25 9.24 7.52 11.08C7.12 11.35 6.76 11.49 6.44 11.48C6.08 11.47 5.4 11.28 4.89 11.11C4.26 10.91 3.77 10.8 3.81 10.45C3.83 10.27 4.08 10.09 4.55 9.9C7.47 8.63 9.41 7.79 10.38 7.39C13.16 6.23 13.73 6.03 14.11 6.03C14.19 6.03 14.38 6.05 14.5 6.15C14.6 6.23 14.63 6.34 14.64 6.42C14.63 6.48 14.65 6.66 14.64 6.8Z" fill="currentColor"/>
</symbol><symbol viewBox="0 0 21 21" fill="none" id="x" xmlns="http://www.w3.org/2000/svg">
<path fill-rule="evenodd" clip-rule="evenodd" d="M3.66667 0C2.69421 0 1.76158 0.386309 1.07394 1.07394C0.386309 1.76158 0 2.69421 0 3.66667V16.5C0 17.4725 0.386309 18.4051 1.07394 19.0927C1.76158 19.7804 2.69421 20.1667 3.66667 20.1667H16.5C17.4725 20.1667 18.4051 19.7804 19.0927 19.0927C19.7804 18.4051 20.1667 17.4725 20.1667 16.5V3.66667C20.1667 2.69421 19.7804 1.76158 19.0927 1.07394C18.4051 0.386309 17.4725 0 16.5 0H3.66667ZM3.3605 3.20833C3.26015 3.24563 3.1699 3.30584 3.09694 3.38417C3.02397 3.4625 2.9703 3.55679 2.94021 3.65952C2.91012 3.76226 2.90444 3.8706 2.92361 3.97592C2.94279 4.08124 2.9863 4.18063 3.05067 4.26617L8.19683 11.0953L2.77475 16.9116L2.73442 16.9583H4.61083L9.03833 12.2109L12.441 16.7283C12.5199 16.8328 12.6271 16.9126 12.7499 16.9583H16.8034C16.9036 16.9208 16.9937 16.8605 17.0664 16.7821C17.1392 16.7037 17.1927 16.6093 17.2226 16.5066C17.2525 16.4039 17.258 16.2956 17.2387 16.1904C17.2194 16.0852 17.1758 15.9859 17.1114 15.9005L11.9653 9.07133L17.4323 3.20833H15.5531L11.1256 7.95667L7.72108 3.43933C7.64227 3.33443 7.53507 3.25428 7.41217 3.20833H3.3605ZM13.3338 15.6273L4.97842 4.53933H6.82917L15.1837 15.6264L13.3338 15.6273Z" fill="currentColor"/>
</symbol><symbol viewBox="0 0 22 16" fill="none" id="youtube" xmlns="http://www.w3.org/2000/svg">
<path d="M21.5341 2.37052C21.4067 1.91366 21.1633 1.4975 20.8276 1.16249C20.4918 0.827473 20.0752 0.584987 19.618 0.458584C17.9027 2.19233e-05 11.0071 2.20342e-05 11.0071 2.20342e-05C11.0071 2.20342e-05 4.12452 -0.0109781 2.39134 0.458584C1.93496 0.585605 1.51913 0.828367 1.18416 1.16334C0.849182 1.49832 0.606421 1.91414 0.479399 2.37052C0.153766 4.12656 -0.00666401 5.90925 0.000211961 7.69521C-0.00349728 9.47261 0.156913 11.2466 0.479399 12.9945C0.607016 13.451 0.849911 13.867 1.18474 14.2026C1.51957 14.5381 1.93508 14.7819 2.39134 14.9105C4.10665 15.3691 11.0071 15.3691 11.0071 15.3691C11.0071 15.3691 17.8855 15.3691 19.618 14.9105C20.075 14.7825 20.4914 14.539 20.827 14.2034C21.1626 13.8678 21.4061 13.4515 21.5341 12.9945C21.8496 11.2475 22.0037 9.47102 21.9927 7.69521C22.0037 5.90771 21.8531 4.12846 21.5341 2.37052ZM8.80434 10.9863V4.38971L14.5443 7.69521L8.80434 10.9863Z" fill="currentColor"/>
</symbol></svg>