<svg width="13" height="13" viewBox="0 0 13 13" fill="none" xmlns="http://www.w3.org/2000/svg">
<path d="M8.49958 5.16614L5.83291 7.83281L4.49958 6.49948M7.33024 0.805479L8.14424 1.49881C8.34958 1.67348 8.60424 1.77881 8.87224 1.80081L9.93891 1.88615C10.2421 1.91035 10.5267 2.04173 10.7419 2.25673C10.957 2.47173 11.0885 2.75631 11.1129 3.05948L11.1976 4.12614C11.2196 4.39481 11.3256 4.65014 11.5002 4.85481L12.1936 5.66814C12.3912 5.89981 12.4997 6.19432 12.4997 6.49881C12.4997 6.8033 12.3912 7.09782 12.1936 7.32948L11.5002 8.14348C11.3256 8.34881 11.2196 8.60348 11.1982 8.87214L11.1129 9.93881C11.0887 10.242 10.9573 10.5266 10.7423 10.7418C10.5273 10.9569 10.2427 11.0884 9.93958 11.1128L8.87291 11.1981C8.60436 11.2194 8.34937 11.3249 8.14424 11.4995L7.33024 12.1928C7.09858 12.3904 6.80407 12.499 6.49958 12.499C6.19509 12.499 5.90057 12.3904 5.66891 12.1928L4.85558 11.4995C4.65027 11.3247 4.39502 11.2193 4.12624 11.1981L3.05958 11.1128C2.75631 11.0884 2.47164 10.9568 2.25663 10.7415C2.04161 10.5263 1.9103 10.2414 1.88624 9.93814L1.80091 8.87214C1.77932 8.60375 1.67364 8.34901 1.49891 8.14414L0.805577 7.32948C0.608331 7.09791 0.5 6.80366 0.5 6.49948C0.5 6.19529 0.608331 5.90105 0.805577 5.66948L1.49891 4.85481C1.67424 4.64948 1.77891 4.39481 1.80024 4.12614L1.88558 3.06014C1.90985 2.75665 2.04151 2.47174 2.25692 2.25658C2.47233 2.04141 2.75739 1.91007 3.06091 1.88615L4.12624 1.80148C4.39487 1.78002 4.64987 1.67434 4.85491 1.49948L5.66891 0.806145C5.90057 0.608545 6.19509 0.5 6.49958 0.5C6.80407 0.5 7.09858 0.607878 7.33024 0.805479Z" stroke="#43A047" stroke-linecap="round" stroke-linejoin="round"/>
</svg>
