<svg width="17" height="18" viewBox="0 0 17 18" fill="none" xmlns="http://www.w3.org/2000/svg">
<path opacity="0.987" fill-rule="evenodd" clip-rule="evenodd" d="M7.44905 0.0759375C8.3553 -0.0253125 8.89155 -0.0253125 9.8653 0.0759375C11.589 0.331056 13.1868 1.12779 14.4278 2.35094C13.5892 3.14361 12.7616 3.94785 11.9453 4.76344C10.382 3.43844 8.63697 3.1326 6.7103 3.84594C5.29697 4.49594 4.3128 5.54927 3.7578 7.00594C2.85085 6.33073 1.95572 5.63979 1.0728 4.93344C1.01144 4.90114 0.941363 4.88931 0.872803 4.89969C2.2753 2.19552 4.46697 0.587187 7.4478 0.0746875" fill="#F44336"/>
<path opacity="0.997" fill-rule="evenodd" clip-rule="evenodd" d="M0.870315 4.89852C0.941148 4.88768 1.00823 4.89893 1.07157 4.93227C1.95448 5.63862 2.84962 6.32955 3.75657 7.00477C3.61385 7.57234 3.52388 8.15189 3.48781 8.73602C3.51865 9.30102 3.60823 9.8556 3.75657 10.3998L0.937815 12.6435C-0.289685 10.0785 -0.312185 7.49685 0.870315 4.89852Z" fill="#FFC107"/>
<path opacity="0.999" fill-rule="evenodd" clip-rule="evenodd" d="M14.2941 15.3624C13.4164 14.5884 12.4976 13.8623 11.5416 13.1874C12.4999 12.5108 13.0816 11.5824 13.2866 10.4024H8.59033V7.14117C11.2987 7.11867 14.0057 7.14159 16.7116 7.20992C17.2249 9.99742 16.632 12.5108 14.9328 14.7499C14.7308 14.9647 14.5168 15.1691 14.2941 15.3624Z" fill="#448AFF"/>
<path opacity="0.993" fill-rule="evenodd" clip-rule="evenodd" d="M3.75662 10.4023C4.78162 12.9498 6.66078 14.139 9.39412 13.9698C10.1614 13.881 10.897 13.613 11.5416 13.1873C12.4983 13.864 13.4158 14.589 14.2941 15.3623C12.9024 16.6129 11.128 17.3549 9.26037 17.4673C8.83604 17.5013 8.40969 17.5013 7.98537 17.4673C4.8037 17.0923 2.45453 15.4848 0.937866 12.6448L3.75662 10.4023Z" fill="#43A047"/>
</svg>
