<svg width="12" height="12" viewBox="0 0 12 12" fill="none" xmlns="http://www.w3.org/2000/svg">
<path d="M6 1.125C4.13672 1.125 2.625 2.56383 2.625 4.33594C2.625 6.375 4.875 9.60633 5.70117 10.7224C5.73547 10.7695 5.78041 10.8079 5.83235 10.8343C5.88428 10.8607 5.94173 10.8745 6 10.8745C6.05827 10.8745 6.11572 10.8607 6.16765 10.8343C6.21959 10.8079 6.26453 10.7695 6.29883 10.7224C7.125 9.6068 9.375 6.37664 9.375 4.33594C9.375 2.56383 7.86328 1.125 6 1.125Z" stroke="#D62322" stroke-linecap="round" stroke-linejoin="round"/>
<path d="M6 5.625C6.62132 5.625 7.125 5.12132 7.125 4.5C7.125 3.87868 6.62132 3.375 6 3.375C5.37868 3.375 4.875 3.87868 4.875 4.5C4.875 5.12132 5.37868 5.625 6 5.625Z" stroke="#D62322" stroke-linecap="round" stroke-linejoin="round"/>
</svg>
