<svg width="131" height="20" viewBox="0 0 131 20" fill="none" xmlns="http://www.w3.org/2000/svg">
<g clip-path="url(#clip0_436_12715)">
<path fill-rule="evenodd" clip-rule="evenodd" d="M14.4052 12.8571H18.5878V3.31698H14.4052V0H9.04477L0 12.8571H4.99802L11.8231 3.31698H14.4052V12.8571Z" fill="#242424"/>
<path fill-rule="evenodd" clip-rule="evenodd" d="M96.9492 0C95.2498 0 93.8661 1.38626 93.8661 3.09241V9.77997C93.8661 11.4709 95.2498 12.8571 96.9492 12.8571H107.538C109.237 12.8571 110.621 11.4709 110.621 9.77997V3.09241C110.621 1.38626 109.237 0 107.538 0H96.9492ZM131 0H127.105V9.73427L120.276 0H113.884V12.8571H117.795V3.03148L124.623 12.8571H131V0ZM40.6091 3.32093V0H55.6943V3.32093H50.1146V12.8571H46.2041V3.32093H40.6091ZM22.3054 0H33.6606C35.0593 0 36.0371 0.258971 36.6235 0.776913C37.2552 1.34056 37.5561 2.33073 37.5561 3.74746C37.5561 4.84429 37.4357 5.66689 37.1651 6.20007C36.9093 6.71802 36.4582 7.11409 35.8113 7.38829C36.5182 7.69297 36.9845 8.01286 37.2102 8.31754C37.4508 8.63745 37.5561 9.18586 37.5561 9.99323V12.8571H33.6606V10.5721C33.6606 10.237 33.5704 9.94754 33.39 9.71902C33.1644 9.41436 32.8334 9.27725 32.3823 9.27725H26.2158V12.8571H22.3054V0ZM26.2158 3.32093V5.94109H32.4724C32.8936 5.94109 33.1944 5.8497 33.39 5.66689C33.5704 5.48409 33.6606 5.13371 33.6606 4.64625C33.6606 4.14354 33.5704 3.80839 33.3749 3.61036C33.1793 3.41232 32.8785 3.32093 32.4724 3.32093H26.2158ZM58.8528 12.8571V0H72.5243V3.10764H62.7632V4.90521H72.073V7.99763H62.7632V9.7495H72.5243V12.8571H58.8528ZM78.5101 0H87.6997C89.3992 0 90.7828 1.38626 90.7828 3.09241V4.88998H86.8875V4.70718C86.8875 3.83886 86.1656 3.12289 85.2932 3.12289H80.9016C80.0292 3.12289 79.3223 3.83886 79.3223 4.70718V8.14997C79.3223 9.03352 80.0292 9.73427 80.9016 9.73427H85.2932C86.1656 9.73427 86.8875 9.03352 86.8875 8.14997V7.81482H90.7828V9.77997C90.7828 11.4709 89.3992 12.8571 87.6997 12.8571H78.5101C76.8106 12.8571 75.4119 11.4709 75.4119 9.77997V3.09241C75.4119 1.38626 76.8106 0 78.5101 0ZM99.3557 3.12289C98.4833 3.12289 97.7614 3.83886 97.7614 4.70718V8.14997C97.7614 9.03352 98.4833 9.73427 99.3557 9.73427H105.131C106.003 9.73427 106.725 9.03352 106.725 8.14997V4.70718C106.725 3.83886 106.003 3.12289 105.131 3.12289H99.3557Z" fill="#D62322"/>
<mask id="mask0_436_12715" style="mask-type:luminance" maskUnits="userSpaceOnUse" x="0" y="15" width="131" height="5">
<path d="M131 15.7148H0V20.0006H131V15.7148Z" fill="white"/>
</mask>
<g mask="url(#mask0_436_12715)">
<path d="M0 19.8765V15.7965H3.22591V16.6882H1.15169V18.9847H3.3023V19.8765H0ZM1.06943 18.2386V17.376H2.97912V18.2386H1.06943ZM6.41585 19.8765V15.7965H7.37364L9.07768 18.5709H8.57234L10.2294 15.7965H11.1872L11.1989 19.8765H10.1295L10.1177 17.411H10.2999L9.06005 19.4743H8.54295L7.26786 17.411H7.49117V19.8765H6.41585ZM14.4901 19.8765V15.7965H16.3704C16.7464 15.7965 17.0696 15.8567 17.3399 15.9771C17.6141 16.0976 17.8257 16.2725 17.9744 16.5017C18.1235 16.7271 18.1977 16.9952 18.1977 17.306C18.1977 17.613 18.1235 17.8791 17.9744 18.1045C17.8257 18.33 17.6141 18.5048 17.3399 18.6291C17.0696 18.7497 16.7464 18.8098 16.3704 18.8098H15.1364L15.6535 18.3086V19.8765H14.4901ZM15.6535 18.4309L15.1364 17.9006H16.2999C16.5427 17.9006 16.7229 17.8481 16.8404 17.7432C16.9619 17.6383 17.0226 17.4926 17.0226 17.306C17.0226 17.1156 16.9619 16.968 16.8404 16.8631C16.7229 16.7582 16.5427 16.7057 16.2999 16.7057H15.1364L15.6535 16.1753V18.4309ZM21.233 19.8765V15.7965H23.0723C23.6715 15.7965 24.1318 15.9325 24.4531 16.2045C24.7781 16.4726 24.9408 16.8398 24.9408 17.306C24.9408 17.613 24.8663 17.8791 24.7176 18.1045C24.5685 18.3261 24.357 18.497 24.0829 18.6175C23.8126 18.7341 23.4894 18.7923 23.1134 18.7923H21.8795L22.3964 18.3086V19.8765H21.233ZM23.7774 19.8765L22.7549 18.3902H23.9948L25.0231 19.8765H23.7774ZM22.3964 18.4309L21.8795 17.9006H23.0429C23.2856 17.9006 23.466 17.8481 23.5834 17.7432C23.7048 17.6383 23.7655 17.4926 23.7655 17.306C23.7655 17.1156 23.7048 16.968 23.5834 16.8631C23.466 16.7582 23.2856 16.7057 23.0429 16.7057H21.8795L22.3964 16.1753V18.4309ZM28.0506 19.8765V15.7965H31.2764V16.6882H29.2022V18.9847H31.3529V19.8765H28.0506ZM29.1201 18.2386V17.376H31.0297V18.2386H29.1201ZM35.9117 19.9581C35.575 19.9581 35.2498 19.9172 34.9363 19.8356C34.627 19.7502 34.3744 19.6415 34.1784 19.5093L34.5603 18.6582C34.7446 18.7748 34.9561 18.872 35.1949 18.9497C35.438 19.0236 35.6787 19.0604 35.9177 19.0604C36.0785 19.0604 36.2077 19.0468 36.3054 19.0197C36.4035 18.9886 36.4739 18.9497 36.517 18.9031C36.5641 18.8525 36.5876 18.7943 36.5876 18.7282C36.5876 18.635 36.5446 18.5611 36.4582 18.5068C36.3722 18.4523 36.2606 18.4077 36.1233 18.3727C35.9862 18.3377 35.8335 18.3027 35.6649 18.2677C35.5005 18.2327 35.3341 18.1881 35.1655 18.1338C35.0011 18.0793 34.8503 18.0093 34.7131 17.924C34.576 17.8345 34.4643 17.7199 34.3781 17.58C34.2921 17.4362 34.2489 17.2555 34.2489 17.0379C34.2489 16.7931 34.3156 16.5716 34.4486 16.3735C34.586 16.1753 34.7895 16.016 35.0599 15.8955C35.33 15.7751 35.6671 15.7148 36.0705 15.7148C36.3406 15.7148 36.6051 15.7459 36.8638 15.8081C37.1263 15.8664 37.3594 15.9538 37.563 16.0704L37.2045 16.9272C37.0087 16.8223 36.8147 16.7446 36.6228 16.694C36.4309 16.6396 36.2449 16.6125 36.0645 16.6125C35.9041 16.6125 35.7747 16.6299 35.6768 16.6649C35.5789 16.696 35.5084 16.7387 35.4652 16.7931C35.4222 16.8475 35.4006 16.9097 35.4006 16.9796C35.4006 17.069 35.4417 17.1409 35.524 17.1953C35.6102 17.2458 35.7219 17.2886 35.859 17.3235C35.9999 17.3546 36.1526 17.3876 36.3173 17.4226C36.4858 17.4576 36.6522 17.5023 36.8167 17.5567C36.9852 17.6072 37.138 17.6771 37.275 17.7665C37.4122 17.852 37.5218 17.9666 37.6041 18.1104C37.6903 18.2502 37.7333 18.427 37.7333 18.6407C37.7333 18.8779 37.665 19.0973 37.5276 19.2995C37.3947 19.4975 37.1927 19.6568 36.9225 19.7773C36.6561 19.8979 36.3192 19.9581 35.9117 19.9581ZM40.2452 19.8765L42.0609 15.7965H43.2066L45.0282 19.8765H43.8177L42.3959 16.3618H42.8542L41.4321 19.8765H40.2452ZM41.2383 19.0838L41.5378 18.2327H43.5474L43.8471 19.0838H41.2383ZM54.0547 19.9581C53.7295 19.9581 53.4278 19.9075 53.1497 19.8065C52.8755 19.7016 52.6365 19.554 52.4328 19.3636C52.2331 19.1731 52.0762 18.9497 51.9628 18.6932C51.8493 18.4329 51.7923 18.1473 51.7923 17.8365C51.7923 17.5256 51.8493 17.2419 51.9628 16.9855C52.0762 16.7251 52.2331 16.4998 52.4328 16.3094C52.6365 16.119 52.8755 15.9732 53.1497 15.8722C53.4278 15.7673 53.7295 15.7148 54.0547 15.7148C54.4346 15.7148 54.7734 15.7809 55.0712 15.913C55.3726 16.0451 55.6235 16.2355 55.8234 16.4842L55.0829 17.1487C54.9497 16.9932 54.8028 16.8747 54.6422 16.7931C54.4854 16.7115 54.3092 16.6707 54.1133 16.6707C53.9449 16.6707 53.7902 16.6979 53.6491 16.7523C53.5082 16.8067 53.3866 16.8864 53.2848 16.9913C53.1869 17.0923 53.1086 17.2147 53.0499 17.3585C52.995 17.5023 52.9676 17.6616 52.9676 17.8365C52.9676 18.0113 52.995 18.1706 53.0499 18.3143C53.1086 18.4582 53.1869 18.5825 53.2848 18.6873C53.3866 18.7884 53.5082 18.8661 53.6491 18.9206C53.7902 18.975 53.9449 19.0022 54.1133 19.0022C54.3092 19.0022 54.4854 18.9613 54.6422 18.8798C54.8028 18.7982 54.9497 18.6797 55.0829 18.5241L55.8234 19.1886C55.6235 19.4334 55.3726 19.624 55.0712 19.7598C54.7734 19.892 54.4346 19.9581 54.0547 19.9581ZM60.6718 19.9581C60.3427 19.9581 60.0391 19.9056 59.761 19.8007C59.483 19.6957 59.24 19.5481 59.0325 19.3577C58.8287 19.1634 58.67 18.9381 58.5565 18.6816C58.443 18.4252 58.386 18.1434 58.386 17.8365C58.386 17.5295 58.443 17.2478 58.5565 16.9913C58.67 16.7348 58.8287 16.5114 59.0325 16.321C59.24 16.1267 59.483 15.9771 59.761 15.8722C60.0391 15.7673 60.3427 15.7148 60.6718 15.7148C61.0049 15.7148 61.3084 15.7673 61.5826 15.8722C61.8607 15.9771 62.1016 16.1267 62.3054 16.321C62.5091 16.5114 62.6678 16.7348 62.7812 16.9913C62.8988 17.2478 62.9576 17.5295 62.9576 17.8365C62.9576 18.1434 62.8988 18.427 62.7812 18.6873C62.6678 18.944 62.5091 19.1673 62.3054 19.3577C62.1016 19.5481 61.8607 19.6957 61.5826 19.8007C61.3084 19.9056 61.0049 19.9581 60.6718 19.9581ZM60.6718 19.0022C60.8286 19.0022 60.9734 18.975 61.1067 18.9206C61.2438 18.8661 61.3613 18.7884 61.4592 18.6873C61.561 18.5825 61.6394 18.4582 61.6943 18.3143C61.7531 18.1706 61.7824 18.0113 61.7824 17.8365C61.7824 17.6577 61.7531 17.4984 61.6943 17.3585C61.6394 17.2147 61.561 17.0923 61.4592 16.9913C61.3613 16.8864 61.2438 16.8067 61.1067 16.7523C60.9734 16.6979 60.8286 16.6707 60.6718 16.6707C60.5151 16.6707 60.3682 16.6979 60.2312 16.7523C60.0979 16.8067 59.9803 16.8864 59.8785 16.9913C59.7806 17.0923 59.7024 17.2147 59.6436 17.3585C59.5887 17.4984 59.5613 17.6577 59.5613 17.8365C59.5613 18.0113 59.5887 18.1706 59.6436 18.3143C59.7024 18.4582 59.7806 18.5825 59.8785 18.6873C59.9803 18.7884 60.0979 18.8661 60.2312 18.9206C60.3682 18.975 60.5151 19.0022 60.6718 19.0022ZM66.0348 19.8765V15.7965H66.9927L69.2608 18.5125H68.8083V15.7965H69.9483V19.8765H68.9905L66.7224 17.1603H67.1749V19.8765H66.0348ZM74.6824 19.9581C74.3453 19.9581 74.0203 19.9172 73.707 19.8356C73.3975 19.7502 73.1448 19.6415 72.949 19.5093L73.331 18.6582C73.5151 18.7748 73.7266 18.872 73.9656 18.9497C74.2083 19.0236 74.4493 19.0604 74.6882 19.0604C74.8488 19.0604 74.9782 19.0468 75.0761 19.0197C75.174 18.9886 75.2445 18.9497 75.2877 18.9031C75.3348 18.8525 75.3581 18.7943 75.3581 18.7282C75.3581 18.635 75.3149 18.5611 75.2289 18.5068C75.1427 18.4523 75.031 18.4077 74.894 18.3727C74.7568 18.3377 74.604 18.3027 74.4356 18.2677C74.2712 18.2327 74.1046 18.1881 73.9362 18.1338C73.7716 18.0793 73.6208 18.0093 73.4838 17.924C73.3466 17.8345 73.2349 17.7199 73.1488 17.58C73.0626 17.4362 73.0196 17.2555 73.0196 17.0379C73.0196 16.7931 73.0862 16.5716 73.2193 16.3735C73.3563 16.1753 73.5601 16.016 73.8304 15.8955C74.1007 15.7751 74.4376 15.7148 74.841 15.7148C75.1113 15.7148 75.3758 15.7459 75.6343 15.8081C75.8966 15.8664 76.1298 15.9538 76.3335 16.0704L75.9752 16.9272C75.7791 16.8223 75.5852 16.7446 75.3935 16.694C75.2014 16.6396 75.0152 16.6125 74.8352 16.6125C74.6744 16.6125 74.5452 16.6299 74.4473 16.6649C74.3494 16.696 74.279 16.7387 74.2359 16.7931C74.1926 16.8475 74.1712 16.9097 74.1712 16.9796C74.1712 17.069 74.2124 17.1409 74.2945 17.1953C74.3808 17.2458 74.4923 17.2886 74.6295 17.3235C74.7706 17.3546 74.9233 17.3876 75.0878 17.4226C75.2561 17.4576 75.4227 17.5023 75.5874 17.5567C75.7557 17.6072 75.9085 17.6771 76.0457 17.7665C76.1827 17.852 76.2925 17.9666 76.3748 18.1104C76.4608 18.2502 76.504 18.427 76.504 18.6407C76.504 18.8779 76.4353 19.0973 76.2983 19.2995C76.165 19.4975 75.9634 19.6568 75.6931 19.7773C75.4266 19.8979 75.0897 19.9581 74.6824 19.9581ZM80.3274 19.8765V16.7115H79.064V15.7965H82.7483V16.7115H81.4909V19.8765H80.3274ZM85.6496 19.8765V15.7965H87.4889C88.0881 15.7965 88.5486 15.9325 88.8697 16.2045C89.1949 16.4726 89.3574 16.8398 89.3574 17.306C89.3574 17.613 89.2831 17.8791 89.134 18.1045C88.9853 18.3261 88.7738 18.497 88.4995 18.6175C88.2292 18.7341 87.906 18.7923 87.53 18.7923H86.2959L86.813 18.3086V19.8765H85.6496ZM88.194 19.8765L87.1715 18.3902H88.4114L89.4396 19.8765H88.194ZM86.813 18.4309L86.2959 17.9006H87.4595C87.7024 17.9006 87.8824 17.8481 88 17.7432C88.1216 17.6383 88.1821 17.4926 88.1821 17.306C88.1821 17.1156 88.1216 16.968 88 16.8631C87.8824 16.7582 87.7024 16.7057 87.4595 16.7057H86.2959L86.813 16.1753V18.4309ZM94.3652 19.9581C93.758 19.9581 93.2839 19.7929 92.9431 19.4627C92.6023 19.1323 92.4318 18.6641 92.4318 18.0579V15.7965H93.5953V18.0229C93.5953 18.3727 93.664 18.6232 93.801 18.7748C93.9421 18.9265 94.134 19.0022 94.3768 19.0022C94.6199 19.0022 94.8099 18.9265 94.9469 18.7748C95.0841 18.6232 95.1526 18.3727 95.1526 18.0229V15.7965H96.2983V18.0579C96.2983 18.6641 96.128 19.1323 95.787 19.4627C95.4463 19.7929 94.9724 19.9581 94.3652 19.9581ZM101.605 19.9581C101.28 19.9581 100.978 19.9075 100.7 19.8065C100.426 19.7016 100.187 19.554 99.9835 19.3636C99.7836 19.1731 99.6269 18.9497 99.5133 18.6932C99.3996 18.4329 99.343 18.1473 99.343 17.8365C99.343 17.5256 99.3996 17.2419 99.5133 16.9855C99.6269 16.7251 99.7836 16.4998 99.9835 16.3094C100.187 16.119 100.426 15.9732 100.7 15.8722C100.978 15.7673 101.28 15.7148 101.605 15.7148C101.985 15.7148 102.324 15.7809 102.622 15.913C102.923 16.0451 103.174 16.2355 103.374 16.4842L102.634 17.1487C102.5 16.9932 102.353 16.8747 102.193 16.7931C102.036 16.7115 101.86 16.6707 101.664 16.6707C101.495 16.6707 101.341 16.6979 101.2 16.7523C101.059 16.8067 100.937 16.8864 100.835 16.9913C100.737 17.0923 100.659 17.2147 100.6 17.3585C100.545 17.5023 100.518 17.6616 100.518 17.8365C100.518 18.0113 100.545 18.1706 100.6 18.3143C100.659 18.4582 100.737 18.5825 100.835 18.6873C100.937 18.7884 101.059 18.8661 101.2 18.9206C101.341 18.975 101.495 19.0022 101.664 19.0022C101.86 19.0022 102.036 18.9613 102.193 18.8798C102.353 18.7982 102.5 18.6797 102.634 18.5241L103.374 19.1886C103.174 19.4334 102.923 19.624 102.622 19.7598C102.324 19.892 101.985 19.9581 101.605 19.9581ZM107.139 19.8765V16.7115H105.875V15.7965H109.559V16.7115H108.302V19.8765H107.139ZM114.478 19.9581C114.148 19.9581 113.845 19.9056 113.567 19.8007C113.289 19.6957 113.046 19.5481 112.838 19.3577C112.634 19.1634 112.476 18.9381 112.362 18.6816C112.249 18.4252 112.192 18.1434 112.192 17.8365C112.192 17.5295 112.249 17.2478 112.362 16.9913C112.476 16.7348 112.634 16.5114 112.838 16.321C113.046 16.1267 113.289 15.9771 113.567 15.8722C113.845 15.7673 114.148 15.7148 114.478 15.7148C114.811 15.7148 115.114 15.7673 115.388 15.8722C115.666 15.9771 115.907 16.1267 116.111 16.321C116.315 16.5114 116.474 16.7348 116.587 16.9913C116.705 17.2478 116.763 17.5295 116.763 17.8365C116.763 18.1434 116.705 18.427 116.587 18.6873C116.474 18.944 116.315 19.1673 116.111 19.3577C115.907 19.5481 115.666 19.6957 115.388 19.8007C115.114 19.9056 114.811 19.9581 114.478 19.9581ZM114.478 19.0022C114.634 19.0022 114.779 18.975 114.912 18.9206C115.05 18.8661 115.167 18.7884 115.265 18.6873C115.367 18.5825 115.445 18.4582 115.5 18.3143C115.559 18.1706 115.588 18.0113 115.588 17.8365C115.588 17.6577 115.559 17.4984 115.5 17.3585C115.445 17.2147 115.367 17.0923 115.265 16.9913C115.167 16.8864 115.05 16.8067 114.912 16.7523C114.779 16.6979 114.634 16.6707 114.478 16.6707C114.321 16.6707 114.174 16.6979 114.037 16.7523C113.904 16.8067 113.786 16.8864 113.684 16.9913C113.586 17.0923 113.508 17.2147 113.449 17.3585C113.395 17.4984 113.367 17.6577 113.367 17.8365C113.367 18.0113 113.395 18.1706 113.449 18.3143C113.508 18.4582 113.586 18.5825 113.684 18.6873C113.786 18.7884 113.904 18.8661 114.037 18.9206C114.174 18.975 114.321 19.0022 114.478 19.0022ZM119.841 19.8765V15.7965H121.68C122.279 15.7965 122.739 15.9325 123.061 16.2045C123.386 16.4726 123.548 16.8398 123.548 17.306C123.548 17.613 123.474 17.8791 123.325 18.1045C123.176 18.3261 122.965 18.497 122.691 18.6175C122.42 18.7341 122.097 18.7923 121.721 18.7923H120.487L121.004 18.3086V19.8765H119.841ZM122.385 19.8765L121.362 18.3902H122.602L123.631 19.8765H122.385ZM121.004 18.4309L120.487 17.9006H121.651C121.893 17.9006 122.073 17.8481 122.191 17.7432C122.312 17.6383 122.373 17.4926 122.373 17.306C122.373 17.1156 122.312 16.968 122.191 16.8631C122.073 16.7582 121.893 16.7057 121.651 16.7057H120.487L121.004 16.1753V18.4309ZM126.165 19.8765L127.98 15.7965H129.126L130.948 19.8765H129.737L128.315 16.3618H128.774L127.352 19.8765H126.165ZM127.158 19.0838L127.457 18.2327H129.467L129.766 19.0838H127.158Z" fill="#242424"/>
</g>
</g>
<defs>
<clipPath id="clip0_436_12715">
<rect width="131" height="20" fill="white"/>
</clipPath>
</defs>
</svg>
