<svg width="158" height="24" viewBox="0 0 158 24" fill="none" xmlns="http://www.w3.org/2000/svg">
<g clip-path="url(#clip0_443_21860)">
<path fill-rule="evenodd" clip-rule="evenodd" d="M17.3742 15.4286H22.4189V3.98038H17.3742V0H10.909L0 15.4286H6.02815L14.26 3.98038H17.3742V15.4286Z" fill="#FDFDFD"/>
<path fill-rule="evenodd" clip-rule="evenodd" d="M116.931 0C114.881 0 113.213 1.66351 113.213 3.71089V11.736C113.213 13.7651 114.881 15.4286 116.931 15.4286H129.702C131.752 15.4286 133.42 13.7651 133.42 11.736V3.71089C133.42 1.66351 131.752 0 129.702 0H116.931ZM158 0H153.302V11.6811L145.066 0H137.357V15.4286H142.073V3.63778L150.309 15.4286H158V0ZM48.9789 3.98511V0H67.1733V3.98511H60.4436V15.4286H55.727V3.98511H48.9789ZM26.9027 0H40.5983C42.2853 0 43.4645 0.310766 44.1719 0.932295C44.9337 1.60867 45.2967 2.79688 45.2967 4.49696C45.2967 5.81314 45.1515 6.80027 44.825 7.44009C44.5165 8.06162 43.9725 8.53691 43.1923 8.86594C44.0449 9.23156 44.6073 9.61543 44.8795 9.98104C45.1696 10.3649 45.2967 11.023 45.2967 11.9919V15.4286H40.5983V12.6865C40.5983 12.2844 40.4894 11.937 40.2719 11.6628C39.9998 11.2972 39.6006 11.1327 39.0565 11.1327H31.619V15.4286H26.9027V0ZM31.619 3.98511V7.12931H39.1652C39.6732 7.12931 40.0359 7.01964 40.2719 6.80027C40.4894 6.58091 40.5983 6.16046 40.5983 5.5755C40.5983 4.97224 40.4894 4.57007 40.2537 4.33243C40.0178 4.09479 39.655 3.98511 39.1652 3.98511H31.619ZM70.9828 15.4286V0H87.472V3.72917H75.6991V5.88626H86.9278V9.59715H75.6991V11.6994H87.472V15.4286H70.9828ZM94.6915 0H105.775C107.825 0 109.494 1.66351 109.494 3.71089V5.86798H104.796V5.64861C104.796 4.60663 103.925 3.74747 102.873 3.74747H97.5759C96.5237 3.74747 95.6711 4.60663 95.6711 5.64861V9.77996C95.6711 10.8402 96.5237 11.6811 97.5759 11.6811H102.873C103.925 11.6811 104.796 10.8402 104.796 9.77996V9.37779H109.494V11.736C109.494 13.7651 107.825 15.4286 105.775 15.4286H94.6915C92.6418 15.4286 90.9548 13.7651 90.9548 11.736V3.71089C90.9548 1.66351 92.6418 0 94.6915 0ZM119.834 3.74747C118.781 3.74747 117.911 4.60663 117.911 5.64861V9.77996C117.911 10.8402 118.781 11.6811 119.834 11.6811H126.799C127.851 11.6811 128.722 10.8402 128.722 9.77996V5.64861C128.722 4.60663 127.851 3.74747 126.799 3.74747H119.834Z" fill="#D62322"/>
<mask id="mask0_443_21860" style="mask-type:luminance" maskUnits="userSpaceOnUse" x="0" y="18" width="158" height="6">
<path d="M158 18.8555H0V23.9983H158V18.8555Z" fill="white"/>
</mask>
<g mask="url(#mask0_443_21860)">
<path d="M0 23.8494V18.9534H3.89079V20.0235H1.38907V22.7793H3.98292V23.8494H0ZM1.28985 21.884V20.8488H3.59313V21.884H1.28985ZM7.7382 23.8494V18.9534H8.89339L10.9487 22.2828H10.3392L12.3377 18.9534H13.4929L13.5071 23.8494H12.2172L12.2031 20.8908H12.4228L10.9274 23.3668H10.3037L8.76582 20.8908H9.03515V23.8494H7.7382ZM17.4766 23.8494V18.9534H19.7444C20.198 18.9534 20.5878 19.0257 20.9137 19.1702C21.2445 19.3148 21.4997 19.5246 21.6791 19.7997C21.8589 20.0701 21.9483 20.3919 21.9483 20.7649C21.9483 21.1333 21.8589 21.4526 21.6791 21.723C21.4997 21.9937 21.2445 22.2035 20.9137 22.3526C20.5878 22.4973 20.198 22.5695 19.7444 22.5695H18.2561L18.8798 21.968V23.8494H17.4766ZM18.8798 22.1148L18.2561 21.4783H19.6594C19.9523 21.4783 20.1696 21.4154 20.3114 21.2895C20.4578 21.1636 20.5311 20.9887 20.5311 20.7649C20.5311 20.5364 20.4578 20.3592 20.3114 20.2333C20.1696 20.1075 19.9523 20.0445 19.6594 20.0445H18.2561L18.8798 19.408V22.1148ZM25.6092 23.8494V18.9534H27.8276C28.5504 18.9534 29.1055 19.1166 29.4931 19.443C29.8851 19.7647 30.0813 20.2054 30.0813 20.7649C30.0813 21.1333 29.9914 21.4526 29.812 21.723C29.6323 21.989 29.3771 22.194 29.0466 22.3387C28.7206 22.4786 28.3307 22.5485 27.8772 22.5485H26.389L27.0124 21.968V23.8494H25.6092ZM28.6781 23.8494L27.4448 22.0659H28.9403L30.1806 23.8494H28.6781ZM27.0124 22.1148L26.389 21.4783H27.7922C28.0849 21.4783 28.3025 21.4154 28.4441 21.2895C28.5905 21.1636 28.6638 20.9887 28.6638 20.7649C28.6638 20.5364 28.5905 20.3592 28.4441 20.2333C28.3025 20.1075 28.0849 20.0445 27.7922 20.0445H26.389L27.0124 19.408V22.1148ZM33.8321 23.8494V18.9534H37.7227V20.0235H35.221V22.7793H37.815V23.8494H33.8321ZM35.1219 21.884V20.8488H37.4251V21.884H35.1219ZM43.3134 23.9473C42.9072 23.9473 42.515 23.8983 42.1369 23.8003C41.7639 23.6979 41.4592 23.5674 41.2228 23.4088L41.6834 22.3875C41.9057 22.5275 42.1608 22.644 42.4488 22.7373C42.742 22.826 43.0324 22.8701 43.3206 22.8701C43.5145 22.8701 43.6703 22.8538 43.7882 22.8213C43.9065 22.784 43.9915 22.7373 44.0434 22.6813C44.1002 22.6207 44.1285 22.5508 44.1285 22.4715C44.1285 22.3597 44.0767 22.271 43.9725 22.2058C43.8687 22.1405 43.7342 22.0869 43.5685 22.0449C43.4032 22.0029 43.219 21.9609 43.0157 21.9189C42.8174 21.8769 42.6167 21.8233 42.4134 21.7582C42.215 21.6928 42.0331 21.6088 41.8677 21.5064C41.7024 21.3991 41.5677 21.2615 41.4637 21.0936C41.3599 20.9211 41.3078 20.7043 41.3078 20.4432C41.3078 20.1494 41.3883 19.8836 41.5487 19.6458C41.7144 19.408 41.9599 19.2168 42.2859 19.0723C42.6117 18.9277 43.0183 18.8555 43.5049 18.8555C43.8307 18.8555 44.1497 18.8928 44.4616 18.9674C44.7783 19.0373 45.0595 19.1422 45.305 19.2821L44.8726 20.3103C44.6365 20.1844 44.4025 20.0911 44.171 20.0305C43.9396 19.9652 43.7152 19.9326 43.4976 19.9326C43.3042 19.9326 43.1481 19.9536 43.03 19.9955C42.9119 20.0328 42.827 20.0841 42.7749 20.1494C42.723 20.2147 42.6969 20.2893 42.6969 20.3732C42.6969 20.4805 42.7465 20.5667 42.8458 20.632C42.9497 20.6926 43.0845 20.7439 43.2497 20.7859C43.4197 20.8232 43.6039 20.8628 43.8025 20.9048C44.0058 20.9468 44.2065 21.0004 44.4048 21.0657C44.6081 21.1263 44.7924 21.2102 44.9576 21.3175C45.1231 21.42 45.2553 21.5576 45.3545 21.7301C45.4585 21.8979 45.5104 22.11 45.5104 22.3665C45.5104 22.6511 45.428 22.9145 45.2623 23.157C45.102 23.3947 44.8583 23.5858 44.5325 23.7305C44.2112 23.8751 43.8049 23.9473 43.3134 23.9473ZM48.54 23.8494L50.73 18.9534H52.1118L54.3089 23.8494H52.8489L51.1339 19.6318H51.6867L49.9716 23.8494H48.54ZM49.7378 22.8982L50.099 21.8769H52.5228L52.8843 22.8982H49.7378ZM65.1957 23.9473C64.8035 23.9473 64.4397 23.8867 64.1042 23.7654C63.7735 23.6396 63.4853 23.4624 63.2395 23.234C62.9987 23.0053 62.8095 22.7373 62.6726 22.4295C62.5358 22.1171 62.467 21.7745 62.467 21.4014C62.467 21.0284 62.5358 20.688 62.6726 20.3802C62.8095 20.0678 62.9987 19.7974 63.2395 19.5689C63.4853 19.3404 63.7735 19.1655 64.1042 19.0443C64.4397 18.9184 64.8035 18.8555 65.1957 18.8555C65.6539 18.8555 66.0626 18.9347 66.4217 19.0933C66.7853 19.2518 67.0879 19.4803 67.3289 19.7787L66.4358 20.5761C66.2752 20.3895 66.098 20.2473 65.9044 20.1494C65.7152 20.0515 65.5027 20.0025 65.2664 20.0025C65.0633 20.0025 64.8767 20.0352 64.7066 20.1004C64.5366 20.1657 64.3899 20.2613 64.2671 20.3872C64.1491 20.5084 64.0547 20.6553 63.9838 20.8279C63.9176 21.0004 63.8845 21.1916 63.8845 21.4014C63.8845 21.6112 63.9176 21.8023 63.9838 21.9748C64.0547 22.1475 64.1491 22.2967 64.2671 22.4225C64.3899 22.5438 64.5366 22.637 64.7066 22.7023C64.8767 22.7677 65.0633 22.8003 65.2664 22.8003C65.5027 22.8003 65.7152 22.7512 65.9044 22.6535C66.098 22.5555 66.2752 22.4133 66.4358 22.2266L67.3289 23.024C67.0879 23.3178 66.7853 23.5464 66.4217 23.7095C66.0626 23.868 65.6539 23.9473 65.1957 23.9473ZM73.1766 23.9473C72.7797 23.9473 72.4135 23.8843 72.0781 23.7585C71.7429 23.6325 71.4497 23.4553 71.1995 23.2269C70.9538 22.9938 70.7622 22.7233 70.6254 22.4156C70.4885 22.1079 70.4197 21.7698 70.4197 21.4014C70.4197 21.033 70.4885 20.695 70.6254 20.3872C70.7622 20.0795 70.9538 19.8114 71.1995 19.5829C71.4497 19.3497 71.7429 19.1702 72.0781 19.0443C72.4135 18.9184 72.7797 18.8555 73.1766 18.8555C73.5785 18.8555 73.9444 18.9184 74.2752 19.0443C74.6106 19.1702 74.9012 19.3497 75.1469 19.5829C75.3927 19.8114 75.584 20.0795 75.7209 20.3872C75.8626 20.695 75.9335 21.033 75.9335 21.4014C75.9335 21.7698 75.8626 22.11 75.7209 22.4225C75.584 22.7304 75.3927 22.9985 75.1469 23.2269C74.9012 23.4553 74.6106 23.6325 74.2752 23.7585C73.9444 23.8843 73.5785 23.9473 73.1766 23.9473ZM73.1766 22.8003C73.3658 22.8003 73.5405 22.7677 73.7012 22.7023C73.8665 22.637 74.0083 22.5438 74.1263 22.4225C74.2491 22.2967 74.3437 22.1475 74.4099 21.9748C74.4808 21.8023 74.5162 21.6112 74.5162 21.4014C74.5162 21.1869 74.4808 20.9957 74.4099 20.8279C74.3437 20.6553 74.2491 20.5084 74.1263 20.3872C74.0083 20.2613 73.8665 20.1657 73.7012 20.1004C73.5405 20.0352 73.3658 20.0025 73.1766 20.0025C72.9877 20.0025 72.8105 20.0352 72.6452 20.1004C72.4844 20.1657 72.3427 20.2613 72.2199 20.3872C72.1018 20.5084 72.0074 20.6553 71.9365 20.8279C71.8704 20.9957 71.8373 21.1869 71.8373 21.4014C71.8373 21.6112 71.8704 21.8023 71.9365 21.9748C72.0074 22.1475 72.1018 22.2967 72.2199 22.4225C72.3427 22.5438 72.4844 22.637 72.6452 22.7023C72.8105 22.7677 72.9877 22.8003 73.1766 22.8003ZM79.645 23.8494V18.9534H80.8004L83.5359 22.2127H82.9901V18.9534H84.3652V23.8494H83.2099L80.4743 20.59H81.0201V23.8494H79.645ZM90.075 23.9473C89.6684 23.9473 89.2764 23.8983 88.8985 23.8003C88.5253 23.6979 88.2204 23.5674 87.9842 23.4088L88.445 22.3875C88.667 22.5275 88.9222 22.644 89.2104 22.7373C89.5032 22.826 89.7938 22.8701 90.082 22.8701C90.2757 22.8701 90.4317 22.8538 90.5498 22.8213C90.6679 22.784 90.7529 22.7373 90.805 22.6813C90.8617 22.6207 90.8899 22.5508 90.8899 22.4715C90.8899 22.3597 90.8378 22.271 90.7341 22.2058C90.6301 22.1405 90.4954 22.0869 90.3301 22.0449C90.1646 22.0029 89.9804 21.9609 89.7773 21.9189C89.579 21.8769 89.378 21.8233 89.175 21.7582C88.9764 21.6928 88.7945 21.6088 88.6292 21.5064C88.4638 21.3991 88.329 21.2615 88.2253 21.0936C88.1213 20.9211 88.0694 20.7043 88.0694 20.4432C88.0694 20.1494 88.1497 19.8836 88.3103 19.6458C88.4755 19.408 88.7213 19.2168 89.0473 19.0723C89.3733 18.9277 89.7797 18.8555 90.2663 18.8555C90.5923 18.8555 90.9113 18.8928 91.223 18.9674C91.5394 19.0373 91.8206 19.1422 92.0664 19.2821L91.6342 20.3103C91.3977 20.1844 91.1639 20.0911 90.9326 20.0305C90.701 19.9652 90.4764 19.9326 90.2592 19.9326C90.0653 19.9326 89.9095 19.9536 89.7914 19.9955C89.6733 20.0328 89.5883 20.0841 89.5365 20.1494C89.4842 20.2147 89.4583 20.2893 89.4583 20.3732C89.4583 20.4805 89.5081 20.5667 89.6071 20.632C89.7111 20.6926 89.8456 20.7439 90.0111 20.7859C90.1813 20.8232 90.3655 20.8628 90.5639 20.9048C90.7669 20.9468 90.9679 21.0004 91.1664 21.0657C91.3695 21.1263 91.5537 21.2102 91.7192 21.3175C91.8845 21.42 92.0169 21.5576 92.1161 21.7301C92.2199 21.8979 92.272 22.11 92.272 22.3665C92.272 22.6511 92.1892 22.9145 92.0239 23.157C91.8631 23.3947 91.6199 23.5858 91.2939 23.7305C90.9726 23.8751 90.5662 23.9473 90.075 23.9473ZM96.8835 23.8494V20.0515H95.3596V18.9534H99.8033V20.0515H98.2867V23.8494H96.8835ZM103.303 23.8494V18.9534H105.521C106.244 18.9534 106.799 19.1166 107.186 19.443C107.579 19.7647 107.775 20.2054 107.775 20.7649C107.775 21.1333 107.685 21.4526 107.505 21.723C107.326 21.989 107.071 22.194 106.74 22.3387C106.414 22.4786 106.024 22.5485 105.57 22.5485H104.082L104.706 21.968V23.8494H103.303ZM106.371 23.8494L105.138 22.0659H106.634L107.874 23.8494H106.371ZM104.706 22.1148L104.082 21.4783H105.485C105.778 21.4783 105.996 21.4154 106.137 21.2895C106.284 21.1636 106.357 20.9887 106.357 20.7649C106.357 20.5364 106.284 20.3592 106.137 20.2333C105.996 20.1075 105.778 20.0445 105.485 20.0445H104.082L104.706 19.408V22.1148ZM113.814 23.9473C113.082 23.9473 112.51 23.7491 112.099 23.3529C111.688 22.9565 111.483 22.3946 111.483 21.6671V18.9534H112.886V21.6251C112.886 22.0449 112.969 22.3455 113.134 22.5275C113.304 22.7094 113.536 22.8003 113.829 22.8003C114.122 22.8003 114.351 22.7094 114.516 22.5275C114.682 22.3455 114.764 22.0449 114.764 21.6251V18.9534H116.146V21.6671C116.146 22.3946 115.941 22.9565 115.529 23.3529C115.118 23.7491 114.547 23.9473 113.814 23.9473ZM122.547 23.9473C122.155 23.9473 121.791 23.8867 121.455 23.7654C121.125 23.6396 120.836 23.4624 120.591 23.234C120.35 23.0053 120.161 22.7373 120.024 22.4295C119.887 22.1171 119.818 21.7745 119.818 21.4014C119.818 21.0284 119.887 20.688 120.024 20.3802C120.161 20.0678 120.35 19.7974 120.591 19.5689C120.836 19.3404 121.125 19.1655 121.455 19.0443C121.791 18.9184 122.155 18.8555 122.547 18.8555C123.005 18.8555 123.414 18.9347 123.773 19.0933C124.137 19.2518 124.439 19.4803 124.68 19.7787L123.787 20.5761C123.626 20.3895 123.449 20.2473 123.255 20.1494C123.066 20.0515 122.854 20.0025 122.618 20.0025C122.414 20.0025 122.228 20.0352 122.058 20.1004C121.888 20.1657 121.741 20.2613 121.618 20.3872C121.5 20.5084 121.406 20.6553 121.335 20.8279C121.268 21.0004 121.236 21.1916 121.236 21.4014C121.236 21.6112 121.268 21.8023 121.335 21.9748C121.406 22.1475 121.5 22.2967 121.618 22.4225C121.741 22.5438 121.888 22.637 122.058 22.7023C122.228 22.7677 122.414 22.8003 122.618 22.8003C122.854 22.8003 123.066 22.7512 123.255 22.6535C123.449 22.5555 123.626 22.4133 123.787 22.2266L124.68 23.024C124.439 23.3178 124.137 23.5464 123.773 23.7095C123.414 23.868 123.005 23.9473 122.547 23.9473ZM129.221 23.8494V20.0515H127.697V18.9534H132.14V20.0515H130.624V23.8494H129.221ZM138.072 23.9473C137.675 23.9473 137.309 23.8843 136.974 23.7585C136.638 23.6325 136.345 23.4553 136.095 23.2269C135.849 22.9938 135.658 22.7233 135.521 22.4156C135.384 22.1079 135.315 21.7698 135.315 21.4014C135.315 21.033 135.384 20.695 135.521 20.3872C135.658 20.0795 135.849 19.8114 136.095 19.5829C136.345 19.3497 136.638 19.1702 136.974 19.0443C137.309 18.9184 137.675 18.8555 138.072 18.8555C138.474 18.8555 138.84 18.9184 139.171 19.0443C139.506 19.1702 139.797 19.3497 140.042 19.5829C140.288 19.8114 140.48 20.0795 140.616 20.3872C140.758 20.695 140.829 21.033 140.829 21.4014C140.829 21.7698 140.758 22.11 140.616 22.4225C140.48 22.7304 140.288 22.9985 140.042 23.2269C139.797 23.4553 139.506 23.6325 139.171 23.7585C138.84 23.8843 138.474 23.9473 138.072 23.9473ZM138.072 22.8003C138.261 22.8003 138.436 22.7677 138.597 22.7023C138.762 22.637 138.904 22.5438 139.022 22.4225C139.145 22.2967 139.239 22.1475 139.305 21.9748C139.376 21.8023 139.412 21.6112 139.412 21.4014C139.412 21.1869 139.376 20.9957 139.305 20.8279C139.239 20.6553 139.145 20.5084 139.022 20.3872C138.904 20.2613 138.762 20.1657 138.597 20.1004C138.436 20.0352 138.261 20.0025 138.072 20.0025C137.883 20.0025 137.706 20.0352 137.541 20.1004C137.38 20.1657 137.238 20.2613 137.115 20.3872C136.997 20.5084 136.903 20.6553 136.832 20.8279C136.766 20.9957 136.733 21.1869 136.733 21.4014C136.733 21.6112 136.766 21.8023 136.832 21.9748C136.903 22.1475 136.997 22.2967 137.115 22.4225C137.238 22.5438 137.38 22.637 137.541 22.7023C137.706 22.7677 137.883 22.8003 138.072 22.8003ZM144.541 23.8494V18.9534H146.759C147.482 18.9534 148.037 19.1166 148.424 19.443C148.816 19.7647 149.013 20.2054 149.013 20.7649C149.013 21.1333 148.923 21.4526 148.743 21.723C148.564 21.989 148.308 22.194 147.978 22.3387C147.652 22.4786 147.262 22.5485 146.808 22.5485H145.32L145.944 21.968V23.8494H144.541ZM147.609 23.8494L146.376 22.0659H147.872L149.112 23.8494H147.609ZM145.944 22.1148L145.32 21.4783H146.723C147.016 21.4783 147.234 21.4154 147.375 21.2895C147.522 21.1636 147.595 20.9887 147.595 20.7649C147.595 20.5364 147.522 20.3592 147.375 20.2333C147.234 20.1075 147.016 20.0445 146.723 20.0445H145.32L145.944 19.408V22.1148ZM152.168 23.8494L154.358 18.9534H155.74L157.937 23.8494H156.477L154.762 19.6318H155.315L153.6 23.8494H152.168ZM153.366 22.8982L153.727 21.8769H156.151L156.512 22.8982H153.366Z" fill="#FDFDFD"/>
</g>
</g>
<defs>
<clipPath id="clip0_443_21860">
<rect width="158" height="24" fill="white"/>
</clipPath>
</defs>
</svg>
