<svg width="8" height="8" viewBox="0 0 8 8" fill="none" xmlns="http://www.w3.org/2000/svg">
<path d="M7.42857 4.57143H4.57143V7.42857C4.57143 7.58012 4.51122 7.72547 4.40406 7.83263C4.2969 7.9398 4.15155 8 4 8C3.84845 8 3.7031 7.9398 3.59594 7.83263C3.48878 7.72547 3.42857 7.58012 3.42857 7.42857V4.57143H0.571429C0.419876 4.57143 0.274531 4.51122 0.167368 4.40406C0.060204 4.2969 0 4.15155 0 4C0 3.84845 0.060204 3.7031 0.167368 3.59594C0.274531 3.48878 0.419876 3.42857 0.571429 3.42857H3.42857V0.571429C3.42857 0.419876 3.48878 0.274531 3.59594 0.167367C3.7031 0.0602037 3.84845 0 4 0C4.15155 0 4.2969 0.0602037 4.40406 0.167367C4.51122 0.274531 4.57143 0.419876 4.57143 0.571429V3.42857H7.42857C7.58012 3.42857 7.72547 3.48878 7.83263 3.59594C7.9398 3.7031 8 3.84845 8 4C8 4.15155 7.9398 4.2969 7.83263 4.40406C7.72547 4.51122 7.58012 4.57143 7.42857 4.57143Z" fill="#FDFDFD"/>
</svg>
