<svg width="17" height="12" viewBox="0 0 17 12" fill="none" xmlns="http://www.w3.org/2000/svg">
<path d="M16.6451 1.85088C16.5466 1.49416 16.3585 1.16923 16.099 0.907657C15.8395 0.646081 15.5174 0.456751 15.1641 0.358057C13.8382 1.71175e-05 8.5081 1.7204e-05 8.5081 1.7204e-05C8.5081 1.7204e-05 3.18812 -0.00857157 1.84842 0.358057C1.49566 0.457234 1.17424 0.646779 0.915313 0.908324C0.656389 1.16987 0.468742 1.49454 0.370559 1.85088C0.118856 3.22197 -0.00515105 4.61387 0.000163839 6.00833C-0.00270328 7.3961 0.121288 8.78118 0.370559 10.1459C0.469202 10.5024 0.656952 10.8272 0.915765 11.0892C1.17458 11.3512 1.49575 11.5416 1.84842 11.642C3.1743 12 8.5081 12 8.5081 12C8.5081 12 13.8249 12 15.1641 11.642C15.5173 11.542 15.8392 11.3519 16.0986 11.0899C16.358 10.8278 16.5462 10.5028 16.6451 10.1459C16.889 8.78193 17.0081 7.39486 16.9996 6.00833C17.0081 4.61267 16.8917 3.22345 16.6451 1.85088ZM6.80545 8.57795V3.42743L11.2422 6.00833L6.80545 8.57795Z" fill="#D62322"/>
</svg>
