<svg width="20" height="20" viewBox="0 0 20 20" fill="none" xmlns="http://www.w3.org/2000/svg">
<path d="M6.92064 0.9C6.92064 0.661305 6.82582 0.432387 6.65704 0.263604C6.48825 0.094821 6.25933 0 6.02064 0C5.78194 0 5.55303 0.094821 5.38424 0.263604C5.21546 0.432387 5.12064 0.661305 5.12064 0.9V2.4096C3.67603 2.44192 2.23427 2.55329 0.801839 2.7432C0.684674 2.7588 0.571729 2.79733 0.469452 2.85658C0.367176 2.91583 0.277571 2.99464 0.205754 3.08852C0.133938 3.1824 0.0813151 3.28951 0.0508913 3.40373C0.0204675 3.51794 0.0128384 3.63703 0.0284394 3.7542C0.0440405 3.87137 0.0825662 3.98431 0.141817 4.08659C0.201068 4.18886 0.279883 4.27847 0.373763 4.35029C0.467643 4.4221 0.574749 4.47472 0.688966 4.50515C0.803183 4.53557 0.922274 4.5432 1.03944 4.5276C3.36633 4.21929 5.71681 4.1277 8.06064 4.254C7.56384 5.93155 6.87952 7.54776 6.02064 9.072C5.57092 8.27683 5.16939 7.45535 4.81824 6.612C4.72223 6.39804 4.54649 6.23 4.32844 6.14366C4.11039 6.05733 3.86725 6.05951 3.65079 6.14976C3.43433 6.24 3.26165 6.41117 3.1695 6.62683C3.07735 6.84249 3.07303 7.0856 3.15744 7.3044C3.66256 8.51317 4.26118 9.68071 4.94784 10.7964C3.66537 12.6711 2.1181 14.3501 0.35424 15.7812C0.258429 15.8543 0.178265 15.9458 0.118503 16.0505C0.0587401 16.1551 0.0205953 16.2706 0.00632987 16.3903C-0.00793552 16.5099 0.00196906 16.6312 0.0354564 16.747C0.0689437 16.8627 0.125332 16.9706 0.201277 17.0641C0.277223 17.1576 0.371178 17.235 0.477574 17.2915C0.583969 17.3481 0.700638 17.3827 0.820661 17.3933C0.940684 17.404 1.06162 17.3904 1.17629 17.3534C1.29097 17.3164 1.39705 17.2568 1.48824 17.178C3.20173 15.7896 4.72554 14.1823 6.02064 12.3972C6.13504 12.5556 6.25104 12.712 6.36864 12.8664C6.51345 13.0564 6.7278 13.1811 6.96455 13.2131C7.20129 13.245 7.44104 13.1816 7.63104 13.0368C7.82104 12.892 7.94573 12.6776 7.97769 12.4409C8.00965 12.2041 7.94625 11.9644 7.80144 11.7744C7.55664 11.4544 7.32064 11.1284 7.09344 10.7964C8.3191 8.80388 9.26134 6.6504 9.89304 4.398C10.265 4.4356 10.6346 4.4788 11.0018 4.5276C11.2385 4.55911 11.4779 4.49533 11.6675 4.35029C11.8571 4.20524 11.9813 3.99083 12.0128 3.7542C12.0443 3.51757 11.9806 3.27812 11.8355 3.08852C11.6905 2.89892 11.4761 2.77471 11.2394 2.7432C9.807 2.55329 8.36525 2.44192 6.92064 2.4096V0.9Z" fill="#D62322"/>
<path fill-rule="evenodd" clip-rule="evenodd" d="M13.2207 7.19922C13.3879 7.19922 13.5518 7.24582 13.694 7.33379C13.8363 7.42175 13.9512 7.5476 14.0259 7.69722L19.1259 17.8972C19.1797 18.0031 19.2121 18.1185 19.2212 18.237C19.2302 18.3554 19.2157 18.4745 19.1785 18.5873C19.1413 18.7001 19.0822 18.8044 19.0045 18.8942C18.9268 18.9841 18.8321 19.0576 18.7258 19.1107C18.6195 19.1638 18.5038 19.1953 18.3853 19.2034C18.2668 19.2115 18.1479 19.1961 18.0353 19.158C17.9228 19.1199 17.819 19.06 17.7297 18.9816C17.6405 18.9032 17.5677 18.8079 17.5155 18.7012L16.5651 16.7992H9.87745L8.92585 18.7012C8.87363 18.8079 8.8008 18.9032 8.71157 18.9816C8.62234 19.06 8.51847 19.1199 8.40596 19.158C8.29345 19.1961 8.17451 19.2115 8.05601 19.2034C7.93751 19.1953 7.82179 19.1638 7.71552 19.1107C7.60925 19.0576 7.51453 18.9841 7.43683 18.8942C7.35912 18.8044 7.29997 18.7001 7.26278 18.5873C7.22559 18.4745 7.2111 18.3554 7.22014 18.237C7.22918 18.1185 7.26157 18.0031 7.31546 17.8972L12.4155 7.69722C12.4902 7.5476 12.6051 7.42175 12.7473 7.33379C12.8895 7.24582 13.0534 7.19922 13.2207 7.19922ZM15.6651 14.9992L13.2207 10.1116L10.7775 14.9992H15.6651Z" fill="#D62322"/>
</svg>
