<svg width="20" height="22" viewBox="0 0 20 22" fill="none" xmlns="http://www.w3.org/2000/svg">
<path d="M0.75 12.75V8.75C0.75 4.979 0.75 3.093 1.922 1.922C3.094 0.751 4.979 0.75 8.75 0.75H10.75C14.521 0.75 16.407 0.75 17.578 1.922C18.749 3.094 18.75 4.979 18.75 8.75V12.75C18.75 16.521 18.75 18.407 17.578 19.578C16.406 20.749 14.521 20.75 10.75 20.75H8.75C4.979 20.75 3.093 20.75 1.922 19.578C0.751 18.406 0.75 16.521 0.75 12.75Z" stroke="#D62322" stroke-width="1.5"/>
<path d="M5.75 16.75H13.75" stroke="#D62322" stroke-width="1.5" stroke-linecap="round"/>
<path d="M4.80001 5.72656H14.707M9.76502 5.72656V12.7326M9.76502 12.7326H9.23202M9.76502 12.7326H10.291M5.76601 6.71456C5.04001 7.45956 3.83801 8.74556 4.36401 9.81756C4.83101 10.7686 5.49501 10.7856 5.76502 10.7856C6.03502 10.7856 6.73801 10.7686 7.20501 9.81756C7.73101 8.74556 6.49201 7.45956 5.76601 6.71456ZM13.731 6.71456C13.006 7.45956 11.804 8.74556 12.329 9.81756C12.796 10.7686 13.461 10.7856 13.731 10.7856C14.001 10.7856 14.704 10.7686 15.171 9.81756C15.697 8.74556 14.457 7.45956 13.731 6.71456Z" stroke="#D62322" stroke-width="1.5" stroke-linecap="round" stroke-linejoin="round"/>
</svg>
