<svg width="24" height="24" viewBox="0 0 24 24" fill="none" xmlns="http://www.w3.org/2000/svg">
<g clip-path="url(#clip0_908_47480)">
<path d="M18.9042 1.5H13.1419C12.9627 1.49987 12.7909 1.57065 12.6638 1.69688L1.14375 13.2141C0.891571 13.4675 0.75 13.8105 0.75 14.168C0.75 14.5255 0.891571 14.8685 1.14375 15.1219L6.62813 20.6063C6.88163 20.8585 7.22468 21 7.58227 21C7.93986 21 8.28291 20.8585 8.53641 20.6063L20.0531 9.09375C20.1794 8.96665 20.2501 8.79476 20.25 8.61563V2.85C20.2509 2.67283 20.2167 2.49724 20.1494 2.33333C20.0821 2.16943 19.9831 2.02045 19.858 1.89497C19.7329 1.76949 19.5843 1.67 19.4206 1.60221C19.2569 1.53443 19.0814 1.49969 18.9042 1.5Z" stroke="#D62322" stroke-width="1.5" stroke-linecap="round" stroke-linejoin="round"/>
<path d="M16.5 6.75C16.2033 6.75 15.9133 6.66203 15.6666 6.49721C15.42 6.33238 15.2277 6.09812 15.1142 5.82403C15.0006 5.54994 14.9709 5.24834 15.0288 4.95737C15.0867 4.66639 15.2296 4.39912 15.4393 4.18934C15.6491 3.97956 15.9164 3.8367 16.2074 3.77882C16.4983 3.72094 16.7999 3.75065 17.074 3.86418C17.3481 3.97771 17.5824 4.16997 17.7472 4.41665C17.912 4.66332 18 4.95333 18 5.25C18 5.64783 17.842 6.02936 17.5607 6.31066C17.2794 6.59197 16.8978 6.75 16.5 6.75Z" fill="#D62322"/>
<path d="M10.7812 22.5L23.0625 10.2188C23.1236 10.1572 23.1717 10.0839 23.2039 10.0034C23.2361 9.9229 23.2518 9.83671 23.25 9.75V3.75" stroke="#D62322" stroke-width="1.5" stroke-linecap="round" stroke-linejoin="round"/>
</g>
<defs>
<clipPath id="clip0_908_47480">
<rect width="24" height="24" fill="white"/>
</clipPath>
</defs>
</svg>
