<svg width="24" height="21" viewBox="0 0 24 21" fill="none" xmlns="http://www.w3.org/2000/svg">
<path d="M16.5 5.25C16.5 4.05653 16.0259 2.91193 15.182 2.06802C14.3381 1.22411 13.1935 0.75 12 0.75C10.8065 0.75 9.66193 1.22411 8.81802 2.06802C7.97411 2.91193 7.5 4.05653 7.5 5.25M0.75 11.25H9.75M14.25 11.25H23.25M2.25 5.25H21.75C21.75 5.25 23.25 5.25 23.25 6.75V18.75C23.25 18.75 23.25 20.25 21.75 20.25H2.25C2.25 20.25 0.75 20.25 0.75 18.75V6.75C0.75 6.75 0.75 5.25 2.25 5.25Z" stroke="#D62322" stroke-width="1.5" stroke-linecap="round" stroke-linejoin="round"/>
<path d="M9.75 12.2508C9.75 12.8475 9.98705 13.4198 10.409 13.8418C10.831 14.2637 11.4033 14.5008 12 14.5008C12.5967 14.5008 13.169 14.2637 13.591 13.8418C14.0129 13.4198 14.25 12.8475 14.25 12.2508V11.0508C14.25 10.454 14.0129 9.88175 13.591 9.45979C13.169 9.03783 12.5967 8.80078 12 8.80078C11.4033 8.80078 10.831 9.03783 10.409 9.45979C9.98705 9.88175 9.75 10.454 9.75 11.0508V12.2508Z" stroke="#D62322" stroke-width="1.5" stroke-linecap="round" stroke-linejoin="round"/>
</svg>
