<svg width="21" height="21" viewBox="0 0 21 21" fill="none" xmlns="http://www.w3.org/2000/svg">
<path d="M10.25 8.75C11.0784 8.75 11.75 8.07843 11.75 7.25C11.75 6.42157 11.0784 5.75 10.25 5.75C9.42157 5.75 8.75 6.42157 8.75 7.25C8.75 8.07843 9.42157 8.75 10.25 8.75Z" stroke="#D62322" stroke-width="1.5" stroke-linecap="round"/>
<path d="M13.9509 6.5008C14.0487 6.32884 14.1795 6.17791 14.3359 6.0567C14.4922 5.9355 14.671 5.84642 14.8619 5.79459C15.0528 5.74276 15.2521 5.7292 15.4482 5.7547C15.6444 5.7802 15.8336 5.84425 16.0049 5.94316C16.1762 6.04207 16.3263 6.17389 16.4464 6.33104C16.5666 6.48818 16.6545 6.66754 16.7051 6.85879C16.7556 7.05003 16.7679 7.2494 16.7411 7.44539C16.7143 7.64139 16.649 7.83015 16.5489 8.0008C16.3486 8.34251 16.0212 8.59112 15.6383 8.69236C15.2553 8.79361 14.8479 8.73927 14.5049 8.54122C14.1618 8.34316 13.9111 8.01746 13.8073 7.6352C13.7035 7.25294 13.7551 6.84514 13.9509 6.5008ZM3.95091 6.5008C4.04869 6.32884 4.17951 6.17791 4.33585 6.0567C4.49219 5.9355 4.67096 5.84642 4.86187 5.79459C5.05278 5.74276 5.25206 5.7292 5.44823 5.7547C5.6444 5.7802 5.83359 5.84425 6.0049 5.94316C6.17622 6.04207 6.32628 6.17389 6.44644 6.33104C6.5666 6.48818 6.6545 6.66754 6.70506 6.85879C6.75562 7.05003 6.76786 7.2494 6.74106 7.44539C6.71426 7.64139 6.64896 7.83015 6.54891 8.0008C6.34859 8.34251 6.02123 8.59112 5.63829 8.69236C5.25535 8.79361 4.8479 8.73927 4.50487 8.54122C4.16184 8.34316 3.91107 8.01746 3.80729 7.6352C3.70351 7.25294 3.75514 6.84514 3.95091 6.5008Z" stroke="#D62322" stroke-width="1.5"/>
<path d="M12.3499 11.435L12.0599 11.029L11.5269 11.409L12.0339 11.823L12.3499 11.435ZM17.7499 14.25H12.7499V15.25H17.7499V14.25ZM18.1279 13.879C18.14 13.9213 18.1408 13.966 18.1301 14.0087C18.1193 14.0514 18.0976 14.0904 18.0669 14.122C18.0256 14.1639 17.9762 14.1968 17.9217 14.2189C17.8672 14.2409 17.8087 14.2515 17.7499 14.25V15.25C18.5499 15.25 19.3199 14.567 19.0999 13.646L18.1279 13.879ZM14.7499 11.25C15.9759 11.25 16.7399 11.659 17.2319 12.162C17.7379 12.679 17.9969 13.336 18.1279 13.879L19.0999 13.646C18.9459 13.004 18.6249 12.156 17.9469 11.462C17.2539 10.755 16.2269 10.25 14.7499 10.25V11.25ZM12.6399 11.842C13.1179 11.501 13.7899 11.25 14.7499 11.25V10.25C13.6039 10.25 12.7249 10.553 12.0599 11.029L12.6399 11.842ZM12.0339 11.822C12.6869 12.356 12.9979 13.185 13.1409 13.863L14.1199 13.657C13.9579 12.89 13.5799 11.794 12.6659 11.048L12.0339 11.822ZM13.1409 13.863C13.1515 13.9083 13.1507 13.9545 13.1384 13.9994C13.1262 14.0442 13.103 14.0853 13.0709 14.119C13.0291 14.1614 12.979 14.1949 12.9239 14.2174C12.8687 14.24 12.8095 14.251 12.7499 14.25V15.25C13.5539 15.25 14.3109 14.57 14.1199 13.657L13.1409 13.863ZM8.14992 11.435L8.46592 11.823L8.97292 11.409L8.44092 11.029L8.14992 11.435ZM5.74992 11.25C6.70992 11.25 7.38092 11.5 7.85992 11.842L8.43992 11.028C7.77592 10.554 6.89692 10.25 5.74992 10.25V11.25ZM2.37192 13.879C2.50192 13.336 2.76192 12.679 3.26792 12.162C3.75992 11.659 4.52392 11.25 5.74992 11.25V10.25C4.27192 10.25 3.24592 10.755 2.55292 11.462C1.87492 12.155 1.55292 13.004 1.39992 13.646L2.37192 13.879ZM2.74992 14.25C2.69114 14.2515 2.63268 14.2409 2.57815 14.2189C2.52363 14.1968 2.4742 14.1639 2.43292 14.122C2.40244 14.0903 2.38085 14.0512 2.37032 14.0085C2.35979 13.9659 2.35968 13.9212 2.37192 13.879L1.39992 13.646C1.17992 14.567 1.94992 15.25 2.74992 15.25V14.25ZM7.74992 14.25H2.74992V15.25H7.74992V14.25ZM7.74992 14.25C7.69024 14.2513 7.63091 14.2405 7.57555 14.2181C7.5202 14.1958 7.46997 14.1624 7.42792 14.12C7.39583 14.0863 7.37262 14.0452 7.3604 14.0004C7.34818 13.9555 7.34733 13.9083 7.35792 13.863L6.37992 13.657C6.18792 14.569 6.94592 15.25 7.74992 15.25V14.25ZM7.35892 13.863C7.50192 13.183 7.81292 12.356 8.46592 11.823L7.83392 11.048C6.91992 11.794 6.54192 12.89 6.37992 13.657L7.35892 13.863Z" fill="#D62322"/>
<path d="M16.75 19.75H18.25C18.6478 19.75 19.0294 19.592 19.3107 19.3107C19.592 19.0294 19.75 18.6478 19.75 18.25V16.75M16.75 0.75H18.25C18.6478 0.75 19.0294 0.908035 19.3107 1.18934C19.592 1.47064 19.75 1.85218 19.75 2.25V3.75M3.75 19.75H2.25C1.85218 19.75 1.47064 19.592 1.18934 19.3107C0.908035 19.0294 0.75 18.6478 0.75 18.25V16.75M3.75 0.75H2.25C1.85218 0.75 1.47064 0.908035 1.18934 1.18934C0.908035 1.47064 0.75 1.85218 0.75 2.25V3.75M10.25 10.75C12.614 10.75 13.381 12.575 13.63 13.76C13.744 14.3 13.302 14.75 12.75 14.75H7.75C7.198 14.75 6.756 14.3 6.87 13.76C7.119 12.575 7.886 10.75 10.25 10.75Z" stroke="#D62322" stroke-width="1.5" stroke-linecap="round"/>
</svg>
