<svg width="16" height="16" viewBox="0 0 16 16" fill="none" xmlns="http://www.w3.org/2000/svg">
<path d="M9.85964 6.28627C10.2006 6.28627 10.5277 6.42173 10.7688 6.66285C11.0099 6.90397 11.1454 7.23099 11.1454 7.57199V11.1428C11.1454 11.9765 10.8142 12.7761 10.2247 13.3656C9.63516 13.9551 8.83561 14.2863 8.00192 14.2863C7.16824 14.2863 6.36869 13.9551 5.77918 13.3656C5.18968 12.7761 4.8585 11.9765 4.8585 11.1428V7.57199C4.8585 7.23099 4.99395 6.90397 5.23507 6.66285C5.47619 6.42173 5.80322 6.28627 6.14421 6.28627H9.85964ZM9.85964 7.14341H6.14421C6.03055 7.14341 5.92154 7.18857 5.84116 7.26894C5.76079 7.34931 5.71564 7.45832 5.71564 7.57199V11.1428C5.71564 11.7492 5.95651 12.3307 6.38528 12.7595C6.81404 13.1883 7.39556 13.4291 8.00192 13.4291C8.60829 13.4291 9.18981 13.1883 9.61857 12.7595C10.0473 12.3307 10.2882 11.7492 10.2882 11.1428V7.57199C10.2882 7.45832 10.2431 7.34931 10.1627 7.26894C10.0823 7.18857 9.9733 7.14341 9.85964 7.14341ZM2.42878 6.28627H4.80364C4.57415 6.52508 4.41293 6.82109 4.33678 7.14341H2.42878C2.31512 7.14341 2.20611 7.18857 2.12574 7.26894C2.04536 7.34931 2.00021 7.45832 2.00021 7.57199V10.5714C1.99999 10.8582 2.0717 11.1404 2.2088 11.3923C2.3459 11.6442 2.54399 11.8576 2.78494 12.0131C3.02589 12.1686 3.302 12.2612 3.58799 12.2824C3.87398 12.3035 4.16071 12.2526 4.42192 12.1343C4.49792 12.4143 4.60707 12.6806 4.74421 12.9297C4.35272 13.1008 3.92476 13.1716 3.49902 13.1358C3.07327 13.1 2.66316 12.9587 2.30574 12.7246C1.94831 12.4906 1.65484 12.1711 1.45185 11.7952C1.24885 11.4193 1.14273 10.9987 1.14307 10.5714V7.57199C1.14307 7.23099 1.27853 6.90397 1.51964 6.66285C1.76076 6.42173 2.08779 6.28627 2.42878 6.28627ZM13.5716 6.28627C13.9126 6.28627 14.2397 6.42173 14.4808 6.66285C14.7219 6.90397 14.8574 7.23099 14.8574 7.57199V10.572C14.8575 10.9989 14.7514 11.4192 14.5485 11.7949C14.3456 12.1706 14.0524 12.4898 13.6953 12.7238C13.3382 12.9578 12.9284 13.0992 12.503 13.1353C12.0776 13.1713 11.6499 13.1009 11.2585 12.9303L11.2905 12.872C11.4128 12.64 11.5116 12.3937 11.5825 12.1354C11.8436 12.2529 12.1299 12.3031 12.4154 12.2815C12.7009 12.2599 12.9764 12.1671 13.2168 12.0116C13.4572 11.8562 13.6549 11.643 13.7917 11.3915C13.9285 11.14 14.0002 10.8583 14.0002 10.572V7.57199C14.0002 7.45842 13.9551 7.3495 13.8749 7.26914C13.7946 7.18879 13.6858 7.14357 13.5722 7.14341H11.6676C11.5913 6.82103 11.4299 6.52502 11.2002 6.28627H13.5716ZM8.00021 1.71484C8.26285 1.71484 8.52293 1.76658 8.76558 1.86708C9.00823 1.96759 9.22871 2.11491 9.41442 2.30063C9.60014 2.48635 9.74746 2.70683 9.84797 2.94948C9.94848 3.19213 10.0002 3.4522 10.0002 3.71484C10.0002 3.97749 9.94848 4.23756 9.84797 4.48021C9.74746 4.72286 9.60014 4.94334 9.41442 5.12906C9.22871 5.31477 9.00823 5.46209 8.76558 5.5626C8.52293 5.66311 8.26285 5.71484 8.00021 5.71484C7.46978 5.71484 6.96107 5.50413 6.586 5.12906C6.21092 4.75398 6.00021 4.24528 6.00021 3.71484C6.00021 3.18441 6.21092 2.6757 6.586 2.30063C6.96107 1.92556 7.46978 1.71484 8.00021 1.71484ZM12.5734 2.28627C12.7985 2.28627 13.0214 2.33061 13.2294 2.41676C13.4374 2.50292 13.6264 2.62919 13.7855 2.78838C13.9447 2.94756 14.071 3.13654 14.1571 3.34453C14.2433 3.55252 14.2876 3.77543 14.2876 4.00056C14.2876 4.22568 14.2433 4.4486 14.1571 4.65659C14.071 4.86457 13.9447 5.05356 13.7855 5.21274C13.6264 5.37193 13.4374 5.4982 13.2294 5.58435C13.0214 5.6705 12.7985 5.71484 12.5734 5.71484C12.1187 5.71484 11.6827 5.53423 11.3612 5.21274C11.0397 4.89125 10.8591 4.45521 10.8591 4.00056C10.8591 3.5459 11.0397 3.10987 11.3612 2.78838C11.6827 2.46688 12.1187 2.28627 12.5734 2.28627ZM3.42707 2.28627C3.65219 2.28627 3.87511 2.33061 4.0831 2.41676C4.29108 2.50292 4.48006 2.62919 4.63925 2.78838C4.79844 2.94756 4.92471 3.13654 5.01086 3.34453C5.09701 3.55252 5.14135 3.77543 5.14135 4.00056C5.14135 4.22568 5.09701 4.4486 5.01086 4.65659C4.92471 4.86457 4.79844 5.05356 4.63925 5.21274C4.48006 5.37193 4.29108 5.4982 4.0831 5.58435C3.87511 5.6705 3.65219 5.71484 3.42707 5.71484C2.97241 5.71484 2.53638 5.53423 2.21488 5.21274C1.89339 4.89125 1.71278 4.45521 1.71278 4.00056C1.71278 3.5459 1.89339 3.10987 2.21488 2.78838C2.53638 2.46688 2.97241 2.28627 3.42707 2.28627ZM8.00021 2.57199C7.69711 2.57199 7.40642 2.69239 7.19209 2.90672C6.97776 3.12105 6.85735 3.41174 6.85735 3.71484C6.85735 4.01795 6.97776 4.30864 7.19209 4.52297C7.40642 4.73729 7.69711 4.8577 8.00021 4.8577C8.30331 4.8577 8.594 4.73729 8.80833 4.52297C9.02266 4.30864 9.14307 4.01795 9.14307 3.71484C9.14307 3.41174 9.02266 3.12105 8.80833 2.90672C8.594 2.69239 8.30331 2.57199 8.00021 2.57199ZM12.5734 3.14342C12.4608 3.14342 12.3493 3.16559 12.2453 3.20866C12.1413 3.25174 12.0469 3.31487 11.9673 3.39447C11.8877 3.47406 11.8245 3.56855 11.7815 3.67254C11.7384 3.77654 11.7162 3.888 11.7162 4.00056C11.7162 4.11312 11.7384 4.22458 11.7815 4.32857C11.8245 4.43257 11.8877 4.52706 11.9673 4.60665C12.0469 4.68624 12.1413 4.74938 12.2453 4.79245C12.3493 4.83553 12.4608 4.8577 12.5734 4.8577C12.8007 4.8577 13.0187 4.7674 13.1794 4.60665C13.3402 4.4459 13.4305 4.22789 13.4305 4.00056C13.4305 3.77323 13.3402 3.55521 13.1794 3.39447C13.0187 3.23372 12.8007 3.14342 12.5734 3.14342ZM3.42707 3.14342C3.31451 3.14342 3.20305 3.16559 3.09905 3.20866C2.99506 3.25174 2.90057 3.31487 2.82098 3.39447C2.74138 3.47406 2.67825 3.56855 2.63517 3.67254C2.5921 3.77654 2.56992 3.888 2.56992 4.00056C2.56992 4.11312 2.5921 4.22458 2.63517 4.32857C2.67825 4.43257 2.74138 4.52706 2.82098 4.60665C2.90057 4.68624 2.99506 4.74938 3.09905 4.79245C3.20305 4.83553 3.31451 4.8577 3.42707 4.8577C3.6544 4.8577 3.87241 4.7674 4.03316 4.60665C4.1939 4.4459 4.28421 4.22789 4.28421 4.00056C4.28421 3.77323 4.1939 3.55521 4.03316 3.39447C3.87241 3.23372 3.6544 3.14342 3.42707 3.14342Z" fill="#D62322"/>
</svg>
