<svg width="14" height="14" viewBox="0 0 14 14" fill="none" xmlns="http://www.w3.org/2000/svg">
<path d="M2.77739 8.63783L5.75073 5.75049M7.12073 12.6305C10.1541 10.3265 12.1754 6.87116 12.7381 3.02716C12.7752 2.78992 12.7346 2.54703 12.6224 2.33473C12.5102 2.12243 12.3323 1.9521 12.1154 1.84916C10.4245 1.1091 8.59638 0.734699 6.75073 0.750493C4.90512 0.734489 3.07697 1.10866 1.38606 1.84849C1.16911 1.95143 0.991262 2.12176 0.879046 2.33406C0.766829 2.54636 0.72626 2.78925 0.763392 3.02649C1.32606 6.87049 3.34673 10.3265 6.38073 12.6305C6.4885 12.7081 6.61793 12.7498 6.75073 12.7498C6.88352 12.7498 7.01295 12.7081 7.12073 12.6305Z" stroke="#D62322" stroke-width="1.5" stroke-linecap="round" stroke-linejoin="round"/>
<path d="M12.0841 2.08398C10.7508 2.08398 9.17081 4.28665 6.75081 6.51332C4.33081 4.28665 2.75081 2.08398 1.41748 2.08398M10.5761 8.75065L7.75081 5.75065" stroke="#D62322" stroke-width="1.5" stroke-linecap="round" stroke-linejoin="round"/>
</svg>
