<svg width="16" height="16" viewBox="0 0 16 16" fill="none" xmlns="http://www.w3.org/2000/svg">
<path d="M6.66667 3.33333L8 2M5.33333 10.6667L10.6667 5.33333M8 14L9.33333 12.6667M11 12.6667C11.442 12.6667 11.866 12.4911 12.1785 12.1785C12.4911 11.866 12.6667 11.442 12.6667 11C12.6667 10.558 12.4911 10.134 12.1785 9.82149C11.866 9.50893 11.442 9.33333 11 9.33333C10.558 9.33333 10.134 9.50893 9.82149 9.82149C9.50893 10.134 9.33333 10.558 9.33333 11C9.33333 11.442 9.50893 11.866 9.82149 12.1785C10.134 12.4911 10.558 12.6667 11 12.6667ZM5 6.66667C5.44203 6.66667 5.86595 6.49107 6.17851 6.17851C6.49107 5.86595 6.66667 5.44203 6.66667 5C6.66667 4.55797 6.49107 4.13405 6.17851 3.82149C5.86595 3.50893 5.44203 3.33333 5 3.33333C4.55797 3.33333 4.13405 3.50893 3.82149 3.82149C3.50893 4.13405 3.33333 4.55797 3.33333 5C3.33333 5.44203 3.50893 5.86595 3.82149 6.17851C4.13405 6.49107 4.55797 6.66667 5 6.66667ZM3.66667 14C4.10869 14 4.53262 13.8244 4.84518 13.5118C5.15774 13.1993 5.33333 12.7754 5.33333 12.3333C5.33333 11.8913 5.15774 11.4674 4.84518 11.1548C4.53262 10.8423 4.10869 10.6667 3.66667 10.6667C3.22464 10.6667 2.80072 10.8423 2.48816 11.1548C2.17559 11.4674 2 11.8913 2 12.3333C2 12.7754 2.17559 13.1993 2.48816 13.5118C2.80072 13.8244 3.22464 14 3.66667 14ZM12.3333 5.33333C12.7754 5.33333 13.1993 5.15774 13.5118 4.84518C13.8244 4.53262 14 4.10869 14 3.66667C14 3.22464 13.8244 2.80072 13.5118 2.48816C13.1993 2.17559 12.7754 2 12.3333 2C11.8913 2 11.4674 2.17559 11.1548 2.48816C10.8423 2.80072 10.6667 3.22464 10.6667 3.66667C10.6667 4.10869 10.8423 4.53262 11.1548 4.84518C11.4674 5.15774 11.8913 5.33333 12.3333 5.33333Z" stroke="#D62322" stroke-width="1.5" stroke-linecap="round" stroke-linejoin="round"/>
</svg>
