<svg width="16" height="16" viewBox="0 0 16 16" fill="none" xmlns="http://www.w3.org/2000/svg">
<g clip-path="url(#clip0_908_56032)">
<path d="M5.33366 7.33268C6.21771 7.33268 7.06556 6.98149 7.69068 6.35637C8.3158 5.73125 8.66699 4.8834 8.66699 3.99935C8.66699 3.11529 8.3158 2.26745 7.69068 1.64233C7.06556 1.01721 6.21771 0.666016 5.33366 0.666016C4.4496 0.666016 3.60176 1.01721 2.97664 1.64233C2.35152 2.26745 2.00033 3.11529 2.00033 3.99935C2.00033 4.8834 2.35152 5.73125 2.97664 6.35637C3.60176 6.98149 4.4496 7.33268 5.33366 7.33268ZM5.33366 7.33268C6.67566 7.33268 7.84833 7.83935 8.68233 8.68135C9.17679 9.18267 9.5467 9.79303 9.76233 10.4633M5.33366 7.33268C2.66699 7.33268 0.666992 9.33268 0.666992 11.9993V15.3327H7.33366M8.00033 12.5487L10.7937 14.666L15.3337 8.66602" stroke="#D62322" stroke-width="1.5"/>
</g>
<defs>
<clipPath id="clip0_908_56032">
<rect width="16" height="16" fill="white"/>
</clipPath>
</defs>
</svg>
