<svg width="18" height="18" viewBox="0 0 18 18" fill="none" xmlns="http://www.w3.org/2000/svg">
<path d="M0 0.75C0 0.551088 0.0790178 0.360322 0.21967 0.21967C0.360322 0.0790178 0.551088 0 0.75 0H5.25C5.44891 0 5.63968 0.0790178 5.78033 0.21967C5.92098 0.360322 6 0.551088 6 0.75C6 0.948912 5.92098 1.13968 5.78033 1.28033C5.63968 1.42098 5.44891 1.5 5.25 1.5H2.5605L6.531 5.469C6.67183 5.60983 6.75095 5.80084 6.75095 6C6.75095 6.19916 6.67183 6.39017 6.531 6.531C6.39017 6.67183 6.19916 6.75095 6 6.75095C5.80084 6.75095 5.60983 6.67183 5.469 6.531L1.5 2.5605V5.25C1.5 5.44891 1.42098 5.63968 1.28033 5.78033C1.13968 5.92098 0.948912 6 0.75 6C0.551088 6 0.360322 5.92098 0.21967 5.78033C0.0790178 5.63968 0 5.44891 0 5.25V0.75ZM17.25 0C17.4489 0 17.6397 0.0790178 17.7803 0.21967C17.921 0.360322 18 0.551088 18 0.75V5.25C18 5.44891 17.921 5.63968 17.7803 5.78033C17.6397 5.92098 17.4489 6 17.25 6C17.0511 6 16.8603 5.92098 16.7197 5.78033C16.579 5.63968 16.5 5.44891 16.5 5.25V2.5605L12.531 6.531C12.3902 6.67183 12.1992 6.75095 12 6.75095C11.8008 6.75095 11.6098 6.67183 11.469 6.531C11.3282 6.39017 11.2491 6.19916 11.2491 6C11.2491 5.80084 11.3282 5.60983 11.469 5.469L15.4395 1.5H12.75C12.5511 1.5 12.3603 1.42098 12.2197 1.28033C12.079 1.13968 12 0.948912 12 0.75C12 0.551088 12.079 0.360322 12.2197 0.21967C12.3603 0.0790178 12.5511 0 12.75 0H17.25ZM17.25 18C17.4489 18 17.6397 17.921 17.7803 17.7803C17.921 17.6397 18 17.4489 18 17.25V12.75C18 12.5511 17.921 12.3603 17.7803 12.2197C17.6397 12.079 17.4489 12 17.25 12C17.0511 12 16.8603 12.079 16.7197 12.2197C16.579 12.3603 16.5 12.5511 16.5 12.75V15.4395L12.531 11.469C12.3902 11.3282 12.1992 11.2491 12 11.2491C11.8008 11.2491 11.6098 11.3282 11.469 11.469C11.3282 11.6098 11.2491 11.8008 11.2491 12C11.2491 12.1992 11.3282 12.3902 11.469 12.531L15.4395 16.5H12.75C12.5511 16.5 12.3603 16.579 12.2197 16.7197C12.079 16.8603 12 17.0511 12 17.25C12 17.4489 12.079 17.6397 12.2197 17.7803C12.3603 17.921 12.5511 18 12.75 18H17.25ZM0.75 18C0.551088 18 0.360322 17.921 0.21967 17.7803C0.0790178 17.6397 0 17.4489 0 17.25V12.75C0 12.5511 0.0790178 12.3603 0.21967 12.2197C0.360322 12.079 0.551088 12 0.75 12C0.948912 12 1.13968 12.079 1.28033 12.2197C1.42098 12.3603 1.5 12.5511 1.5 12.75V15.4395L5.469 11.469C5.60963 11.3282 5.80045 11.249 5.99947 11.2488C6.19849 11.2487 6.38942 11.3276 6.53025 11.4683C6.67108 11.6089 6.75028 11.7997 6.75042 11.9987C6.75056 12.1977 6.67163 12.3887 6.531 12.5295L2.5605 16.5H5.25C5.44891 16.5 5.63968 16.579 5.78033 16.7197C5.92098 16.8603 6 17.0511 6 17.25C6 17.4489 5.92098 17.6397 5.78033 17.7803C5.63968 17.921 5.44891 18 5.25 18H0.75Z" fill="#D62322"/>
</svg>
