<svg width="20" height="21" viewBox="0 0 20 21" fill="none" xmlns="http://www.w3.org/2000/svg">
<path d="M3 3H12V4.5H3V3ZM3 6H12V7.5H3V6ZM3 9H7.5V10.5H3V9ZM3 16.5H6V18H3V16.5ZM19.2803 12.9697L17.0303 10.7197C16.8896 10.5791 16.6989 10.5002 16.5 10.5002C16.3011 10.5002 16.1104 10.5791 15.9697 10.7197L9 17.6895V21H12.3105L19.2803 14.0303C19.4209 13.8896 19.4998 13.6989 19.4998 13.5C19.4998 13.3011 19.4209 13.1104 19.2803 12.9697ZM11.6895 19.5H10.5V18.3105L14.25 14.5605L15.4395 15.75L11.6895 19.5ZM16.5 14.6895L15.3105 13.5L16.5 12.3105L17.6895 13.5L16.5 14.6895Z" fill="#D62322"/>
<path d="M6 21H1.5C1.10218 21 0.720644 20.842 0.43934 20.5607C0.158035 20.2794 0 19.8978 0 19.5V1.5C0 1.10218 0.158035 0.720644 0.43934 0.43934C0.720644 0.158035 1.10218 0 1.5 0H13.5C13.8978 0 14.2794 0.158035 14.5607 0.43934C14.842 0.720644 15 1.10218 15 1.5V9H13.5V1.5H1.5V19.5H6V21Z" fill="#D62322"/>
</svg>
