<svg width="24" height="20" viewBox="0 0 24 20" fill="none" xmlns="http://www.w3.org/2000/svg">
<path d="M24 19.2H22.272C22.0999 19.211 21.9296 19.1599 21.792 19.056C21.671 18.9564 21.5763 18.8287 21.516 18.684L20.4 15.6H14.4L13.2 18.648C13.1415 18.7871 13.0511 18.9104 12.936 19.008C12.8018 19.1205 12.6311 19.1803 12.456 19.176H10.8L16.26 5.412H18.528L24 19.2ZM19.764 14.028L17.868 9C17.6852 8.51282 17.529 8.01609 17.4 7.512C17.328 7.808 17.252 8.084 17.172 8.34L16.944 9.012L15.048 14.04L19.764 14.028ZM12.204 12.132C10.976 11.711 9.80343 11.1429 8.712 10.44C10.3939 8.63353 11.5587 6.40769 12.084 3.996H14.4V2.4H8.772C8.70878 2.17036 8.62856 1.94574 8.532 1.728C8.244 0.948 7.92 0 7.92 0L6.156 0.6C6.156 0.6 6.636 1.668 6.876 2.4H0V3.996H2.58C3.10584 6.41759 4.28921 8.6473 6 10.44C4.14584 11.592 2.12067 12.4426 0 12.96C0.448 13.616 0.796 14.168 1.044 14.616C3.24915 13.8764 5.3534 12.8646 7.308 11.604C8.63558 12.4913 10.0712 13.2051 11.58 13.728L12.204 12.132ZM4.356 3.996H10.248C9.86595 6.0452 8.83525 7.9173 7.308 9.336C5.83659 7.87265 4.81262 6.02034 4.356 3.996Z" fill="#D62322"/>
</svg>
