<svg width="24" height="24" viewBox="0 0 24 24" fill="none" xmlns="http://www.w3.org/2000/svg">
<path fill-rule="evenodd" clip-rule="evenodd" d="M12.702 2.19561C12.2494 2.02594 11.7506 2.02594 11.298 2.19561L4.298 4.82061C3.91669 4.96354 3.5881 5.21946 3.35615 5.55416C3.1242 5.88886 2.99995 6.28639 3 6.69361V12.0566C2.99996 13.728 3.46537 15.3665 4.34407 16.7883C5.22277 18.2101 6.48004 19.3591 7.975 20.1066L11.329 21.7836C11.5373 21.8878 11.7671 21.9421 12 21.9421C12.2329 21.9421 12.4627 21.8878 12.671 21.7836L16.025 20.1066C17.52 19.3591 18.7772 18.2101 19.6559 16.7883C20.5346 15.3665 21 13.728 21 12.0566V6.69361C21.0001 6.28639 20.8758 5.88886 20.6438 5.55416C20.4119 5.21946 20.0833 4.96354 19.702 4.82061L12.702 2.19561ZM11 4.44361L5 6.69361V12.0566C5.00023 13.3565 5.36239 14.6306 6.04592 15.7362C6.72944 16.8419 7.70732 17.7354 8.87 18.3166L11 19.3836V4.44361ZM13 19.3836L15.13 18.3176C16.2928 17.7363 17.2708 16.8427 17.9543 15.7368C18.6379 14.631 19 13.3566 19 12.0566V6.69361L13 4.44361V19.3836Z" fill="#D62322"/>
</svg>
