<svg width="23" height="20" viewBox="0 0 23 20" fill="none" xmlns="http://www.w3.org/2000/svg">
<path d="M16.2787 18.8499C17.6989 18.8499 18.8501 17.6987 18.8501 16.2785C18.8501 14.8584 17.6989 13.7071 16.2787 13.7071C14.8585 13.7071 13.7073 14.8584 13.7073 16.2785C13.7073 17.6987 14.8585 18.8499 16.2787 18.8499Z" stroke="#D62322" stroke-width="1.7"/>
<path d="M7.2787 18.8499C8.69886 18.8499 9.85013 17.6987 9.85013 16.2785C9.85013 14.8584 8.69886 13.7071 7.2787 13.7071C5.85854 13.7071 4.70728 14.8584 4.70728 16.2785C4.70728 17.6987 5.85854 18.8499 7.2787 18.8499Z" stroke="#D62322" stroke-width="1.7"/>
<path d="M2.13581 9.84998H9.8501V0.849976M21.4215 8.56426V6.60997C21.4214 6.41738 21.378 6.22727 21.2946 6.05369C21.2111 5.88011 21.0897 5.72749 20.9394 5.60712L14.993 0.849976H9.8501V3.4214H0.850098V13.7071C0.850098 14.3891 1.12102 15.0432 1.60325 15.5254C2.08549 16.0076 2.73954 16.2785 3.42153 16.2785H4.70724M21.4215 8.56426H16.2787V3.4214H17.5644M21.4215 8.56426V13.7071C21.4215 14.3891 21.1506 15.0432 20.6684 15.5254C20.1861 16.0076 19.5321 16.2785 18.8501 16.2785M13.7072 16.2785H9.8501" stroke="#D62322" stroke-width="1.7" stroke-linecap="round" stroke-linejoin="round"/>
</svg>
