<svg width="24" height="24" viewBox="0 0 24 24" fill="none" xmlns="http://www.w3.org/2000/svg">
<path d="M11.8928 19.6072V23.0358M16.1785 17.893V21.3215M7.60704 17.893V21.3215M13.7168 5.70268C13.6191 5.42345 13.4369 5.1816 13.1954 5.01077C12.9539 4.83995 12.6651 4.74863 12.3693 4.74953H11.2636C10.95 4.75065 10.6478 4.86725 10.4148 5.07706C10.1817 5.28688 10.0341 5.5752 10.0002 5.88695C9.96627 6.19869 10.0484 6.51201 10.2308 6.76706C10.4133 7.0221 10.6833 7.20098 10.9893 7.26953L12.6745 7.63982C13.0176 7.71633 13.3205 7.91659 13.5253 8.20233C13.7301 8.48807 13.8225 8.83926 13.7847 9.18879C13.747 9.53832 13.5818 9.86169 13.3207 10.0971C13.0596 10.3325 12.7209 10.4635 12.3693 10.465H11.4162C11.1204 10.4659 10.8316 10.3745 10.5901 10.2037C10.3487 10.0329 10.1664 9.79104 10.0688 9.51182M11.8928 4.74953V3.32153M11.8928 11.893V10.465M4.60704 8.03582C4.49337 8.03582 4.38437 7.99067 4.30399 7.91029C4.22362 7.82992 4.17847 7.72091 4.17847 7.60725C4.17847 7.49358 4.22362 7.38457 4.30399 7.3042C4.38437 7.22383 4.49337 7.17868 4.60704 7.17868C4.7207 7.17868 4.82971 7.22383 4.91008 7.3042C4.99046 7.38457 5.03561 7.49358 5.03561 7.60725C5.03561 7.72091 4.99046 7.82992 4.91008 7.91029C4.82971 7.99067 4.7207 8.03582 4.60704 8.03582ZM19.1785 8.03582C19.0648 8.03582 18.9558 7.99067 18.8754 7.91029C18.795 7.82992 18.7499 7.72091 18.7499 7.60725C18.7499 7.49358 18.795 7.38457 18.8754 7.3042C18.9558 7.22383 19.0648 7.17868 19.1785 7.17868C19.2921 7.17868 19.4011 7.22383 19.4815 7.3042C19.5619 7.38457 19.607 7.49358 19.607 7.60725C19.607 7.72091 19.5619 7.82992 19.4815 7.91029C19.4011 7.99067 19.2921 8.03582 19.1785 8.03582Z" stroke="#D62322" stroke-width="1.5" stroke-linecap="round" stroke-linejoin="round"/>
<path d="M21.3214 0.75H2.46429C2.00963 0.75 1.57359 0.930612 1.2521 1.2521C0.930612 1.57359 0.75 2.00963 0.75 2.46429V12.75C0.75 13.2047 0.930612 13.6407 1.2521 13.9622C1.57359 14.2837 2.00963 14.4643 2.46429 14.4643H21.3214C21.7761 14.4643 22.2121 14.2837 22.5336 13.9622C22.8551 13.6407 23.0357 13.2047 23.0357 12.75V2.46429C23.0357 2.00963 22.8551 1.57359 22.5336 1.2521C22.2121 0.930612 21.7761 0.75 21.3214 0.75Z" stroke="#D62322" stroke-width="1.5" stroke-linecap="round" stroke-linejoin="round"/>
</svg>
