<svg width="22" height="20" viewBox="0 0 22 20" fill="none" xmlns="http://www.w3.org/2000/svg">
<path d="M12.25 12.75H4.75C2.864 12.75 1.922 12.75 1.336 12.164C0.75 11.578 0.75 10.636 0.75 8.75V4.75C0.75 2.864 0.75 1.922 1.336 1.336C1.922 0.75 2.864 0.75 4.75 0.75H16.75C18.636 0.75 19.578 0.75 20.164 1.336C20.75 1.922 20.75 2.864 20.75 4.75V9.75C20.75 10.682 20.75 11.148 20.598 11.515C20.4975 11.7578 20.3501 11.9784 20.1643 12.1643C19.9784 12.3501 19.7578 12.4975 19.515 12.598C19.148 12.75 18.682 12.75 17.75 12.75" stroke="#D62322" stroke-width="1.5" stroke-linecap="round" stroke-linejoin="round"/>
<path d="M11.75 14.75C11.75 13.9544 12.0661 13.1913 12.6287 12.6287C13.1913 12.0661 13.9544 11.75 14.75 11.75V9.75C14.75 8.95435 15.0661 8.19129 15.6287 7.62868C16.1913 7.06607 16.9544 6.75 17.75 6.75V12.25C17.75 14.585 17.75 15.752 17.278 16.636C16.9051 17.3337 16.3337 17.9051 15.636 18.278C14.752 18.75 13.585 18.75 11.25 18.75H10.75C8.886 18.75 7.954 18.75 7.22 18.445C6.73455 18.2442 6.2934 17.9497 5.92175 17.5784C5.55011 17.2071 5.25524 16.7663 5.054 16.281C4.75 15.546 4.75 14.614 4.75 12.75M12.75 6.75C12.75 7.28043 12.5393 7.78914 12.1642 8.16421C11.7891 8.53929 11.2804 8.75 10.75 8.75C10.2196 8.75 9.71086 8.53929 9.33579 8.16421C8.96071 7.78914 8.75 7.28043 8.75 6.75C8.75 6.21957 8.96071 5.71086 9.33579 5.33579C9.71086 4.96071 10.2196 4.75 10.75 4.75C11.2804 4.75 11.7891 4.96071 12.1642 5.33579C12.5393 5.71086 12.75 6.21957 12.75 6.75Z" stroke="#D62322" stroke-width="1.5" stroke-linecap="round" stroke-linejoin="round"/>
</svg>
