<svg width="24" height="21" viewBox="0 0 24 21" fill="none" xmlns="http://www.w3.org/2000/svg">
<path d="M3.75 18V10.371L1.0605 13.0605L0 12L4.5 7.5L9 12L7.9395 13.0605L5.25 10.371V18H14.25V19.5H5.25C4.85218 19.5 4.47064 19.342 4.18934 19.0607C3.90804 18.7794 3.75 18.3978 3.75 18ZM23.25 12H21V10.5H19.5V12H18.75C18.3522 12 17.9706 12.158 17.6893 12.4393C17.408 12.7206 17.25 13.1022 17.25 13.5V15C17.25 15.3978 17.408 15.7794 17.6893 16.0607C17.9706 16.342 18.3522 16.5 18.75 16.5H21.75V18H17.25V19.5H19.5V21H21V19.5H21.75C22.1478 19.5 22.5294 19.342 22.8107 19.0607C23.092 18.7794 23.25 18.3978 23.25 18V16.5C23.25 16.1022 23.092 15.7206 22.8107 15.4393C22.5294 15.158 22.1478 15 21.75 15H18.75V13.5H23.25V12ZM21 7.5V3C21 2.60218 20.842 2.22064 20.5607 1.93934C20.2794 1.65804 19.8978 1.5 19.5 1.5H9V3H19.5V7.5M1.5 3H5.25V4.5H1.5V3ZM1.5 0H7.5V1.5H1.5V0Z" fill="#D62322"/>
</svg>
