<svg width="20" height="20" viewBox="0 0 20 20" fill="none" xmlns="http://www.w3.org/2000/svg">
<path d="M10 10C10.8653 10 11.7112 9.74341 12.4306 9.26268C13.1501 8.78195 13.7108 8.09867 14.042 7.29924C14.3731 6.49982 14.4597 5.62015 14.2909 4.77148C14.1221 3.92281 13.7054 3.14326 13.0936 2.53141C12.4817 1.91956 11.7022 1.50288 10.8535 1.33407C10.0049 1.16526 9.12519 1.2519 8.32576 1.58303C7.52633 1.91416 6.84305 2.47492 6.36232 3.19438C5.88159 3.91385 5.625 4.75971 5.625 5.625C5.625 6.78532 6.08594 7.89812 6.90641 8.71859C7.72688 9.53907 8.83968 10 10 10ZM10 11.25C7.28828 11.25 1.875 12.925 1.875 16.25V18.75H18.125V16.25C18.125 12.925 12.7117 11.25 10 11.25Z" fill="#F2F2F7"/>
</svg>
