<svg width="24" height="24" viewBox="0 0 24 24" fill="none" xmlns="http://www.w3.org/2000/svg">
<path d="M12 2C14.5 2 16.817 2.554 18.709 3.495C19.637 3.957 20.1 4.188 20.55 4.914C21 5.64 21 6.342 21 7.748V11.237C21 16.92 16.457 20.08 13.827 21.434C13.093 21.811 12.727 22 12 22M12 2C9.5 2 7.184 2.554 5.291 3.495C4.363 3.957 3.899 4.188 3.45 4.914C3.001 5.64 3 6.342 3 7.748V11.238C3 16.921 7.542 20.08 10.173 21.434C10.907 21.811 11.273 22 12 22M12 2V22M21 11H3" stroke="#D62322" stroke-width="2" stroke-linecap="round" stroke-linejoin="round"/>
</svg>
