<svg width="24" height="24" viewBox="0 0 24 24" fill="none" xmlns="http://www.w3.org/2000/svg">
<path d="M9.5 3H14.5C14.8978 3 15.2794 3.15804 15.5607 3.43934C15.842 3.72064 16 4.10218 16 4.5C16 5.42826 15.6313 6.3185 14.9749 6.97487C14.3185 7.63125 13.4283 8 12.5 8H11.5C10.5717 8 9.6815 7.63125 9.02513 6.97487C8.36875 6.3185 8 5.42826 8 4.5C8 4.10218 8.15804 3.72064 8.43934 3.43934C8.72064 3.15804 9.10218 3 9.5 3Z" stroke="#D62322" stroke-width="2" stroke-linecap="round" stroke-linejoin="round"/>
<path d="M11.5 21.0012H8C6.93913 21.0012 5.92172 20.5797 5.17157 19.8296C4.42143 19.0794 4 18.062 4 17.0012V16.0012C3.99976 14.3254 4.52574 12.6919 5.50373 11.3311C6.48172 9.97035 7.86233 8.95104 9.45072 8.41705C11.0391 7.88305 12.7551 7.86133 14.3565 8.35494C15.9579 8.84856 17.3639 9.83259 18.376 11.1682" stroke="#D62322" stroke-width="2" stroke-linecap="round" stroke-linejoin="round"/>
<path d="M18 22.0004L21.35 18.7164C21.5554 18.5171 21.7188 18.2786 21.8306 18.015C21.9423 17.7515 22.0001 17.4682 22.0006 17.182C22.0011 16.8957 21.9442 16.6123 21.8333 16.3484C21.7224 16.0844 21.5598 15.8454 21.355 15.6454C20.9374 15.2363 20.3763 15.0066 19.7917 15.0055C19.2071 15.0044 18.6452 15.2319 18.226 15.6394L18.002 15.8594L17.779 15.6394C17.3614 15.2306 16.8006 15.0011 16.2162 15C15.6318 14.9989 15.0701 15.2262 14.651 15.6334C14.4455 15.8327 14.282 16.0711 14.1702 16.3346C14.0583 16.5981 14.0004 16.8814 13.9999 17.1676C13.9993 17.4539 14.0561 17.7374 14.1669 18.0013C14.2777 18.2653 14.4403 18.5043 14.645 18.7044L18 22.0004Z" stroke="#D62322" stroke-width="2" stroke-linecap="round" stroke-linejoin="round"/>
</svg>
