<svg width="23" height="20" viewBox="0 0 23 20" fill="none" xmlns="http://www.w3.org/2000/svg">
<path d="M16.2786 18.8499C17.6987 18.8499 18.85 17.6986 18.85 16.2785C18.85 14.8583 17.6987 13.707 16.2786 13.707C14.8584 13.707 13.7072 14.8583 13.7072 16.2785C13.7072 17.6986 14.8584 18.8499 16.2786 18.8499Z" stroke="#FDFDFD" stroke-width="1.7"/>
<path d="M7.27858 18.8499C8.69874 18.8499 9.85001 17.6986 9.85001 16.2785C9.85001 14.8583 8.69874 13.707 7.27858 13.707C5.85842 13.707 4.70715 14.8583 4.70715 16.2785C4.70715 17.6986 5.85842 18.8499 7.27858 18.8499Z" stroke="#FDFDFD" stroke-width="1.7"/>
<path d="M2.13569 9.85156H9.84998V0.851562M21.4214 8.56585V6.61156C21.4213 6.41896 21.3779 6.22885 21.2944 6.05527C21.211 5.88169 21.0896 5.72908 20.9393 5.60871L14.9928 0.851562H9.84998V3.42299H0.849976V13.7087C0.849976 14.3907 1.12089 15.0447 1.60313 15.527C2.08537 16.0092 2.73942 16.2801 3.4214 16.2801H4.70712M21.4214 8.56585H16.2785V3.42299H17.5643M21.4214 8.56585V13.7087C21.4214 14.3907 21.1505 15.0447 20.6682 15.527C20.186 16.0092 19.532 16.2801 18.85 16.2801M13.7071 16.2801H9.84998" stroke="#FDFDFD" stroke-width="1.7" stroke-linecap="round" stroke-linejoin="round"/>
</svg>
