<svg width="16" height="16" viewBox="0 0 16 16" fill="none" xmlns="http://www.w3.org/2000/svg">
<path d="M12 13.0826C12.46 12.9526 12.8213 12.7553 13.1213 12.4553C14 11.5766 14 10.162 14 7.33398C14 4.50598 14 3.09132 13.1213 2.21265C12.2427 1.33398 10.828 1.33398 8 1.33398C5.172 1.33398 3.75733 1.33398 2.87867 2.21265C2 3.09132 2 4.50598 2 7.33398C2 10.162 2 11.5766 2.87867 12.4553C3.17867 12.7553 3.54067 12.9526 4 13.0826M2.33333 4.66732H13.6667" stroke="#D62322" stroke-linecap="round" stroke-linejoin="round"/>
<path d="M8 7.33398C8.26264 7.33398 8.52272 7.38572 8.76537 7.48623C9.00802 7.58673 9.2285 7.73405 9.41421 7.91977C9.59993 8.10549 9.74725 8.32597 9.84776 8.56862C9.94827 8.81127 10 9.07134 10 9.33398C10 9.59663 9.94827 9.8567 9.84776 10.0994C9.74725 10.342 9.59993 10.5625 9.41421 10.7482C9.2285 10.9339 9.00802 11.0812 8.76537 11.1817C8.52272 11.2823 8.26264 11.334 8 11.334C7.46957 11.334 6.96086 11.1233 6.58579 10.7482C6.21071 10.3731 6 9.86442 6 9.33398C6 8.80355 6.21071 8.29484 6.58579 7.91977C6.96086 7.5447 7.46957 7.33398 8 7.33398Z" stroke="#D62322" stroke-linecap="round" stroke-linejoin="round"/>
<path d="M9.33341 11V14.6667L8.00008 13.6667L6.66675 14.6667V11" stroke="#D62322" stroke-linecap="round" stroke-linejoin="round"/>
</svg>
