<svg width="16" height="16" viewBox="0 0 16 16" fill="none" xmlns="http://www.w3.org/2000/svg">
<g clip-path="url(#clip0_908_39356)">
<path d="M10.6666 11.334L10.8066 11.474C11.0526 11.72 11.1752 11.8427 11.3239 11.834C11.4726 11.826 11.5812 11.6907 11.7986 11.4187L12.6666 10.334M10.7806 5.27398V6.33398M10.7806 5.27398C10.7806 4.77132 11.2032 4.36398 11.7239 4.36398C12.2439 4.36398 12.6666 4.77132 12.6666 5.27332V6.33398M10.7806 5.27398V3.45465C10.7806 2.95265 10.3586 2.54532 9.83789 2.54532C9.31722 2.54532 8.89455 2.95198 8.89455 3.45465M8.89455 3.45465V6.33398M8.89455 3.45465V2.24332C8.89455 1.74065 8.47322 1.33398 7.95189 1.33398C7.43055 1.33398 7.00922 1.74065 7.00922 2.24332V4.06065M7.00922 4.06065C7.00922 3.55865 6.58655 3.15132 6.06589 3.15132C5.54589 3.15132 5.12322 3.55798 5.12322 4.06065V8.42532C5.12322 8.70265 4.76789 8.83398 4.57455 8.62865L3.04789 7.00265C2.9181 6.85224 2.74414 6.74663 2.55081 6.7009C2.35747 6.65517 2.15464 6.67165 1.97122 6.74798C1.29922 7.02598 1.14122 8.00665 1.57789 8.57198C2.32589 9.53998 3.09122 10.8607 3.70989 12.0253C4.54989 13.6073 6.20655 14.6673 8.04789 14.6673M7.00922 4.06065V6.33398M8.66655 10.3033V10.5607C8.66655 11.362 8.66655 11.7627 8.76522 12.1293C8.8885 12.5841 9.12049 13.0021 9.44122 13.3473C9.70122 13.6287 10.0452 13.8473 10.7326 14.2853C11.0399 14.4813 11.1939 14.5793 11.3579 14.6253C11.5599 14.6813 11.7739 14.6813 11.9759 14.6253C12.1392 14.5793 12.2932 14.4813 12.6006 14.2853C13.2879 13.8473 13.6319 13.6287 13.8919 13.3473C14.2126 13.0021 14.4446 12.5841 14.5679 12.1293C14.6666 11.7627 14.6666 11.3627 14.6666 10.5607V10.3033C14.6666 9.80465 14.6666 9.55532 14.5719 9.34465C14.5125 9.21461 14.429 9.09699 14.3259 8.99798C14.1572 8.83798 13.9179 8.74998 13.4392 8.57465L12.4566 8.21465C12.0659 8.07198 11.8706 8.00065 11.6666 8.00065C11.4626 8.00065 11.2672 8.07198 10.8766 8.21532L9.89389 8.57532C9.41522 8.74998 9.17589 8.83732 9.00722 8.99798C8.90385 9.09693 8.82015 9.21456 8.76055 9.34465C8.66655 9.55532 8.66655 9.80465 8.66655 10.3033Z" stroke="#D62322" stroke-linecap="round" stroke-linejoin="round"/>
</g>
<defs>
<clipPath id="clip0_908_39356">
<rect width="16" height="16" fill="white"/>
</clipPath>
</defs>
</svg>
