<svg width="15" height="16" viewBox="0 0 15 16" fill="none" xmlns="http://www.w3.org/2000/svg">
<path d="M2.28516 2.28516H9.14287V3.42801H2.28516V2.28516ZM2.28516 4.57087H9.14287V5.71373H2.28516V4.57087ZM2.28516 6.85659H5.71401V7.99944H2.28516V6.85659ZM2.28516 12.5709H4.57106V13.7137H2.28516V12.5709ZM14.6902 9.88116L12.9758 8.16687C12.8686 8.05974 12.7233 7.99956 12.5717 7.99956C12.4202 7.99956 12.2749 8.05974 12.1677 8.16687L6.85697 13.4772V15.9994H9.37946L14.6902 10.6892C14.7973 10.582 14.8575 10.4367 14.8575 10.2852C14.8575 10.1336 14.7973 9.98831 14.6902 9.88116ZM8.90628 14.8566H7.99992V13.9503L10.8573 11.0932L11.7637 11.9994L8.90628 14.8566ZM12.5717 11.1914L11.6654 10.2852L12.5717 9.37887L13.4781 10.2852L12.5717 11.1914Z" fill="#D62322"/>
<path d="M4.57181 16H1.14295C0.839823 16 0.549108 15.8796 0.334763 15.6653C0.120418 15.4509 0 15.1602 0 14.8571V1.14286C0 0.839753 0.120418 0.549062 0.334763 0.334735C0.549108 0.120408 0.839823 0 1.14295 0H10.2866C10.5897 0 10.8804 0.120408 11.0948 0.334735C11.3091 0.549062 11.4295 0.839753 11.4295 1.14286V6.85714H10.2866V1.14286H1.14295V14.8571H4.57181V16Z" fill="#D62322"/>
</svg>
