<svg width="24" height="24" viewBox="0 0 24 24" fill="none" xmlns="http://www.w3.org/2000/svg">
<path d="M9.5 3H14.5C14.8978 3 15.2794 3.15804 15.5607 3.43934C15.842 3.72064 16 4.10218 16 4.5C16 5.42826 15.6313 6.3185 14.9749 6.97487C14.3185 7.63125 13.4283 8 12.5 8H11.5C10.5717 8 9.6815 7.63125 9.02513 6.97487C8.36875 6.3185 8 5.42826 8 4.5C8 4.10218 8.15804 3.72064 8.43934 3.43934C8.72064 3.15804 9.10218 3 9.5 3Z" stroke="#D62322" stroke-width="2" stroke-linecap="round" stroke-linejoin="round"/>
<path d="M11.5 20.9992H8C6.93913 20.9992 5.92172 20.5778 5.17157 19.8276C4.42143 19.0775 4 18.0601 4 16.9992V15.9992C3.99976 14.3235 4.52574 12.6899 5.50373 11.3292C6.48172 9.96839 7.86233 8.94909 9.45072 8.41509C11.0391 7.8811 12.7551 7.85937 14.3565 8.35299C15.9579 8.84661 17.3639 9.83064 18.376 11.1662" stroke="#D62322" stroke-width="2" stroke-linecap="round" stroke-linejoin="round"/>
<path d="M18.0001 22.0004L21.3501 18.7164C21.5556 18.5171 21.719 18.2786 21.8307 18.015C21.9425 17.7515 22.0003 17.4682 22.0007 17.182C22.0012 16.8957 21.9443 16.6123 21.8334 16.3484C21.7225 16.0844 21.5599 15.8454 21.3551 15.6454C20.9375 15.2363 20.3765 15.0066 19.7918 15.0055C19.2072 15.0044 18.6453 15.2319 18.2261 15.6394L18.0021 15.8594L17.7791 15.6394C17.3615 15.2306 16.8007 15.0011 16.2163 15C15.6319 14.9989 15.0703 15.2262 14.6511 15.6334C14.4456 15.8327 14.2821 16.0711 14.1703 16.3346C14.0585 16.5981 14.0006 16.8814 14 17.1676C13.9994 17.4539 14.0562 17.7374 14.167 18.0013C14.2778 18.2653 14.4404 18.5043 14.6451 18.7044L18.0001 22.0004Z" stroke="#D62322" stroke-width="2" stroke-linecap="round" stroke-linejoin="round"/>
</svg>
