<svg width="24" height="24" viewBox="0 0 24 24" fill="none" xmlns="http://www.w3.org/2000/svg">
<path d="M22 7C22 8.32608 21.4732 9.59785 20.5355 10.5355C19.5979 11.4732 18.3261 12 17 12C15.6739 12 14.4021 11.4732 13.4645 10.5355C12.5268 9.59785 12 8.32608 12 7C12 5.67392 12.5268 4.40215 13.4645 3.46447C14.4021 2.52678 15.6739 2 17 2C18.3261 2 19.5979 2.52678 20.5355 3.46447C21.4732 4.40215 22 5.67392 22 7Z" stroke="#D62322" stroke-width="2"/>
<path d="M17 4.5V7H19.5M6.5 18H11.5L17.625 16.115C18.0151 15.9954 18.4278 15.9689 18.8299 16.0377C19.2321 16.1065 19.6126 16.2686 19.9407 16.511C20.2689 16.7534 20.5357 17.0694 20.7197 17.4336C20.9036 17.7978 20.9996 18.2 21 18.608V19L11.5 22H1M11.5 18V15L5.21 14.032C4.78205 13.9661 4.3449 13.9935 3.92854 14.1124C3.51218 14.2313 3.12645 14.4388 2.79781 14.7207C2.46916 15.0026 2.20536 15.3523 2.0245 15.7457C1.84364 16.1391 1.75 16.567 1.75 17" stroke="#D62322" stroke-width="2"/>
</svg>
