<svg width="24" height="24" viewBox="0 0 24 24" fill="none" xmlns="http://www.w3.org/2000/svg">
<g clip-path="url(#clip0_908_39715)">
<path d="M1.85495 13.0723C1.59381 12.7687 1.4502 12.3815 1.4502 11.9811C1.4502 11.5807 1.59381 11.1935 1.85495 10.89C2.24123 10.4408 2.62866 9.99911 3.01723 9.56483C2.89952 9.0014 2.78638 8.43226 2.6778 7.8574C2.60314 7.4639 2.6721 7.05668 2.87216 6.70971C3.07223 6.36274 3.39013 6.09905 3.76809 5.96654C4.32809 5.76997 4.88466 5.58083 5.4378 5.39911C5.61723 4.85169 5.80409 4.30197 5.99838 3.74997C6.1308 3.37269 6.39396 3.05531 6.74019 2.85531C7.08642 2.65531 7.49283 2.58591 7.8858 2.65969C8.45723 2.76711 9.02409 2.87911 9.58638 2.99569C10.0138 2.61397 10.4481 2.2334 10.8892 1.85397C11.1928 1.59283 11.5799 1.44922 11.9804 1.44922C12.3808 1.44922 12.768 1.59283 13.0715 1.85397C13.5172 2.23569 13.9538 2.61854 14.3812 3.00254C14.9527 2.88254 15.5292 2.76826 16.1109 2.65969C16.5042 2.58546 16.911 2.65464 17.2576 2.85468C17.6042 3.05471 17.8676 3.37235 18.0001 3.74997C18.1944 4.30311 18.3812 4.85283 18.5607 5.39911C19.1138 5.58197 19.6704 5.77111 20.2304 5.96654C21.0104 6.24083 21.4732 7.04311 21.3207 7.8574C21.2109 8.44254 21.0961 9.0214 20.9761 9.59397C21.3647 10.0294 21.7532 10.4734 22.1418 10.926C22.4032 11.2293 22.5471 11.6164 22.5474 12.0168C22.5477 12.4172 22.4044 12.8045 22.1435 13.1083C21.7584 13.5574 21.3709 13.9991 20.9812 14.4334C21.1001 14.9968 21.2132 15.5665 21.3207 16.1425C21.3949 16.5358 21.3257 16.9426 21.1257 17.2892C20.9256 17.6358 20.608 17.8992 20.2304 18.0317C19.6704 18.2283 19.1138 18.4174 18.5607 18.5991C18.3801 19.1477 18.1932 19.6974 18.0001 20.2483C17.8679 20.6262 17.6047 20.9442 17.258 21.1446C16.9114 21.345 16.5044 21.4144 16.1109 21.3403C15.543 21.2331 14.9761 21.1205 14.4104 21.0025C13.9829 21.3854 13.5487 21.766 13.1075 22.1443C12.804 22.4054 12.4168 22.549 12.0164 22.549C11.6159 22.549 11.2288 22.4054 10.9252 22.1443C10.4795 21.7625 10.0429 21.3797 9.61552 20.9957C9.04409 21.1157 8.46752 21.23 7.8858 21.3385C7.49257 21.4128 7.08575 21.3436 6.73915 21.1436C6.39255 20.9435 6.12913 20.6259 5.99666 20.2483C5.80454 19.7003 5.61767 19.1506 5.43609 18.5991C4.87767 18.4161 4.32107 18.2275 3.76638 18.0334C3.38841 17.9009 3.07052 17.6372 2.87045 17.2902C2.67038 16.9433 2.60142 16.536 2.67609 16.1425C2.7858 15.5563 2.90066 14.9768 3.02066 14.4043C2.62777 13.9641 2.23918 13.52 1.85495 13.0723Z" stroke="#D62322" stroke-width="2" stroke-linejoin="round"/>
<path d="M7.92017 13.264L10.6493 16.0789C11.935 12.388 13.0047 10.768 15.4287 8.57031" stroke="#D62322" stroke-width="2" stroke-linecap="round" stroke-linejoin="round"/>
</g>
<defs>
<clipPath id="clip0_908_39715">
<rect width="24" height="24" fill="white"/>
</clipPath>
</defs>
</svg>
