<svg width="24" height="24" viewBox="0 0 24 24" fill="none" xmlns="http://www.w3.org/2000/svg">
<path d="M18 7.26172C20.412 8.60772 22 10.8987 22 13.4987C22 15.5577 21.005 17.4227 19.393 18.7787C19.2723 18.8773 19.1746 19.001 19.1067 19.1413C19.0389 19.2815 19.0024 19.4349 19 19.5907V21.9997H17L16.206 20.8677C16.1447 20.7828 16.0592 20.7184 15.9608 20.6829C15.8623 20.6474 15.7553 20.6425 15.654 20.6687C13.9128 21.1145 12.0872 21.1145 10.346 20.6687C10.2447 20.6425 10.1377 20.6474 10.0392 20.6829C9.94076 20.7184 9.85528 20.7828 9.794 20.8677L9 21.9987H7V19.6147C7 19.4528 6.96068 19.2933 6.88543 19.15C6.81018 19.0066 6.70125 18.8837 6.568 18.7917C5.493 18.0497 2 16.5997 2 15.0577V13.4987C2 12.9077 2.448 12.4277 3 12.4277C3.607 12.4277 4.102 12.1917 4.302 11.5647C4.872 9.78272 6.208 8.26172 8 7.26172" stroke="#D62322" stroke-width="2" stroke-linecap="round" stroke-linejoin="round"/>
<path d="M13.5 2L11 6H15L12.5 10M8.125 12H8M8.25 12C8.25 12.0663 8.22366 12.1299 8.17678 12.1768C8.12989 12.2237 8.0663 12.25 8 12.25C7.9337 12.25 7.87011 12.2237 7.82322 12.1768C7.77634 12.1299 7.75 12.0663 7.75 12C7.75 11.9337 7.77634 11.8701 7.82322 11.8232C7.87011 11.7763 7.9337 11.75 8 11.75C8.0663 11.75 8.12989 11.7763 8.17678 11.8232C8.22366 11.8701 8.25 11.9337 8.25 12Z" stroke="#D62322" stroke-width="2" stroke-linecap="round" stroke-linejoin="round"/>
</svg>
