<svg width="18" height="20" viewBox="0 0 18 20" fill="none" xmlns="http://www.w3.org/2000/svg">
<path d="M14.25 0C14.1513 2.09021e-05 14.0536 0.0195082 13.9625 0.0573454C13.8714 0.0951827 13.7887 0.150626 13.719 0.2205L12.441 1.5H6.75C6.55109 1.5 6.36032 1.57902 6.21967 1.71967C6.07902 1.86032 6 2.05109 6 2.25C6 2.44891 6.07902 2.63968 6.21967 2.78033C6.36032 2.92098 6.55109 3 6.75 3H7.5V5.25C7.5 5.44891 7.57902 5.63968 7.71967 5.78033C7.86032 5.92098 8.05109 6 8.25 6C8.44891 6 8.63968 5.92098 8.78033 5.78033C8.92098 5.63968 9 5.44891 9 5.25V3H13.5V18.75C13.5 19.1655 13.8345 19.5 14.25 19.5H15.75C16.1655 19.5 16.5 19.1655 16.5 18.75V3H17.25C17.4489 3 17.6397 2.92098 17.7803 2.78033C17.921 2.63968 18 2.44891 18 2.25V0.75C18 0.551088 17.921 0.360322 17.7803 0.21967C17.6397 0.0790176 17.4489 0 17.25 0H14.25ZM0.75 3C0.551088 3 0.360322 3.07902 0.21967 3.21967C0.0790178 3.36032 0 3.55109 0 3.75V18.75C0 18.9489 0.0790178 19.1397 0.21967 19.2803C0.360322 19.421 0.551088 19.5 0.75 19.5H9.75C9.94891 19.5 10.1397 19.421 10.2803 19.2803C10.421 19.1397 10.5 18.9489 10.5 18.75V8.25C10.5 8.05109 10.421 7.86032 10.2803 7.71967C10.1397 7.57902 9.94891 7.5 9.75 7.5C9.55109 7.5 9.36032 7.57902 9.21967 7.71967C9.07902 7.86032 9 8.05109 9 8.25V9H6V5.25C6 5.05109 5.92098 4.86032 5.78033 4.71967C5.63968 4.57902 5.44891 4.5 5.25 4.5H1.5V3.75C1.5 3.55109 1.42098 3.36032 1.28033 3.21967C1.13968 3.07902 0.948912 3 0.75 3ZM1.5 6H4.5V9H1.5V6ZM1.5 10.5H4.5V13.5H1.5V10.5ZM6 10.5H9V13.5H6V10.5ZM1.5 15H4.5V18H1.5V15ZM6 15H9V18H6V15Z" fill="#D62322"/>
</svg>
