<svg width="20" height="21" viewBox="0 0 20 21" fill="none" xmlns="http://www.w3.org/2000/svg">
<path d="M18.0045 8.15167V7.98167C18.0105 6.28061 17.4708 4.62246 16.4646 3.25089C15.4584 1.87931 14.0389 0.866632 12.4145 0.361672H12.3545C11.5156 0.105576 10.6414 -0.0159319 9.76446 0.00167191C7.67629 0.116264 5.71056 1.02342 4.26846 2.538C2.82635 4.05257 2.0166 6.06039 2.00446 8.15167C1.41847 8.35781 0.910921 8.74077 0.551876 9.24769C0.192832 9.75461 0 10.3605 0 10.9817C0 11.6029 0.192832 12.2087 0.551876 12.7157C0.910921 13.2226 1.41847 13.6055 2.00446 13.8117C2.21043 15.7865 3.14338 17.6141 4.62194 18.9392C6.10049 20.2644 8.019 20.9924 10.0045 20.9817H10.2345C12.1544 20.8887 13.9794 20.1185 15.3853 18.8077C16.7913 17.497 17.6874 15.7304 17.9145 13.8217C18.5073 13.6272 19.0248 13.2527 19.3949 12.7503C19.7649 12.2479 19.9691 11.6426 19.979 11.0187C19.9889 10.3948 19.8041 9.78339 19.4501 9.2695C19.0962 8.75562 18.5909 8.36487 18.0045 8.15167ZM10.1845 18.9817C8.73686 19.0235 7.32296 18.5404 6.20366 17.6215C5.08437 16.7025 4.33522 15.4097 4.09446 13.9817H15.8645C15.6204 15.3336 14.9264 16.5632 13.8953 17.4709C12.8641 18.3786 11.5564 18.911 10.1845 18.9817ZM17.0045 11.9817H3.00446C2.73924 11.9817 2.48489 11.8763 2.29735 11.6888C2.10982 11.5012 2.00446 11.2469 2.00446 10.9817C2.00446 10.7165 2.10982 10.4621 2.29735 10.2746C2.48489 10.087 2.73924 9.98167 3.00446 9.98167H5.00446C5.26968 9.98167 5.52403 9.87632 5.71157 9.68878C5.8991 9.50124 6.00446 9.24689 6.00446 8.98167C6.00446 8.71646 5.8991 8.4621 5.71157 8.27457C5.52403 8.08703 5.26968 7.98167 5.00446 7.98167H4.00446C4.04922 6.94428 4.34572 5.93336 4.86838 5.03614C5.39103 4.13892 6.12415 3.38233 7.00446 2.83167V5.98167C7.00446 6.24689 7.10982 6.50124 7.29735 6.68878C7.48489 6.87631 7.73924 6.98167 8.00446 6.98167C8.26968 6.98167 8.52403 6.87631 8.71157 6.68878C8.8991 6.50124 9.00446 6.24689 9.00446 5.98167V2.07167C9.27579 2.02558 9.54959 1.99553 9.82446 1.98167H10.0045C10.3395 1.9877 10.6737 2.01777 11.0045 2.07167V5.98167C11.0045 6.24689 11.1098 6.50124 11.2974 6.68878C11.4849 6.87631 11.7392 6.98167 12.0045 6.98167C12.2697 6.98167 12.524 6.87631 12.7116 6.68878C12.8991 6.50124 13.0045 6.24689 13.0045 5.98167V2.80167C13.4284 3.04764 13.8241 3.33938 14.1845 3.67167C14.761 4.23157 15.2192 4.90159 15.5319 5.64197C15.8445 6.38235 16.0052 7.17799 16.0045 7.98167H15.0045C14.7392 7.98167 14.4849 8.08703 14.2974 8.27457C14.1098 8.4621 14.0045 8.71646 14.0045 8.98167C14.0045 9.24689 14.1098 9.50124 14.2974 9.68878C14.4849 9.87632 14.7392 9.98167 15.0045 9.98167H17.0045C17.2697 9.98167 17.524 10.087 17.7116 10.2746C17.8991 10.4621 18.0045 10.7165 18.0045 10.9817C18.0045 11.2469 17.8991 11.5012 17.7116 11.6888C17.524 11.8763 17.2697 11.9817 17.0045 11.9817Z" fill="#D62322"/>
</svg>
