<svg width="20" height="20" viewBox="0 0 20 20" fill="none" xmlns="http://www.w3.org/2000/svg">
<path fill-rule="evenodd" clip-rule="evenodd" d="M18.0709 9.99998V11.9998H13.414L19.6057 18.1915L18.1915 19.6057L11.9999 13.4141L12.0001 18.0706H10.0004L9.99998 9.99998H18.0709ZM8.00006 0C12.4183 0 16 1.79086 16 3.99998V7.99997H14V6.6458L14.0179 6.63553L13.9854 6.65409C12.5198 7.4797 10.3815 8.00001 8.00001 8.00001C5.59519 8.00001 3.43819 7.46944 1.9717 6.62972L1.99964 6.64561L1.99931 9H2.00002C2.00002 9.17902 2.35444 9.59803 3.23756 10.0396C4.43484 10.6382 6.14559 11 8.00001 11V13C5.61005 13 3.46486 12.476 1.99894 11.6452L1.9987 13.9281L2.00011 14.0029C2.05505 14.7655 4.60922 16 8.00001 16V18C3.67992 18 0.159609 16.2878 0.00529683 14.1466L0 14V3.99998C0 1.79086 3.58172 0 8.00001 0M8.00001 2.00002C6.14564 2.00002 4.43484 2.3618 3.23756 2.96044C2.35444 3.402 2.00002 3.82097 2.00002 3.99998C2.00002 4.17905 2.35444 4.59801 3.23756 5.03958C4.43484 5.63817 6.14559 6 8.00001 6C9.85439 6 11.5652 5.63822 12.7624 5.03953C13.6455 4.59797 14 4.179 14 3.99998C14 3.82097 13.6455 3.402 12.7624 2.96044C11.5652 2.3618 9.85439 2.00002 8.00001 2.00002Z" fill="#D62322"/>
</svg>
