<svg width="20" height="18" viewBox="0 0 20 18" fill="none" xmlns="http://www.w3.org/2000/svg">
<path d="M2 18C1.45 18 0.979333 17.8043 0.588 17.413C0.196667 17.0217 0.000666667 16.5507 0 16V2C0 1.45 0.196 0.979333 0.588 0.588C0.98 0.196667 1.45067 0.000666667 2 0H18C18.55 0 19.021 0.196 19.413 0.588C19.805 0.98 20.0007 1.45067 20 2V16C20 16.55 19.8043 17.021 19.413 17.413C19.0217 17.805 18.5507 18.0007 18 18H2ZM2 16H18V2H2V16ZM7 14C7.28333 14 7.521 13.904 7.713 13.712C7.905 13.52 8.00067 13.2827 8 13C7.99933 12.7173 7.90333 12.48 7.712 12.288C7.52067 12.096 7.28333 12 7 12H4C3.71667 12 3.47933 12.096 3.288 12.288C3.09667 12.48 3.00067 12.7173 3 13C2.99933 13.2827 3.09533 13.5203 3.288 13.713C3.48067 13.9057 3.718 14.0013 4 14H7ZM12.55 9.175L11.825 8.45C11.625 8.25 11.3917 8.15433 11.125 8.163C10.8583 8.17167 10.625 8.27567 10.425 8.475C10.2417 8.675 10.1457 8.90833 10.137 9.175C10.1283 9.44167 10.2243 9.675 10.425 9.875L11.85 11.3C12.05 11.5 12.2833 11.6 12.55 11.6C12.8167 11.6 13.05 11.5 13.25 11.3L16.8 7.75C17 7.55 17.1 7.31667 17.1 7.05C17.1 6.78333 17 6.55 16.8 6.35C16.6 6.15 16.3627 6.05 16.088 6.05C15.8133 6.05 15.5757 6.15 15.375 6.35L12.55 9.175ZM7 10C7.28333 10 7.521 9.904 7.713 9.712C7.905 9.52 8.00067 9.28267 8 9C7.99933 8.71733 7.90333 8.48 7.712 8.288C7.52067 8.096 7.28333 8 7 8H4C3.71667 8 3.47933 8.096 3.288 8.288C3.09667 8.48 3.00067 8.71733 3 9C2.99933 9.28267 3.09533 9.52033 3.288 9.713C3.48067 9.90567 3.718 10.0013 4 10H7ZM7 6C7.28333 6 7.521 5.904 7.713 5.712C7.905 5.52 8.00067 5.28267 8 5C7.99933 4.71733 7.90333 4.48 7.712 4.288C7.52067 4.096 7.28333 4 7 4H4C3.71667 4 3.47933 4.096 3.288 4.288C3.09667 4.48 3.00067 4.71733 3 5C2.99933 5.28267 3.09533 5.52033 3.288 5.713C3.48067 5.90567 3.718 6.00133 4 6H7Z" fill="#D62322"/>
</svg>
