<svg width="24" height="24" viewBox="0 0 24 24" fill="none" xmlns="http://www.w3.org/2000/svg">
<path fill-rule="evenodd" clip-rule="evenodd" d="M13.8093 0.677839C13.3005 0.240491 12.6519 0 11.981 0C11.3101 0 10.6614 0.240491 10.1527 0.677839C9.82967 0.95452 9.50852 1.23338 9.18927 1.51441C8.77268 1.43045 8.35553 1.3493 7.93784 1.27098C7.27828 1.1463 6.59587 1.26232 6.01457 1.59795C5.43326 1.93359 4.99162 2.46658 4.76984 3.10012C4.62698 3.50698 4.48812 3.91155 4.35327 4.31384C3.94184 4.45098 3.52984 4.5927 3.11727 4.73898C2.48372 4.96076 1.95073 5.40241 1.61509 5.98371C1.27946 6.56502 1.16345 7.24742 1.28812 7.90698C1.36812 8.32984 1.45041 8.74984 1.53498 9.16698C1.24927 9.49155 0.963553 9.82012 0.677839 10.1527C0.240492 10.6614 0 11.3101 0 11.981C0 12.6519 0.240492 13.3005 0.677839 13.8093C0.963553 14.1441 1.25155 14.4744 1.54184 14.8001C1.45498 15.2276 1.37041 15.6578 1.28812 16.091C1.03098 17.4556 1.80755 18.7996 3.11727 19.259C3.52984 19.4053 3.94184 19.547 4.35327 19.6841C4.48927 20.0864 4.62813 20.491 4.76984 20.8978C4.9913 21.5317 5.43281 22.0651 6.01415 22.4011C6.59548 22.737 7.27806 22.8533 7.93784 22.7287C8.36755 22.6476 8.79498 22.5636 9.22013 22.4767C9.53898 22.7601 9.86184 23.0413 10.1887 23.3201C11.2396 24.2253 12.7944 24.2253 13.8453 23.3201C14.171 23.0424 14.4921 22.7636 14.8087 22.4836C15.2236 22.567 15.6407 22.6487 16.0601 22.7287C17.423 22.9858 18.7687 22.2076 19.2281 20.8978C19.371 20.491 19.5098 20.0864 19.6447 19.6841C20.0561 19.547 20.4681 19.4053 20.8807 19.259C21.5139 19.0369 22.0465 18.5951 22.3818 18.0138C22.7171 17.4326 22.8329 16.7503 22.7081 16.091C22.6292 15.6704 22.5475 15.2504 22.463 14.831C22.7487 14.5064 23.0344 14.1778 23.3201 13.8453C23.7575 13.3365 23.998 12.6879 23.998 12.017C23.998 11.3461 23.7575 10.6974 23.3201 10.1887C23.0344 9.85587 22.7464 9.525 22.4561 9.19612C22.543 8.76869 22.627 8.33898 22.7081 7.90698C22.8329 7.24764 22.7171 6.56541 22.3818 5.98413C22.0465 5.40286 21.5139 4.96108 20.8807 4.73898C20.4697 4.59446 20.0577 4.45275 19.6447 4.31384C19.5087 3.91041 19.3698 3.50584 19.2281 3.10012C19.0063 2.46658 18.5647 1.93359 17.9834 1.59795C17.4021 1.26232 16.7197 1.1463 16.0601 1.27098C15.6316 1.35098 15.2041 1.43441 14.7778 1.52127C14.4569 1.23797 14.134 0.956819 13.8093 0.677839ZM11.5481 2.30127C11.6682 2.19774 11.8215 2.14079 11.9801 2.14079C12.1387 2.14079 12.292 2.19774 12.4121 2.30127C12.867 2.69327 13.3144 3.08527 13.7544 3.47727C14.0081 3.70355 14.3544 3.79612 14.687 3.72755C15.2698 3.60527 15.8601 3.48812 16.4578 3.37612C16.6135 3.34674 16.7746 3.37418 16.9117 3.45345C17.0489 3.53272 17.153 3.65857 17.2053 3.80812C17.4041 4.37498 17.5956 4.93784 17.7796 5.4967C17.8858 5.81898 18.1396 6.0727 18.4618 6.17898C19.0287 6.36527 19.5984 6.55955 20.171 6.76184C20.4796 6.86984 20.6647 7.18698 20.603 7.50927C20.4898 8.10812 20.3721 8.7007 20.2498 9.28698C20.2161 9.45145 20.2211 9.62153 20.2645 9.78371C20.308 9.94589 20.3887 10.0957 20.5001 10.2213C20.9001 10.667 21.2984 11.1218 21.695 11.5858C21.7985 11.706 21.8555 11.8593 21.8555 12.0178C21.8555 12.1764 21.7985 12.3297 21.695 12.4498C21.3007 12.9093 20.9047 13.3618 20.507 13.8076C20.3958 13.9329 20.3153 14.0824 20.2718 14.2443C20.2284 14.4062 20.2232 14.5759 20.2567 14.7401C20.3767 15.3161 20.4921 15.899 20.603 16.4887C20.6328 16.6446 20.6056 16.8061 20.5263 16.9436C20.447 17.0811 20.3209 17.1856 20.171 17.2378C19.5996 17.439 19.0298 17.6327 18.4618 17.819C18.303 17.872 18.1587 17.9613 18.0403 18.0797C17.9219 18.1981 17.8326 18.3424 17.7796 18.5013C17.5944 19.0613 17.403 19.6241 17.2053 20.1898C17.153 20.3394 17.0489 20.4652 16.9117 20.5445C16.7746 20.6238 16.6135 20.6512 16.4578 20.6218C15.8762 20.5126 15.2956 20.3977 14.7161 20.2773C14.5519 20.2438 14.3822 20.2489 14.2203 20.2924C14.0585 20.3358 13.9089 20.4163 13.7836 20.5276C13.347 20.9184 12.9024 21.3081 12.4498 21.6967C12.3297 21.8002 12.1764 21.8572 12.0178 21.8572C11.8593 21.8572 11.706 21.8002 11.5858 21.6967C11.1346 21.309 10.6872 20.917 10.2436 20.5207C10.1182 20.4095 9.96866 20.329 9.8068 20.2855C9.64494 20.2421 9.47519 20.2369 9.31098 20.2704C8.72813 20.3927 8.13784 20.5098 7.54013 20.6218C7.38446 20.6512 7.22342 20.6238 7.08626 20.5445C6.94911 20.4652 6.84494 20.3394 6.7927 20.1898C6.59384 19.6241 6.40241 19.0613 6.21841 18.5013C6.16537 18.3424 6.07611 18.1981 5.9577 18.0797C5.83929 17.9613 5.69496 17.872 5.53613 17.819C4.96927 17.6327 4.39955 17.4384 3.82698 17.2361C3.67743 17.1839 3.55158 17.0797 3.47231 16.9426C3.39304 16.8054 3.3656 16.6444 3.39498 16.4887C3.50698 15.8887 3.6247 15.2956 3.74812 14.7093C3.78162 14.5451 3.77645 14.3753 3.73301 14.2135C3.68956 14.0516 3.60905 13.9021 3.49784 13.7767C3.09784 13.331 2.69955 12.8761 2.30298 12.4121C2.19946 12.292 2.14251 12.1387 2.14251 11.9801C2.14251 11.8215 2.19946 11.6682 2.30298 11.5481C2.69727 11.0887 3.09327 10.6361 3.49098 10.1904C3.6022 10.065 3.68271 9.91551 3.72615 9.75365C3.76959 9.59179 3.77477 9.42204 3.74127 9.25784C3.62127 8.68184 3.50584 8.09898 3.39498 7.50927C3.36515 7.35334 3.39237 7.19189 3.47168 7.05436C3.55098 6.91684 3.67709 6.81241 3.82698 6.76012C4.39955 6.56012 4.9687 6.36641 5.53441 6.17898C5.69356 6.12616 5.83823 6.03701 5.95696 5.91859C6.07568 5.80016 6.16519 5.65572 6.21841 5.4967C6.40127 4.93784 6.5927 4.37498 6.7927 3.80812C6.84494 3.65857 6.94911 3.53272 7.08626 3.45345C7.22342 3.37418 7.38446 3.34674 7.54013 3.37612C8.12527 3.48584 8.70584 3.6007 9.28184 3.7207C9.44578 3.75391 9.6152 3.7486 9.77674 3.70516C9.93828 3.66173 10.0875 3.58137 10.2127 3.47041C10.6504 3.07955 11.0944 2.68984 11.5481 2.30127ZM16.2933 9.52184C16.5345 9.28989 16.6757 8.97304 16.6871 8.6386C16.6984 8.30416 16.5789 7.97848 16.3539 7.73075C16.1289 7.48302 15.8162 7.33276 15.4823 7.31189C15.1483 7.29102 14.8193 7.40118 14.5653 7.61898C13.4098 8.66641 12.5253 9.62469 11.7744 10.7938C11.3146 11.5227 10.9166 12.2888 10.5847 13.0841L9.49441 11.9613C9.25438 11.7292 8.93347 11.5996 8.59958 11.5998C8.26569 11.6001 7.945 11.7303 7.70536 11.9628C7.46573 12.1953 7.32594 12.5119 7.31558 12.8456C7.30522 13.1794 7.42509 13.5041 7.64984 13.751L10.1424 16.3224C10.2951 16.48 10.4855 16.596 10.6957 16.6592C10.9058 16.7224 11.1286 16.7308 11.3429 16.6835C11.5572 16.6362 11.7558 16.5349 11.9198 16.3892C12.0839 16.2435 12.2079 16.0582 12.2801 15.851C12.851 14.2104 13.3498 13.103 13.9396 12.1824C14.5258 11.267 15.2356 10.4818 16.2933 9.52355" fill="#D62322"/>
</svg>
