<svg width="20" height="20" viewBox="0 0 20 20" fill="none" xmlns="http://www.w3.org/2000/svg">
<path d="M15.75 13.5C15.375 13.5 15 13.35 14.7 13.05L12.45 10.8C12.15 10.5 12 10.125 12 9.75C12 9.375 12.15 9 12.45 8.7L14.7 6.45C15 6.15 15.375 6 15.75 6C16.125 6 16.5 6.15 16.8 6.45L19.05 8.7C19.35 9 19.5 9.375 19.5 9.75C19.5 10.125 19.35 10.5 19.05 10.8L16.8 13.05C16.5 13.35 16.125 13.5 15.75 13.5ZM15.75 7.5L13.5 9.75L15.75 12L18 9.75L15.75 7.5ZM9.75 7.5C9.375 7.5 9 7.35 8.7 7.05L6.45 4.8C6.15 4.5 6 4.125 6 3.75C6 3.375 6.15 3 6.45 2.7L8.7 0.45C9 0.15 9.375 0 9.75 0C10.125 0 10.5 0.15 10.8 0.45L13.05 2.7C13.35 3 13.5 3.375 13.5 3.75C13.5 4.125 13.35 4.5 13.05 4.8L10.8 7.05C10.5 7.35 10.125 7.5 9.75 7.5ZM9.75 1.5L7.5 3.75L9.75 6L12 3.75L9.75 1.5ZM9.75 19.5C9.375 19.5 9 19.35 8.7 19.05L6.45 16.8C6.15 16.5 6 16.125 6 15.75C6 15.375 6.15 15 6.45 14.7L8.7 12.45C9 12.15 9.375 12 9.75 12C10.125 12 10.5 12.15 10.8 12.45L13.05 14.7C13.35 15 13.5 15.375 13.5 15.75C13.5 16.125 13.35 16.5 13.05 16.8L10.8 19.05C10.5 19.35 10.125 19.5 9.75 19.5ZM9.75 13.5L7.5 15.75L9.75 18L12 15.75L9.75 13.5ZM3.75 13.5C3.375 13.5 3 13.35 2.7 13.05L0.45 10.8C0.15 10.5 0 10.125 0 9.75C0 9.375 0.15 9 0.45 8.7L2.7 6.45C3 6.15 3.375 6 3.75 6C4.125 6 4.5 6.15 4.8 6.45L7.05 8.7C7.35 9 7.5 9.375 7.5 9.75C7.5 10.125 7.35 10.5 7.05 10.8L4.8 13.05C4.5 13.35 4.125 13.5 3.75 13.5ZM3.75 7.5L1.5 9.75L3.75 12L6 9.75L3.75 7.5Z" fill="white"/>
</svg>
