<svg width="18" height="18" viewBox="0 0 18 18" fill="none" xmlns="http://www.w3.org/2000/svg">
<path d="M6.66 8.466L0 1.806L1.806 0L8.466 6.66C8.02549 6.76051 7.6223 6.98332 7.30281 7.30281C6.98332 7.6223 6.76051 8.02549 6.66 8.466ZM9.534 6.66C9.97451 6.76051 10.3777 6.98332 10.6972 7.30281C11.0167 7.6223 11.2395 8.02549 11.34 8.466L18 1.806L16.194 0L9.534 6.66ZM11.34 9.534C11.2395 9.97451 11.0167 10.3777 10.6972 10.6972C10.3777 11.0167 9.97451 11.2395 9.534 11.34L16.194 18L18 16.194L11.34 9.534ZM8.466 11.34L1.806 18L0 16.194L6.66 9.534C6.76051 9.97451 6.98332 10.3777 7.30281 10.6972C7.6223 11.0167 8.02549 11.2395 8.466 11.34Z" fill="white"/>
</svg>
