<svg width="24" height="24" viewBox="0 0 24 24" fill="none" xmlns="http://www.w3.org/2000/svg">
<path d="M12 23.25C12.8284 23.25 13.5 22.5784 13.5 21.75C13.5 20.9216 12.8284 20.25 12 20.25C11.1716 20.25 10.5 20.9216 10.5 21.75C10.5 22.5784 11.1716 23.25 12 23.25Z" fill="white"/>
<path d="M16.875 22.5H15V21H16.875C19.1497 21 21 19.1497 21 16.875C21.003 15.9457 20.6909 15.0428 20.1147 14.3137C19.5386 13.5846 18.7323 13.0722 17.8275 12.8602L18.1725 11.4008C19.4067 11.6892 20.5066 12.3876 21.2926 13.3819C22.0786 14.3761 22.5042 15.6076 22.5 16.875C22.5 19.9762 19.977 22.5 16.875 22.5ZM15.3105 10.9395L13.0605 8.6895C12.7777 8.406 12.4005 8.25 12 8.25C11.5995 8.25 11.2223 8.406 10.9395 8.6895L8.6895 10.9395C8.397 11.232 8.25 11.616 8.25 12C8.25 12.384 8.397 12.768 8.6895 13.0605L10.9395 15.3105C11.2223 15.594 11.5995 15.75 12 15.75C12.4005 15.75 12.7777 15.594 13.0605 15.3105L15.3105 13.0605C15.603 12.768 15.75 12.384 15.75 12C15.75 11.616 15.603 11.232 15.3105 10.9395ZM12 14.25L9.75 12L12 9.75L14.25 12L12 14.25Z" fill="white"/>
<path d="M12 3.75C12.8284 3.75 13.5 3.07843 13.5 2.25C13.5 1.42157 12.8284 0.75 12 0.75C11.1716 0.75 10.5 1.42157 10.5 2.25C10.5 3.07843 11.1716 3.75 12 3.75Z" fill="white"/>
<path d="M5.82753 12.6C4.59322 12.3115 3.49321 11.613 2.7072 10.6186C1.92118 9.62416 1.49562 8.39256 1.50003 7.125C1.50003 4.02375 4.02303 1.5 7.12503 1.5H9.00003V3H7.12503C6.03138 3.00119 4.98286 3.43617 4.20953 4.2095C3.4362 4.98283 3.00123 6.03135 3.00003 7.125C2.99707 8.0543 3.30913 8.95717 3.8853 9.6863C4.46147 10.4154 5.26773 10.9278 6.17253 11.1397L5.82753 12.6Z" fill="white"/>
</svg>
