<svg width="24" height="24" viewBox="0 0 24 24" fill="none" xmlns="http://www.w3.org/2000/svg">
<path d="M1.40475 12.623C1.14361 12.3195 1 11.9323 1 11.5319C1 11.1315 1.14361 10.7443 1.40475 10.4408C1.79104 9.99161 2.17847 9.5499 2.56704 9.11561C2.44932 8.55218 2.33618 7.98304 2.22761 7.40818C2.15294 7.01469 2.2219 6.60746 2.42197 6.26049C2.62204 5.91352 2.93993 5.64983 3.3179 5.51732C3.8779 5.32075 4.43447 5.13161 4.98761 4.9499C5.16704 4.40247 5.3539 3.85275 5.54818 3.30075C5.68061 2.92347 5.94376 2.60609 6.28999 2.40609C6.63622 2.20609 7.04263 2.13669 7.43561 2.21047C8.00704 2.3179 8.5739 2.4299 9.13618 2.54647C9.56361 2.16475 9.9979 1.78418 10.439 1.40475C10.7426 1.14361 11.1298 1 11.5302 1C11.9306 1 12.3178 1.14361 12.6213 1.40475C13.067 1.78647 13.5036 2.16932 13.931 2.55332C14.5025 2.43332 15.079 2.31904 15.6608 2.21047C16.054 2.13624 16.4608 2.20543 16.8074 2.40546C17.154 2.60549 17.4174 2.92313 17.5499 3.30075C17.7442 3.8539 17.931 4.40361 18.1105 4.9499C18.6636 5.13275 19.2202 5.3219 19.7802 5.51732C20.5602 5.79161 21.023 6.5939 20.8705 7.40818C20.7608 7.99332 20.6459 8.57218 20.5259 9.14475C20.9145 9.58018 21.303 10.0242 21.6916 10.4768C21.953 10.7801 22.0969 11.1671 22.0972 11.5676C22.0975 11.968 21.9542 12.3553 21.6933 12.659C21.3082 13.1082 20.9208 13.5499 20.531 13.9842C20.6499 14.5476 20.763 15.1173 20.8705 15.6933C20.9447 16.0866 20.8755 16.4934 20.6755 16.84C20.4754 17.1866 20.1578 17.45 19.7802 17.5825C19.2202 17.779 18.6636 17.9682 18.1105 18.1499C17.9299 18.6985 17.743 19.2482 17.5499 19.799C17.4178 20.177 17.1545 20.495 16.8078 20.6954C16.4612 20.8957 16.0542 20.9652 15.6608 20.891C15.0928 20.7839 14.526 20.6713 13.9602 20.5533C13.5328 20.9362 13.0985 21.3168 12.6573 21.695C12.3538 21.9562 11.9666 22.0998 11.5662 22.0998C11.1658 22.0998 10.7786 21.9562 10.475 21.695C10.0293 21.3133 9.59275 20.9305 9.16532 20.5465C8.5939 20.6665 8.01732 20.7808 7.43561 20.8893C7.04237 20.9635 6.63556 20.8944 6.28896 20.6943C5.94236 20.4943 5.67893 20.1767 5.54647 19.799C5.35434 19.2511 5.16748 18.7014 4.9859 18.1499C4.42747 17.9668 3.87087 17.7783 3.31618 17.5842C2.93822 17.4517 2.62032 17.188 2.42026 16.841C2.22019 16.494 2.15123 16.0868 2.2259 15.6933C2.33561 15.107 2.45047 14.5276 2.57047 13.955C2.17758 13.5148 1.78899 13.0708 1.40475 12.623Z" stroke="#FF0000" stroke-width="2" stroke-linejoin="round"/>
<path d="M7.46991 12.8148L10.1991 15.6297C11.4848 11.9388 12.5545 10.3188 14.9785 8.12109" stroke="#FF0000" stroke-width="2" stroke-linecap="round" stroke-linejoin="round"/>
</svg>
