<svg width="22" height="22" viewBox="0 0 22 22" fill="none" xmlns="http://www.w3.org/2000/svg">
<path d="M15.5442 11.121C14.6352 12.657 13.3392 14.319 11.7462 15.913C7.53924 20.12 2.85024 22.251 1.27224 20.673C-0.305762 19.096 1.82624 14.406 6.03224 10.199C7.32224 8.91003 8.65624 7.81603 9.93224 6.96403C10.2749 6.7347 10.6122 6.52403 10.9442 6.33203" stroke="#FF0000" stroke-width="1.5" stroke-linejoin="round"/>
<path d="M6.03222 15.9124C10.2392 20.1194 14.9282 22.2504 16.5062 20.6724C18.0842 19.0954 15.9522 14.4054 11.7462 10.1984C7.53722 5.99143 2.84822 3.86043 1.27022 5.43843C-0.307776 7.01543 1.82422 11.7044 6.03022 15.9114L6.03222 15.9124Z" stroke="#FF0000" stroke-width="1.5" stroke-linecap="round" stroke-linejoin="round"/>
<path d="M12.9442 4.5C14.9442 4.5 17.4442 2 17.4442 0C17.4442 2 19.9442 4.5 21.9442 4.5C19.9442 4.5 17.4442 7 17.4442 9C17.4442 7 14.9442 4.5 12.9442 4.5Z" stroke="#FF0000" stroke-width="1.5"/>
</svg>
