<svg width="20" height="20" viewBox="0 0 20 20" fill="none" xmlns="http://www.w3.org/2000/svg">
<path d="M1.025 18.975C0.341667 18.2917 0 17.4667 0 16.5C0 15.5333 0.341667 14.7083 1.025 14.025C1.70833 13.3417 2.53333 13 3.5 13C3.8 13 4.09167 13.0373 4.375 13.112C4.65833 13.1867 4.925 13.291 5.175 13.425L9 9.6V6.85C8.26667 6.63333 7.66667 6.221 7.2 5.613C6.73333 5.005 6.5 4.30067 6.5 3.5C6.5 2.53333 6.84167 1.70833 7.525 1.025C8.20833 0.341667 9.03333 0 10 0C10.9667 0 11.7917 0.341667 12.475 1.025C13.1583 1.70833 13.5 2.53333 13.5 3.5C13.5 4.3 13.2667 5.00433 12.8 5.613C12.3333 6.22167 11.7333 6.634 11 6.85V9.6L14.85 13.425C15.1 13.2917 15.3627 13.1877 15.638 13.113C15.9133 13.0383 16.2007 13.0007 16.5 13C17.4667 13 18.2917 13.3417 18.975 14.025C19.6583 14.7083 20 15.5333 20 16.5C20 17.4667 19.6583 18.2917 18.975 18.975C18.2917 19.6583 17.4667 20 16.5 20C15.5333 20 14.7083 19.6583 14.025 18.975C13.3417 18.2917 13 17.4667 13 16.5C13 16.2 13.0373 15.9083 13.112 15.625C13.1867 15.3417 13.291 15.075 13.425 14.825L10 11.4L6.575 14.825C6.70833 15.075 6.81267 15.3417 6.888 15.625C6.96333 15.9083 7.00067 16.2 7 16.5C7 17.4667 6.65833 18.2917 5.975 18.975C5.29167 19.6583 4.46667 20 3.5 20C2.53333 20 1.70833 19.6583 1.025 18.975ZM17.563 17.563C17.8543 17.271 18 16.9167 18 16.5C18 16.0833 17.8543 15.7293 17.563 15.438C17.2717 15.1467 16.9173 15.0007 16.5 15C16.0827 14.9993 15.7287 15.1453 15.438 15.438C15.1473 15.7307 15.0013 16.0847 15 16.5C14.9987 16.9153 15.1447 17.2697 15.438 17.563C15.7313 17.8563 16.0853 18.002 16.5 18C16.9147 17.998 17.269 17.8523 17.563 17.563ZM11.063 4.563C11.3543 4.271 11.5 3.91667 11.5 3.5C11.5 3.08333 11.3543 2.72933 11.063 2.438C10.7717 2.14667 10.4173 2.00067 10 2C9.58267 1.99933 9.22867 2.14533 8.938 2.438C8.64733 2.73067 8.50133 3.08467 8.5 3.5C8.49867 3.91533 8.64467 4.26967 8.938 4.563C9.23133 4.85633 9.58533 5.002 10 5C10.4147 4.998 10.769 4.85233 11.063 4.563ZM4.563 17.563C4.85433 17.271 5 16.9167 5 16.5C5 16.0833 4.85433 15.7293 4.563 15.438C4.27167 15.1467 3.91733 15.0007 3.5 15C3.08267 14.9993 2.72867 15.1453 2.438 15.438C2.14733 15.7307 2.00133 16.0847 2 16.5C1.99867 16.9153 2.14467 17.2697 2.438 17.563C2.73133 17.8563 3.08533 18.002 3.5 18C3.91467 17.998 4.269 17.8523 4.563 17.563Z" fill="#FF0000"/>
</svg>
