<svg width="24" height="24" viewBox="0 0 24 24" fill="none" xmlns="http://www.w3.org/2000/svg">
<path d="M16.6 12.121C15.691 13.657 14.395 15.319 12.802 16.913C8.59496 21.12 3.90596 23.251 2.32796 21.673C0.749963 20.096 2.88196 15.406 7.08796 11.199C8.37796 9.91003 9.71196 8.81603 10.988 7.96403C11.3306 7.7347 11.668 7.52403 12 7.33203" stroke="#FDFDFD" stroke-width="1.5" stroke-linejoin="round"/>
<path d="M7.08801 16.9124C11.295 21.1194 15.984 23.2504 17.562 21.6724C19.14 20.0954 17.008 15.4054 12.802 11.1984C8.59301 6.99143 3.90401 4.86043 2.32601 6.43843C0.74801 8.01543 2.88001 12.7044 7.08601 16.9114L7.08801 16.9124Z" stroke="#FDFDFD" stroke-width="1.5" stroke-linecap="round" stroke-linejoin="round"/>
<path d="M14 5.5C16 5.5 18.5 3 18.5 1C18.5 3 21 5.5 23 5.5C21 5.5 18.5 8 18.5 10C18.5 8 16 5.5 14 5.5Z" stroke="#FDFDFD" stroke-width="1.5"/>
</svg>
