<svg width="24" height="24" viewBox="0 0 24 24" fill="none" xmlns="http://www.w3.org/2000/svg">
<path d="M3.025 20.975C2.34167 20.2917 2 19.4667 2 18.5C2 17.5333 2.34167 16.7083 3.025 16.025C3.70833 15.3417 4.53333 15 5.5 15C5.8 15 6.09167 15.0373 6.375 15.112C6.65833 15.1867 6.925 15.291 7.175 15.425L11 11.6V8.85C10.2667 8.63333 9.66667 8.221 9.2 7.613C8.73333 7.005 8.5 6.30067 8.5 5.5C8.5 4.53333 8.84167 3.70833 9.525 3.025C10.2083 2.34167 11.0333 2 12 2C12.9667 2 13.7917 2.34167 14.475 3.025C15.1583 3.70833 15.5 4.53333 15.5 5.5C15.5 6.3 15.2667 7.00433 14.8 7.613C14.3333 8.22167 13.7333 8.634 13 8.85V11.6L16.85 15.425C17.1 15.2917 17.3627 15.1877 17.638 15.113C17.9133 15.0383 18.2007 15.0007 18.5 15C19.4667 15 20.2917 15.3417 20.975 16.025C21.6583 16.7083 22 17.5333 22 18.5C22 19.4667 21.6583 20.2917 20.975 20.975C20.2917 21.6583 19.4667 22 18.5 22C17.5333 22 16.7083 21.6583 16.025 20.975C15.3417 20.2917 15 19.4667 15 18.5C15 18.2 15.0373 17.9083 15.112 17.625C15.1867 17.3417 15.291 17.075 15.425 16.825L12 13.4L8.575 16.825C8.70833 17.075 8.81267 17.3417 8.888 17.625C8.96333 17.9083 9.00067 18.2 9 18.5C9 19.4667 8.65833 20.2917 7.975 20.975C7.29167 21.6583 6.46667 22 5.5 22C4.53333 22 3.70833 21.6583 3.025 20.975ZM19.563 19.563C19.8543 19.271 20 18.9167 20 18.5C20 18.0833 19.8543 17.7293 19.563 17.438C19.2717 17.1467 18.9173 17.0007 18.5 17C18.0827 16.9993 17.7287 17.1453 17.438 17.438C17.1473 17.7307 17.0013 18.0847 17 18.5C16.9987 18.9153 17.1447 19.2697 17.438 19.563C17.7313 19.8563 18.0853 20.002 18.5 20C18.9147 19.998 19.269 19.8523 19.563 19.563ZM13.063 6.563C13.3543 6.271 13.5 5.91667 13.5 5.5C13.5 5.08333 13.3543 4.72933 13.063 4.438C12.7717 4.14667 12.4173 4.00067 12 4C11.5827 3.99933 11.2287 4.14533 10.938 4.438C10.6473 4.73067 10.5013 5.08467 10.5 5.5C10.4987 5.91533 10.6447 6.26967 10.938 6.563C11.2313 6.85633 11.5853 7.002 12 7C12.4147 6.998 12.769 6.85233 13.063 6.563ZM6.563 19.563C6.85433 19.271 7 18.9167 7 18.5C7 18.0833 6.85433 17.7293 6.563 17.438C6.27167 17.1467 5.91733 17.0007 5.5 17C5.08267 16.9993 4.72867 17.1453 4.438 17.438C4.14733 17.7307 4.00133 18.0847 4 18.5C3.99867 18.9153 4.14467 19.2697 4.438 19.563C4.73133 19.8563 5.08533 20.002 5.5 20C5.91467 19.998 6.269 19.8523 6.563 19.563Z" fill="#FDFDFD"/>
</svg>
