<svg width="16" height="16" viewBox="0 0 16 16" fill="none" xmlns="http://www.w3.org/2000/svg">
<path d="M3.31998 6.45797C1.99598 5.92864 1.33398 5.66397 1.33398 5.33464C1.33398 5.0053 1.99598 4.7413 3.31998 4.2113L5.19198 3.46264C6.51598 2.93264 7.17865 2.66797 8.00065 2.66797C8.82265 2.66797 9.48532 2.93264 10.8093 3.46264L12.6813 4.2113C14.0053 4.74064 14.6673 5.0053 14.6673 5.33464C14.6673 5.66397 14.0053 5.92797 12.6813 6.45797L10.8093 7.2073C9.48532 7.73664 8.82265 8.0013 8.00065 8.0013C7.17865 8.0013 6.51598 7.73664 5.19198 7.2073L3.31998 6.45797Z" fill="#D62322"/>
<path fill-rule="evenodd" clip-rule="evenodd" d="M1.33398 5.33464C1.33398 5.66397 1.99598 5.92797 3.31998 6.45797L5.19198 7.2073C6.51598 7.73664 7.17865 8.0013 8.00065 8.0013C8.82265 8.0013 9.48532 7.73664 10.8093 7.2073L12.6813 6.45797C14.0053 5.92864 14.6673 5.66397 14.6673 5.33464C14.6673 5.0053 14.0053 4.7413 12.6813 4.2113L10.8093 3.46264C9.48532 2.93264 8.82265 2.66797 8.00065 2.66797C7.17865 2.66797 6.51598 2.93264 5.19198 3.46264L3.32065 4.2113C1.99598 4.74064 1.33398 5.0053 1.33398 5.33464Z" fill="#D62322"/>
<path opacity="0.7" d="M3.84465 6.66797L3.31998 6.87797C1.99598 7.4073 1.33398 7.67264 1.33398 8.0013C1.33398 8.32997 1.99598 8.59464 3.31998 9.12464L5.19198 9.87397C6.51598 10.4033 7.17865 10.668 8.00065 10.668C8.82265 10.668 9.48532 10.4033 10.8093 9.87397L12.6813 9.12464C14.0053 8.5953 14.6673 8.32997 14.6673 8.0013C14.6673 7.67264 14.0053 7.40797 12.6813 6.87797L12.1566 6.66797L10.8093 7.2073C9.48532 7.73664 8.82265 8.0013 8.00065 8.0013C7.17865 8.0013 6.51598 7.73664 5.19198 7.2073L3.84465 6.66797Z" fill="#D62322"/>
<path opacity="0.4" d="M3.84465 9.33203L3.31998 9.54203C1.99598 10.0714 1.33398 10.3367 1.33398 10.6654C1.33398 10.994 1.99598 11.2587 3.31998 11.7887L5.19198 12.538C6.51598 13.0674 7.17865 13.332 8.00065 13.332C8.82265 13.332 9.48532 13.0674 10.8093 12.5374L12.6813 11.7887C14.0053 11.2594 14.6673 10.9947 14.6673 10.6654C14.6673 10.3367 14.0053 10.072 12.6813 9.54203L12.1566 9.33203L10.8093 9.87136C9.48532 10.4007 8.82265 10.6654 8.00065 10.6654C7.17865 10.6654 6.51598 10.4007 5.19198 9.87136L3.84465 9.33203Z" fill="#D62322"/>
</svg>
