<svg width="13" height="14" viewBox="0 0 13 14" fill="none" xmlns="http://www.w3.org/2000/svg">
<path d="M3.65399 7.57843C2.90385 6.82828 2.48242 5.81087 2.48242 4.75C2.48242 3.68913 2.90385 2.67172 3.65399 1.92157C4.40414 1.17143 5.42156 0.75 6.48242 0.75C7.54329 0.75 8.5607 1.17143 9.31085 1.92157C10.061 2.67172 10.4824 3.68913 10.4824 4.75C10.4824 5.81087 10.061 6.82828 9.31085 7.57843C8.5607 8.32857 7.54329 8.75 6.48242 8.75C5.42156 8.75 4.40414 8.32857 3.65399 7.57843Z" stroke="#D62322" stroke-width="1.5" stroke-linecap="round" stroke-linejoin="round"/>
<path d="M6.482 8.75L8.74866 12.6767L9.814 10.5213L12.2127 10.676L9.946 6.75M3.01667 6.75L0.75 10.6767L3.14867 10.5213L4.214 12.676L6.48067 8.75" stroke="#D62322" stroke-width="1.5" stroke-linecap="round" stroke-linejoin="round"/>
</svg>
