<svg width="24" height="24" viewBox="0 0 24 24" fill="none" xmlns="http://www.w3.org/2000/svg">
<g clip-path="url(#clip0_908_28292)">
<path d="M17.5128 0L16.7288 0.664485C14.9731 2.15888 13.5258 2.82706 12.3211 3.2642C11.1164 3.70041 10.1041 3.83072 9.10968 4.41942C8.04958 5.04787 6.50902 6.25299 5.86005 8.40448C4.46889 8.63922 3.45061 9.05141 2.64747 9.58836C1.85388 10.1188 1.2563 10.7223 0.520086 11.3794C0.514111 11.3868 0.523672 11.4007 0.520086 11.4081C-0.536433 12.347 -1.46029 13.3581 -3.25303 13.8923L-4 14.1233V24H18.7833C20.0896 23.9455 20.9955 23.2459 21.5465 22.5555C22.0963 21.8661 22.401 21.1193 22.5552 20.5057C22.952 18.942 23.6751 14.4403 23.6751 14.4403L23.7133 14.3543V14.2675C23.6751 13.6427 23.3428 13.1122 22.9281 12.6206L24.2726 9.53106L26.4024 7.04686L27 6.38238L26.2148 5.83434L18.3722 0.577612L17.5128 0ZM17.5881 2.54149L23.8245 6.72987L22.1811 8.60595L22.07 8.69375L22.0317 8.83792L20.9489 11.3212C20.3836 11.141 19.8016 11.0144 19.1562 11.0328H19.0809L11.537 11.0615H10.3419V14.6427C10.1746 15.65 9.4503 16.04 8.54916 16.3182C8.25037 16.4116 8.21332 16.3607 7.95158 16.4042V11.0338C7.75557 7.60784 9.33318 6.62174 10.5666 5.89256C10.9072 5.69017 11.9052 5.45635 13.3298 4.93974C14.5202 4.5063 15.9998 3.72906 17.5881 2.54149ZM5.63656 10.4839C5.63177 10.6937 5.54692 10.8415 5.56126 11.0615V18.4549H6.75642C6.75642 18.4549 8.03524 18.4438 9.40847 18.0215C10.7817 17.5991 12.4382 16.6103 12.7322 14.8737V12.9099L19.1562 12.8812H19.1932C19.718 12.8585 20.233 12.9978 20.6252 13.2684C21.0173 13.5391 21.2545 13.919 21.2848 14.3248C21.28 14.3396 21.225 14.6824 21.2107 14.7582H16.3177V16.6066H20.9119C20.7852 17.321 20.6692 17.7692 20.5378 18.4549H16.3177V20.3033H20.1649C20.0237 20.7504 19.7969 21.1787 19.492 21.574C19.1657 21.9853 18.8849 22.1406 18.6339 22.1516H-1.60968V15.249C0.327666 14.4542 1.53238 13.3109 2.31163 12.6215C3.11955 11.9062 3.67411 11.3646 4.21671 11.0042C4.57167 10.7695 5.12742 10.6355 5.63656 10.4839Z" fill="#D62322"/>
</g>
<defs>
<clipPath id="clip0_908_28292">
<rect width="24" height="24" fill="white"/>
</clipPath>
</defs>
</svg>
