<svg width="24" height="24" viewBox="0 0 24 24" fill="none" xmlns="http://www.w3.org/2000/svg">
<g clip-path="url(#clip0_908_28268)">
<path fill-rule="evenodd" clip-rule="evenodd" d="M9.34454 0.298698C10.9979 -0.0766209 12.7121 -0.0973244 14.374 0.237952C16.036 0.573228 17.608 1.25687 18.9866 2.24384C20.3651 3.23081 21.5189 4.49869 22.3718 5.96395C23.2248 7.42921 23.7575 9.05858 23.935 10.7447C23.9663 11.0415 23.8783 11.3385 23.6906 11.5704C23.5028 11.8024 23.2306 11.9502 22.9338 11.9814C22.637 12.0127 22.34 11.9247 22.1081 11.737C21.8761 11.5492 21.7283 11.277 21.697 10.9802C21.5042 9.14813 20.7963 7.40818 19.6553 5.96189C18.5143 4.5156 16.9869 3.42214 15.25 2.80819C13.5132 2.19423 11.6379 2.0849 9.84146 2.49285C8.04502 2.90081 6.4009 3.80935 5.09956 5.11325C3.79821 6.41715 2.89289 8.06304 2.48846 9.86028C2.08404 11.6575 2.19705 13.5326 2.81441 15.2682C3.43177 17.0039 4.52821 18.5291 5.97674 19.6673C7.42527 20.8055 9.1666 21.51 10.999 21.6992C11.1471 21.713 11.2909 21.756 11.4222 21.8257C11.5535 21.8955 11.6697 21.9905 11.7641 22.1054C11.8584 22.2203 11.929 22.3528 11.9719 22.4951C12.0147 22.6375 12.0289 22.787 12.0137 22.9348C11.9984 23.0827 11.954 23.2261 11.883 23.3567C11.8119 23.4874 11.7157 23.6026 11.5999 23.6958C11.4841 23.789 11.3509 23.8583 11.2081 23.8998C11.0654 23.9412 10.9158 23.9539 10.768 23.9372C7.93742 23.646 5.3024 22.3583 3.3333 20.3041C1.36421 18.2498 0.189188 15.5627 0.0179699 12.7223C-0.153248 9.88184 0.69048 7.07301 2.39856 4.79711C4.10663 2.52121 6.5679 0.92635 9.34304 0.297198L9.34454 0.298698ZM12.001 4.5002C12.2994 4.5002 12.5856 4.61872 12.7965 4.8297C13.0075 5.04068 13.126 5.32683 13.126 5.6252V13.5002H7.12604C6.82767 13.5002 6.54153 13.3817 6.33055 13.1707C6.11957 12.9597 6.00104 12.6736 6.00104 12.3752C6.00104 12.0768 6.11957 11.7907 6.33055 11.5797C6.54153 11.3687 6.82767 11.2502 7.12604 11.2502H10.876V5.6252C10.876 5.32683 10.9946 5.04068 11.2055 4.8297C11.4165 4.61872 11.7027 4.5002 12.001 4.5002ZM15.331 15.3302C15.542 15.1195 15.8279 15.0012 16.126 15.0012C16.4242 15.0012 16.7101 15.1195 16.921 15.3302L19.501 17.9102L22.081 15.3302C22.184 15.2197 22.3082 15.131 22.4462 15.0695C22.5842 15.008 22.7332 14.975 22.8843 14.9723C23.0353 14.9696 23.1854 14.9974 23.3254 15.054C23.4655 15.1106 23.5928 15.1948 23.6996 15.3016C23.8064 15.4085 23.8906 15.5357 23.9472 15.6758C24.0038 15.8159 24.0316 15.9659 24.0289 16.117C24.0263 16.268 23.9932 16.417 23.9317 16.555C23.8702 16.693 23.7816 16.8172 23.671 16.9202L21.091 19.5002L23.671 22.0802C23.7816 22.1832 23.8702 22.3074 23.9317 22.4454C23.9932 22.5834 24.0263 22.7324 24.0289 22.8834C24.0316 23.0345 24.0038 23.1845 23.9472 23.3246C23.8906 23.4647 23.8064 23.5919 23.6996 23.6988C23.5928 23.8056 23.4655 23.8898 23.3254 23.9464C23.1854 24.003 23.0353 24.0308 22.8843 24.0281C22.7332 24.0254 22.5842 23.9924 22.4462 23.9309C22.3082 23.8694 22.184 23.7807 22.081 23.6702L19.501 21.0902L16.921 23.6702C16.818 23.7807 16.6938 23.8694 16.5558 23.9309C16.4179 23.9924 16.2689 24.0254 16.1178 24.0281C15.9668 24.0308 15.8167 24.003 15.6766 23.9464C15.5366 23.8898 15.4093 23.8056 15.3025 23.6988C15.1957 23.5919 15.1114 23.4647 15.0549 23.3246C14.9983 23.1845 14.9705 23.0345 14.9732 22.8834C14.9758 22.7324 15.0089 22.5834 15.0704 22.4454C15.1319 22.3074 15.2205 22.1832 15.331 22.0802L17.911 19.5002L15.331 16.9202C15.1204 16.7093 15.002 16.4233 15.002 16.1252C15.002 15.8271 15.1204 15.5411 15.331 15.3302Z" fill="#D62322"/>
</g>
<defs>
<clipPath id="clip0_908_28268">
<rect width="24" height="24" fill="white"/>
</clipPath>
</defs>
</svg>
