<svg width="24" height="24" viewBox="0 0 24 24" fill="none" xmlns="http://www.w3.org/2000/svg">
<g clip-path="url(#clip0_908_28229)">
<path d="M23.76 2.00271C23.76 1.19471 23.105 0.538709 22.297 0.538709H1.80904C1.4209 0.511657 1.03791 0.639903 0.744318 0.895234C0.450729 1.15056 0.270595 1.51207 0.243543 1.90021C0.216491 2.28835 0.344737 2.67135 0.600068 2.96494C0.855399 3.25852 1.2169 3.43866 1.60504 3.46571C1.66208 3.47639 1.71363 3.50657 1.75085 3.55109C1.78807 3.59561 1.80864 3.65168 1.80904 3.70971V17.8557C1.8102 17.9128 1.79133 17.9684 1.7557 18.013C1.72008 18.0576 1.66995 18.0883 1.61404 18.0997C1.35871 18.1296 1.12533 18.2586 0.964213 18.4589C0.803095 18.6592 0.727139 18.9148 0.752719 19.1706C0.778299 19.4264 0.903365 19.6619 1.10096 19.8263C1.29856 19.9908 1.55285 20.071 1.80904 20.0497H11.078C11.212 20.0497 11.321 20.1597 11.321 20.2947V20.5967C11.3219 20.6371 11.3126 20.6771 11.2939 20.7129C11.2752 20.7488 11.2477 20.7793 11.214 20.8017C10.9591 20.9802 10.7678 21.2352 10.6677 21.5298C10.5677 21.8245 10.5642 22.1433 10.6577 22.4401C10.7513 22.7368 10.937 22.996 11.1879 23.18C11.4388 23.364 11.7419 23.4632 12.053 23.4632C12.3642 23.4632 12.6672 23.364 12.9182 23.18C13.1691 22.996 13.3548 22.7368 13.4484 22.4401C13.5419 22.1433 13.5384 21.8245 13.4384 21.5298C13.3383 21.2352 13.1469 20.9802 12.892 20.8017C12.8584 20.7793 12.8309 20.7488 12.8122 20.7129C12.7935 20.6771 12.7842 20.6371 12.785 20.5967V20.2947C12.785 20.1597 12.894 20.0507 13.029 20.0507H22.297C22.5558 20.0766 22.8142 19.9986 23.0154 19.8339C23.2166 19.6693 23.3442 19.4314 23.37 19.1727C23.3959 18.914 23.3179 18.6556 23.1533 18.4544C22.9886 18.2531 22.7508 18.1256 22.492 18.0997C22.4361 18.0883 22.386 18.0576 22.3504 18.013C22.3148 17.9684 22.2959 17.9128 22.297 17.8557V3.68971C22.2985 3.63192 22.3196 3.57635 22.3568 3.53217C22.3941 3.48799 22.4453 3.45784 22.502 3.44671C22.8505 3.39802 23.1697 3.22511 23.4009 2.95979C23.632 2.69447 23.7596 2.35459 23.76 2.00271ZM20.346 17.8557C20.346 17.9897 20.236 18.0997 20.102 18.0997H4.00504C3.94033 18.0997 3.87827 18.074 3.83251 18.0282C3.78675 17.9825 3.76104 17.9204 3.76104 17.8557V3.70971C3.76104 3.57471 3.87004 3.46571 4.00504 3.46571H20.102C20.236 3.46571 20.346 3.57571 20.346 3.70971V17.8557Z" fill="#D62322"/>
<path d="M8.88194 16.148C8.88794 16.55 9.21194 16.875 9.61394 16.88H18.8819C19.0713 16.873 19.2505 16.7929 19.382 16.6565C19.5134 16.52 19.5869 16.338 19.5869 16.1485C19.5869 15.9591 19.5134 15.777 19.382 15.6406C19.2505 15.5041 19.0713 15.424 18.8819 15.417H18.1499C18.0854 15.4167 18.0236 15.3909 17.9781 15.3452C17.9325 15.2995 17.9069 15.2375 17.9069 15.173V10.783C17.9069 10.5242 17.8041 10.2759 17.6211 10.0929C17.438 9.90983 17.1898 9.80701 16.9309 9.80701H15.9549C15.8268 9.80701 15.7 9.83226 15.5816 9.88132C15.4632 9.93038 15.3557 10.0023 15.2652 10.0929C15.1746 10.1836 15.1028 10.2912 15.0539 10.4096C15.0049 10.528 14.9798 10.6549 14.9799 10.783V15.173C14.9799 15.308 14.8699 15.417 14.7359 15.417H13.7599C13.6952 15.417 13.6332 15.3913 13.5874 15.3455C13.5416 15.2998 13.5159 15.2377 13.5159 15.173V13.71C13.5159 13.4513 13.4132 13.2032 13.2304 13.0202C13.0476 12.8372 12.7996 12.7343 12.5409 12.734H11.5649C11.3063 12.7343 11.0583 12.8372 10.8755 13.0202C10.6926 13.2032 10.5899 13.4513 10.5899 13.71V15.173C10.5899 15.308 10.4799 15.417 10.3459 15.417H9.61394C9.42062 15.4191 9.23579 15.4967 9.09899 15.6333C8.96218 15.77 8.88428 15.9547 8.88194 16.148ZM10.1019 11.027C10.12 10.6454 10.0397 10.2656 9.8688 9.92401C9.6979 9.58238 9.4421 9.29039 9.12594 9.07601L7.30194 7.90501C7.26285 7.87741 7.23092 7.84087 7.20883 7.79842C7.18673 7.75597 7.17512 7.70886 7.17494 7.66101C7.17744 7.58409 7.20911 7.51101 7.26353 7.45659C7.31794 7.40218 7.39103 7.37051 7.46794 7.36801H9.12594C9.38462 7.36801 9.63272 7.26532 9.81572 7.0825C9.99873 6.89968 10.1017 6.65168 10.1019 6.39301C10.1057 6.16195 10.0274 5.93704 9.8809 5.75832C9.73441 5.57959 9.52925 5.45865 9.30194 5.41701C9.2539 5.40721 9.20979 5.3835 9.17512 5.34883C9.14045 5.31415 9.11674 5.27005 9.10694 5.22201C9.0653 4.9947 8.94435 4.78954 8.76563 4.64304C8.58691 4.49655 8.362 4.41822 8.13094 4.42201C7.89611 4.42482 7.67016 4.51222 7.49456 4.66817C7.31896 4.82412 7.20548 5.03815 7.17494 5.27101C7.17144 5.32093 7.15132 5.36825 7.11779 5.4054C7.08425 5.44256 7.03925 5.46741 6.98994 5.47601C5.30294 5.81001 4.61194 7.84701 5.74694 9.14001C5.88027 9.29201 6.03127 9.42334 6.19994 9.53401L7.99494 10.724C8.09994 10.787 8.16094 10.904 8.15094 11.027C8.14819 11.1037 8.11641 11.1766 8.06202 11.2308C8.00763 11.285 7.93469 11.3165 7.85794 11.319H6.19994C5.94109 11.319 5.69284 11.4218 5.5098 11.6049C5.32677 11.7879 5.22394 12.0362 5.22394 12.295C5.21594 12.772 5.55394 13.185 6.02394 13.271C6.12194 13.291 6.19794 13.368 6.21894 13.466C6.26133 13.693 6.38248 13.8977 6.56103 14.044C6.73959 14.1904 6.96409 14.269 7.19494 14.266C7.43169 14.2681 7.66113 14.184 7.8405 14.0295C8.01987 13.8749 8.13696 13.6605 8.16994 13.426C8.17469 13.3765 8.19539 13.3298 8.22893 13.293C8.26247 13.2562 8.30704 13.2313 8.35594 13.222C8.85477 13.1123 9.30062 12.8342 9.61857 12.4344C9.93653 12.0347 10.1072 11.5377 10.1019 11.027Z" fill="#D62322"/>
</g>
<defs>
<clipPath id="clip0_908_28229">
<rect width="24" height="24" fill="white"/>
</clipPath>
</defs>
</svg>
