<svg width="24" height="24" viewBox="0 0 24 24" fill="none" xmlns="http://www.w3.org/2000/svg">
<g clip-path="url(#clip0_908_28243)">
<path d="M17.5385 0C15.4994 0 13.8462 1.65508 13.8462 3.69231C13.8462 6.15231 17.0769 9.51323 17.0769 12.8945H18C18.0009 9.51323 21.2308 6.24923 21.2308 3.69231C21.2308 1.65508 19.5776 0 17.5385 0ZM17.5385 1.78892C17.7886 1.78904 18.0362 1.83842 18.2672 1.93423C18.4982 2.03005 18.708 2.17042 18.8848 2.34733C19.0615 2.52425 19.2017 2.73425 19.2973 2.96534C19.3928 3.19642 19.442 3.44408 19.4419 3.69415C19.4417 3.94423 19.3924 4.19184 19.2966 4.42283C19.2007 4.65383 19.0604 4.86369 18.8835 5.04043C18.7065 5.21718 18.4965 5.35735 18.2654 5.45294C18.0344 5.54852 17.7867 5.59766 17.5366 5.59754C17.0315 5.59729 16.5471 5.39638 16.19 5.03899C15.833 4.6816 15.6325 4.19702 15.6328 3.69185C15.633 3.18667 15.8339 2.70228 16.1913 2.34524C16.5487 1.9882 17.0333 1.78868 17.5385 1.78892ZM12 1.84615C5.89202 1.84615 0.923096 6.81508 0.923096 12.9231C0.923096 19.0311 5.89202 24 12 24C18.108 24 23.0769 19.0311 23.0769 12.9231C23.0769 11.0677 22.6172 9.32677 21.8077 7.788C21.6849 8.03169 21.5612 8.26338 21.4329 8.50985C21.1902 8.97877 20.9345 9.45231 20.7111 9.92308C20.9419 10.5831 21.1006 11.2809 21.1726 12H19.9616C19.8951 12.3092 19.8462 12.6 19.8462 12.8945V13.8462H21.1736C21.0477 15.1474 20.6442 16.4065 19.9902 17.5385H17.28C17.4831 16.6726 17.6003 15.7154 17.6834 14.7406H15.8649C15.7778 15.6849 15.6142 16.6206 15.3757 17.5385H8.62433C8.31209 16.3304 8.12831 15.0928 8.07602 13.8462H15.2299V12.8945C15.2226 12.5931 15.1839 12.2933 15.1145 12H8.07694C8.12923 10.7534 8.31302 9.51573 8.62525 8.30769H13.5582C13.2377 7.70321 12.9391 7.08743 12.6628 6.46154H9.2594C10.0228 4.71969 11.0317 3.69231 12 3.69231C12 3.05077 12.1154 2.448 12.3176 1.87477C12.2114 1.87108 12.1071 1.84615 12 1.84615ZM8.19233 4.52862C7.82489 5.14265 7.51584 5.78979 7.26925 6.46154H5.4231C6.21945 5.65242 7.15824 4.99715 8.19233 4.52862ZM4.00986 8.30769H6.72002C6.44071 9.52028 6.27659 10.7565 6.22986 12H2.82648C2.9523 10.6988 3.35584 9.43965 4.00986 8.30769ZM2.82648 13.8462H6.23079C6.28525 15.1615 6.4551 16.4031 6.72094 17.5385H4.00986C3.35584 16.4065 2.9523 15.1474 2.82648 13.8462ZM5.4231 19.3846H7.26925C7.5351 20.1009 7.84617 20.7443 8.19233 21.3175C7.15824 20.849 6.21945 20.1937 5.4231 19.3846ZM9.2594 19.3846H14.7406C13.9772 21.1265 12.9683 22.1538 12 22.1538C11.0317 22.1538 10.0219 21.1265 9.2594 19.3846ZM16.7308 19.3846H18.5769C17.7806 20.1937 16.8418 20.849 15.8077 21.3175C16.1539 20.7452 16.4649 20.1018 16.7308 19.3846Z" fill="#D62322"/>
</g>
<defs>
<clipPath id="clip0_908_28243">
<rect width="24" height="24" fill="white"/>
</clipPath>
</defs>
</svg>
