<svg width="24" height="24" viewBox="0 0 24 24" fill="none" xmlns="http://www.w3.org/2000/svg">
<path d="M6.99197 14.502C6.72676 14.502 6.4724 14.6074 6.28487 14.7949C6.09733 14.9824 5.99197 15.2368 5.99197 15.502V17.284C4.70289 15.8265 3.99152 13.9478 3.99197 12.002C3.9908 11.7079 4.00817 11.414 4.04397 11.122C4.06305 10.9901 4.05557 10.8557 4.02197 10.7267C3.98836 10.5977 3.92931 10.4768 3.84829 10.371C3.76726 10.2651 3.6659 10.1766 3.55016 10.1105C3.43441 10.0444 3.30663 10.0021 3.17431 9.98609C3.04199 9.97009 2.9078 9.9807 2.77964 10.0173C2.65148 10.0539 2.53193 10.1158 2.42802 10.1992C2.32411 10.2827 2.23793 10.3861 2.17456 10.5034C2.11118 10.6206 2.07188 10.7493 2.05897 10.882C2.01337 11.2536 1.99099 11.6276 1.99197 12.002C1.99298 14.3883 2.85068 16.6948 4.40897 18.502H2.99197C2.72676 18.502 2.4724 18.6074 2.28487 18.7949C2.09733 18.9824 1.99197 19.2368 1.99197 19.502C1.99197 19.7672 2.09733 20.0216 2.28487 20.2091C2.4724 20.3966 2.72676 20.502 2.99197 20.502H6.99197C7.14839 20.5001 7.3021 20.4609 7.44023 20.3874C7.57836 20.314 7.69691 20.2086 7.78597 20.08L7.82297 20.037C7.82997 20.027 7.82997 20.015 7.83597 20.005C7.88319 19.9244 7.91887 19.8375 7.94197 19.747C7.95677 19.6959 7.96747 19.6438 7.97397 19.591C7.97697 19.561 7.99197 19.534 7.99197 19.502V15.502C7.99197 15.2368 7.88662 14.9824 7.69908 14.7949C7.51154 14.6074 7.25719 14.502 6.99197 14.502ZM8.49197 6.00201H6.70897C8.16673 4.7127 10.0459 4.00131 11.992 4.00201C12.2861 4.00117 12.58 4.01887 12.872 4.05501C13.1355 4.08683 13.4008 4.01268 13.6096 3.84887C13.8185 3.68506 13.9536 3.445 13.9855 3.18151C14.0173 2.91802 13.9431 2.65267 13.7793 2.44385C13.6155 2.23503 13.3755 2.09983 13.112 2.06801C12.7404 2.02274 12.3663 2.00069 11.992 2.00201C9.60573 2.00302 7.29915 2.86071 5.49197 4.41901V3.00201C5.49197 2.73679 5.38662 2.48244 5.19908 2.2949C5.01154 2.10737 4.75719 2.00201 4.49197 2.00201C4.22676 2.00201 3.9724 2.10737 3.78487 2.2949C3.59733 2.48244 3.49197 2.73679 3.49197 3.00201V7.00201C3.49846 7.06814 3.51153 7.13347 3.53097 7.19701C3.55582 7.32018 3.60365 7.43756 3.67197 7.54301L3.68397 7.56001C3.75037 7.65558 3.83295 7.73883 3.92797 7.80601C3.93897 7.81401 3.94497 7.82601 3.95597 7.83401C3.96997 7.84401 3.98597 7.84701 4.00097 7.85501C4.05804 7.88891 4.11834 7.91705 4.18097 7.93901C4.26522 7.96823 4.353 7.98606 4.44197 7.99201C4.45997 7.99201 4.47397 8.00201 4.49197 8.00201H8.49197C8.75719 8.00201 9.01154 7.89665 9.19908 7.70912C9.38662 7.52158 9.49197 7.26722 9.49197 7.00201C9.49197 6.73679 9.38662 6.48244 9.19908 6.2949C9.01154 6.10737 8.75719 6.00201 8.49197 6.00201ZM20.452 16.806C20.427 16.6832 20.3792 16.5662 20.311 16.461L20.3 16.444C20.2333 16.3483 20.1504 16.2651 20.055 16.198C20.044 16.19 20.039 16.178 20.027 16.17C20.017 16.163 20.004 16.163 19.993 16.156C19.8657 16.0862 19.7267 16.0402 19.583 16.02C19.551 16.017 19.524 16.002 19.492 16.002H15.492C15.2268 16.002 14.9724 16.1074 14.7849 16.2949C14.5973 16.4824 14.492 16.7368 14.492 17.002C14.492 17.2672 14.5973 17.5216 14.7849 17.7091C14.9724 17.8966 15.2268 18.002 15.492 18.002H17.274C15.8165 19.2911 13.9377 20.0025 11.992 20.002C11.6978 20.0025 11.4039 19.9845 11.112 19.948C10.8485 19.9162 10.5831 19.9903 10.3743 20.1541C10.1655 20.318 10.0303 20.558 9.99847 20.8215C9.96665 21.085 10.0408 21.3503 10.2046 21.5592C10.3684 21.768 10.6085 21.9032 10.872 21.935C11.2435 21.9806 11.6176 22.003 11.992 22.002C14.3782 22.001 16.6848 21.1433 18.492 19.585V21.002C18.492 21.2672 18.5973 21.5216 18.7849 21.7091C18.9724 21.8966 19.2268 22.002 19.492 22.002C19.7572 22.002 20.0115 21.8966 20.1991 21.7091C20.3866 21.5216 20.492 21.2672 20.492 21.002V17.002C20.4852 16.9358 20.4718 16.8695 20.452 16.806ZM20.992 5.50201C21.2572 5.50201 21.5115 5.39665 21.6991 5.20912C21.8866 5.02158 21.992 4.76722 21.992 4.50201C21.992 4.23679 21.8866 3.98244 21.6991 3.7949C21.5115 3.60737 21.2572 3.50201 20.992 3.50201H16.992C16.9269 3.50869 16.8625 3.52175 16.8 3.54101L16.793 3.54201C16.672 3.56726 16.5567 3.61473 16.453 3.68201L16.433 3.69501C16.3378 3.7615 16.2549 3.84407 16.188 3.93901C16.18 3.94901 16.168 3.95501 16.16 3.96601C16.153 3.97601 16.153 3.98901 16.146 4.00001C16.0759 4.12824 16.0298 4.26821 16.01 4.41301C16.007 4.44301 15.992 4.47001 15.992 4.50201V8.50201C15.992 8.76722 16.0973 9.02158 16.2849 9.20911C16.4724 9.39665 16.7268 9.50201 16.992 9.50201C17.2572 9.50201 17.5115 9.39665 17.6991 9.20911C17.8866 9.02158 17.992 8.76722 17.992 8.50201V6.71901C19.2805 8.17725 19.9917 10.0561 19.992 12.002C19.9928 12.2962 19.9751 12.5901 19.939 12.882C19.9071 13.1452 19.981 13.4103 20.1445 13.6191C20.3081 13.8278 20.5478 13.963 20.811 13.995C20.8515 13.9998 20.8922 14.0022 20.933 14.002C21.1771 14.0016 21.4126 13.9118 21.5952 13.7498C21.7777 13.5877 21.8947 13.3644 21.924 13.122C21.9699 12.7505 21.9926 12.3764 21.992 12.002C21.991 9.61576 21.1333 7.30918 19.575 5.50201H20.992Z" fill="#D62322"/>
</svg>
