<svg width="24" height="24" viewBox="0 0 24 24" fill="none" xmlns="http://www.w3.org/2000/svg">
<g clip-path="url(#clip0_908_28280)">
<path d="M13.6286 10.335L8.77143 4.14931L10.4 2.11167L13.6286 6.22334L20.1143 -2L21.7143 0.037641L13.6286 10.335ZM6.85714 21.1782L14.8 23.9435L21.6 21.2509C21.5048 21.0326 21.3665 20.8444 21.1851 20.6862C21.0038 20.5281 20.7992 20.4495 20.5714 20.4504H14.8C14.2857 20.4504 13.8762 20.4262 13.5714 20.3777C13.2667 20.3292 12.9524 20.2321 12.6286 20.0866L9.97143 18.9586L10.6 16.1205L12.9143 17.1029C13.2381 17.2242 13.619 17.3212 14.0571 17.394C14.4952 17.4668 15.1429 17.5153 16 17.5395C16 17.2727 15.9383 17.018 15.8149 16.7754C15.6914 16.5328 15.5436 16.3752 15.3714 16.3024L8.68571 13.1732H6.85714V21.1782ZM0 26.2723V10.2622H8.68571C8.81905 10.2622 8.95238 10.2807 9.08571 10.3175C9.21905 10.3544 9.34286 10.3966 9.45714 10.4442L16.1714 13.6098C16.8 13.9009 17.3097 14.4103 17.7006 15.138C18.0914 15.8657 18.2865 16.6663 18.2857 17.5395H20.5714C21.5238 17.5395 22.3333 17.9398 23 18.7403C23.6667 19.5408 24 20.596 24 21.9059V23.3614L14.8571 27L6.85714 24.1619V26.2723H0ZM2.28571 23.3614H4.57143V13.1732H2.28571V23.3614Z" fill="#D62322"/>
</g>
<defs>
<clipPath id="clip0_908_28280">
<rect width="24" height="24" fill="white"/>
</clipPath>
</defs>
</svg>
