<svg width="20" height="22" viewBox="0 0 20 22" fill="none" xmlns="http://www.w3.org/2000/svg">
<path d="M10.002 0V22.005H11.002V17.004H14.003V22.005H20.005V0H10.002ZM16.004 1V3H14.004V1H16.004ZM16.004 6.001H14.004V4.001H16.004V6.001ZM16.004 9.002H14.004V7.002H16.004V9.002ZM16.004 12.002H14.004V10.002H16.004V12.002ZM16.004 15.003H14.004V13.003H16.004V15.003ZM11.002 1H13.002V3H11.002V1ZM11.002 4H13.002V6.001H11.002V4ZM11.002 7.002H13.002V9.002H11.002V7.002ZM11.002 10.002H13.002V12.002H11.002V10.002ZM11.002 13.003H13.002V15.003H11.002V13.003ZM19.004 20.005H15.004V17.004H19.004V20.005ZM19.004 15.003H17.004V13.003H19.004V15.003ZM19.004 12.003H17.004V10.003H19.004V12.003ZM19.004 9.002H17.004V7.002H19.004V9.002ZM19.004 6.002H17.004V4H19.004V6.002ZM19.004 3.001H17.004V1.001H19.004V3.001ZM0 7.001V22.005H3V18.004H6.001V22.004H9.002V7.002L0 7.001ZM1 8.001H4V10.002H1V8.001ZM1 11.002H4V13.002H1V11.002ZM1 16.003V14.003H4V16.003H1ZM8.002 16.003H5.002V14.003H8.002V16.003ZM8.002 13.003H5.002V11.003H8.002V13.003ZM8.002 10.003H5.002V8.001H8.002V10.003Z" fill="#D62322"/>
</svg>
