<svg width="22" height="22" viewBox="0 0 22 22" fill="none" xmlns="http://www.w3.org/2000/svg">
<path d="M11 9C12.0609 9 13.0783 8.57857 13.8284 7.82843C14.5786 7.07828 15 6.06087 15 5C15 3.93913 14.5786 2.92172 13.8284 2.17157C13.0783 1.42143 12.0609 1 11 1C9.93913 1 8.92172 1.42143 8.17157 2.17157C7.42143 2.92172 7 3.93913 7 5C7 6.06087 7.42143 7.07828 8.17157 7.82843C8.92172 8.57857 9.93913 9 11 9Z" stroke="#D62322" stroke-width="2" stroke-linejoin="round"/>
<path d="M11 9V18M7 15H5L1 21H21L17 15H15" stroke="#D62322" stroke-width="2" stroke-linecap="round" stroke-linejoin="round"/>
</svg>
